#
#
#

mtllib Boulder3.mtl


#
# Сетка Boulder3
#
g Сетка Boulder3

v 0.174620 -0.373929 0.087960
v -0.122838 -0.379762 -0.042895
v 0.018846 -0.338459 -0.131017
v -0.056466 -0.338640 -0.404471
v 0.129101 -0.329816 -0.280853
v 0.118971 0.261547 -0.238529
v 0.072430 -0.024226 -0.349474
v -0.140782 0.076332 -0.231647
v 0.018755 0.359869 -0.142579
v 0.278884 0.218336 0.124993
v 0.327409 0.161102 -0.111729
v 0.019159 0.379762 0.163686
v 0.502668 -0.261126 0.005014
v 0.262446 -0.320212 -0.146059
v 0.326973 -0.061897 -0.154425
v -0.187727 -0.180589 0.281594
v -0.214650 -0.286984 0.170240
v 0.146312 -0.249116 0.366494
v 0.332932 -0.318889 0.220047
v 0.446228 -0.311336 0.128508
v 0.475839 -0.252185 0.251886
v 0.557637 -0.108384 0.156992
v 0.582506 -0.081782 0.025564
v 0.469308 0.119171 0.171032
v 0.298666 -0.018186 0.283380
v 0.032413 0.183728 0.276668
v 0.080823 -0.071831 0.413352
v -0.147229 0.349943 0.056070
v -0.318527 0.336354 0.131665
v -0.164103 0.325001 0.287896
v -0.501165 0.190088 0.091613
v -0.374929 -0.054275 0.314290
v -0.178141 0.150184 0.376394
v -0.352940 -0.256678 0.071049
v -0.055340 -0.218327 -0.413352
v -0.401601 0.014377 -0.246107
v -0.564213 -0.052789 0.232399
v 0.101198 -0.179353 -0.350782
v -0.394181 -0.245133 -0.087812
v -0.247884 0.301770 -0.084622
v -0.493978 -0.022998 -0.158267
v -0.455660 0.147868 -0.035442
v -0.540435 -0.049419 -0.087738
v -0.582506 0.014897 0.119906
v 0.462704 0.133376 0.012014
vn 0.051199 -0.992184 0.113798
vn -0.175603 -0.984115 0.026100
vn 0.133594 -0.983854 -0.119095
vn -0.065497 -0.659473 -0.748869
vn 0.457202 -0.748003 -0.481102
vn 0.270787 0.625571 -0.731666
vn 0.204994 0.292692 -0.933975
vn -0.189411 0.469728 -0.862252
vn 0.069199 0.874485 -0.480092
vn 0.445107 0.818112 0.364105
vn 0.623110 0.569209 -0.536409
vn 0.254495 0.900584 0.352394
vn 0.722825 -0.568319 -0.393113
vn 0.461309 -0.733814 -0.498710
vn 0.626292 0.021600 -0.779290
vn -0.277194 -0.508889 0.814982
vn -0.303078 -0.827141 0.473266
vn 0.025298 -0.580664 0.813750
vn 0.176205 -0.894623 0.410611
vn 0.491597 -0.867394 0.077199
vn 0.638401 -0.417400 0.646701
vn 0.902377 -0.019900 0.430489
vn 0.943804 0.041400 -0.327902
vn 0.595401 0.611601 0.521001
vn 0.380201 0.361801 0.851203
vn 0.364110 0.482513 0.796621
vn 0.079698 0.053698 0.995372
vn -0.165905 0.984327 -0.059802
vn -0.468179 0.870862 0.149693
vn -0.117204 0.730827 0.672425
vn -0.770520 0.634716 0.058602
vn -0.294894 -0.291494 0.909983
vn -0.156406 0.268711 0.950438
vn -0.504928 -0.836947 0.211112
vn -0.053899 0.092198 -0.994281
vn -0.532618 0.211407 -0.819528
vn -0.799488 -0.210497 0.562592
vn 0.547793 -0.059599 -0.834489
vn -0.647990 -0.715389 -0.261396
vn -0.365609 0.766919 -0.527413
vn -0.762806 0.012600 -0.646505
vn -0.696255 0.573563 -0.431572
vn -0.916780 -0.142797 -0.372992
vn -0.989484 0.143098 0.021100
vn 0.681266 0.650068 -0.336583
vt 0.769100 0.882700
vt 0.855100 0.913800
vt 0.816400 0.970000
vt 0.549200 0.733700
vt 0.495600 0.803200
vt 0.492500 0.751400
vt 0.460000 0.780800
vt 0.408400 0.930800
vt 0.450100 0.855600
vt 0.496300 0.901900
vt 0.433700 0.977800
vt 0.703700 0.631500
vt 0.646900 0.572600
vt 0.680100 0.458900
vt 0.730900 0.460300
vt 0.762200 0.576100
vt 0.331100 0.733700
vt 0.418100 0.752700
vt 0.372300 0.817100
vt 0.837300 0.757800
vt 0.854500 0.808900
vt 0.769800 0.785500
vt 0.735600 0.831700
vt 0.709700 0.854800
vt 0.678900 0.887200
vt 0.708100 0.811500
vt 0.739600 0.982100
vt 0.669700 0.788300
vt 0.629400 0.771200
vt 0.677100 0.698900
vt 0.726900 0.727100
vt 0.768300 0.644500
vt 0.775300 0.729600
vt 0.792000 0.525600
vt 0.830100 0.553100
vt 0.801400 0.598100
vt 0.880500 0.566800
vt 0.866200 0.691400
vt 0.813000 0.650200
vt 0.896800 0.807600
vt 0.489000 0.824100
vt 0.562300 0.886900
vt 0.919700 0.669300
vt 0.455900 0.820000
vt 0.607500 0.811700
vt 0.523100 0.982200
vt 0.287300 0.776000
vt 0.638500 0.825200
vt 0.597600 0.886800
vt 0.598400 0.949200
vt 0.896800 0.508800
vt 0.965100 0.541900
vt 0.919800 0.608400
vt 0.623900 0.886400
vt 0.934700 0.848900
vt 0.982300 0.771300
vt 0.342600 0.879700
vt 0.291700 0.852800
vt 0.643600 0.662300
vt 0.820700 0.458900
f 1/1/1 2/2/2 3/3/3
f 2/4/2 4/5/4 3/6/3
f 4/5/4 5/7/5 3/6/3
f 6/8/6 7/9/7 8/10/8
f 8/10/8 9/11/9 6/8/6
f 10/12/10 11/13/11 6/14/6
f 10/12/10 6/14/6 9/15/9
f 9/15/9 12/16/12 10/12/10
f 13/17/13 14/18/14 15/19/15
f 16/20/16 17/21/17 18/22/18
f 1/1/1 19/23/19 18/22/18
f 20/24/20 13/25/13 21/26/21
f 1/1/1 14/27/14 20/24/20
f 22/28/22 23/29/23 24/30/24
f 25/31/25 26/32/26 27/33/27
f 26/32/26 10/12/10 12/16/12
f 12/16/12 9/15/9 28/34/28
f 29/35/29 30/36/30 28/34/28
f 29/35/29 31/37/31 30/36/30
f 32/38/32 16/20/16 33/39/33
f 2/2/2 1/1/1 17/21/17
f 17/21/17 34/40/34 2/2/2
f 3/6/3 5/7/5 14/18/14
f 14/18/14 5/7/5 15/19/15
f 35/41/35 8/10/8 7/9/7
f 8/10/8 35/41/35 36/42/36
f 34/40/34 17/21/17 37/43/37
f 10/12/10 25/31/25 24/30/24
f 10/12/10 26/32/26 25/31/25
f 5/7/5 4/5/4 38/44/38
f 36/42/36 35/41/35 4/5/4
f 36/42/36 4/5/4 39/45/39
f 8/10/8 40/46/40 9/11/9
f 16/20/16 18/22/18 27/33/27
f 13/17/13 15/19/15 23/47/23
f 22/28/22 13/25/13 23/48/23
f 40/46/40 8/10/8 36/42/36
f 36/42/36 41/49/41 42/50/42
f 42/51/42 43/52/43 44/53/44
f 43/54/43 41/49/41 39/45/39
f 39/55/39 34/40/34 37/43/37
f 43/56/43 39/55/39 37/43/37
f 44/53/44 43/52/43 37/43/37
f 21/26/21 22/28/22 24/30/24
f 21/26/21 24/30/24 25/31/25
f 21/26/21 25/31/25 27/33/27
f 21/26/21 27/33/27 18/22/18
f 12/16/12 28/34/28 30/36/30
f 33/39/33 26/32/26 30/36/30
f 20/24/20 14/27/14 13/25/13
f 7/9/7 6/8/6 11/57/11
f 45/58/45 23/47/23 15/19/15
f 11/57/11 45/58/45 15/19/15
f 7/9/7 11/57/11 15/19/15
f 10/12/10 24/30/24 45/59/45
f 11/13/11 10/12/10 45/59/45
f 31/37/31 44/53/44 37/43/37
f 32/38/32 33/39/33 37/43/37
f 17/21/17 1/1/1 18/22/18
f 13/25/13 22/28/22 21/26/21
f 1/1/1 3/3/3 14/27/14
f 9/15/9 40/60/40 28/34/28
f 34/40/34 39/55/39 2/2/2
f 5/7/5 38/44/38 15/19/15
f 33/39/33 16/20/16 27/33/27
f 27/33/27 26/32/26 33/39/33
f 45/59/45 24/30/24 23/29/23
f 2/4/2 39/45/39 4/5/4
f 42/51/42 44/53/44 31/37/31
f 31/37/31 29/35/29 42/51/42
f 29/35/29 40/60/40 42/51/42
f 29/35/29 28/34/28 40/60/40
f 40/46/40 36/42/36 42/50/42
f 33/39/33 31/37/31 37/43/37
f 16/20/16 32/38/32 37/43/37
f 17/21/17 16/20/16 37/43/37
f 26/32/26 12/16/12 30/36/30
f 41/49/41 43/54/43 42/50/42
f 41/49/41 36/42/36 39/45/39
f 38/44/38 7/9/7 15/19/15
f 35/41/35 7/9/7 38/44/38
f 4/5/4 35/41/35 38/44/38
f 20/24/20 21/26/21 19/23/19
f 1/1/1 20/24/20 19/23/19
f 21/26/21 18/22/18 19/23/19
f 31/37/31 33/39/33 30/36/30
