#
#
#

mtllib Boulder1.mtl


#
# Сетка Boulder1
#
g Сетка Boulder1

v 0.300256 -0.076826 0.488623
v 0.211861 -0.076029 0.519144
v 0.128820 -0.284604 0.433919
v 0.039385 -0.281518 0.440443
v -0.057361 -0.486560 0.263346
v -0.062662 -0.012389 0.479888
v -0.347761 -0.024337 0.370635
v -0.584102 0.052211 0.255199
v -0.408790 0.175249 0.372814
v -0.624303 0.291553 0.218551
v -0.600470 0.121808 0.030772
v -0.401293 0.257545 -0.101660
v -0.511510 0.007899 -0.091221
v 0.097379 0.269678 0.457596
v 0.461378 0.077238 0.411166
v 0.411532 0.306716 0.312969
v -0.167983 0.411454 0.360813
v -0.029295 0.472089 0.141685
v -0.120312 0.263111 -0.286509
v -0.044362 0.292441 -0.319144
v -0.000705 -0.028468 -0.300667
v -0.207229 0.439398 -0.041118
v -0.039212 0.416995 -0.082597
v -0.253609 0.024454 -0.246308
v -0.378499 -0.139983 -0.181903
v 0.277201 -0.268492 -0.184573
v -0.054408 -0.472117 -0.029915
v -0.240383 -0.424230 -0.055571
v 0.484155 0.171893 -0.080739
v 0.597683 0.020910 -0.068767
v 0.332787 0.164098 -0.222520
v 0.177436 -0.382296 0.124393
v 0.528773 -0.200097 0.063318
v 0.624303 0.017564 0.214691
v 0.428820 -0.241443 0.246452
v -0.249581 -0.414934 0.249693
v 0.367270 0.343897 0.048723
v 0.598078 0.237291 0.095612
v -0.489695 -0.156889 0.231728
v -0.482536 -0.167600 0.052253
v 0.330468 -0.044405 -0.208655
v -0.468484 0.380807 0.297725
v -0.462103 0.415105 0.171965
v -0.286289 0.486560 0.172867
v -0.114360 0.205131 0.429703
v 0.130375 0.373944 -0.115932
v 0.359065 0.252083 -0.084943
vn 0.453680 -0.208791 0.866361
vn 0.142406 -0.097004 0.985043
vn 0.271287 -0.650868 0.709065
vn -0.146503 -0.454109 0.878818
vn 0.022500 -0.921300 0.388200
vn -0.235006 -0.047701 0.970823
vn -0.416777 -0.242187 0.876152
vn -0.840711 -0.252503 0.479006
vn -0.387614 0.072903 0.918934
vn -0.897001 0.392400 0.203500
vn -0.919928 0.011700 -0.391912
vn -0.565383 0.464386 -0.681680
vn -0.790053 -0.124493 -0.600265
vn 0.080600 0.466200 0.881000
vn 0.611392 0.090899 0.786090
vn 0.481914 0.721621 0.497014
vn -0.059103 0.698735 0.712935
vn 0.166294 0.984667 0.052698
vn -0.454310 0.294607 -0.840719
vn -0.062800 0.456701 -0.887401
vn -0.002000 -0.224611 -0.974447
vn -0.219398 0.873692 -0.434196
vn 0.099195 0.928753 -0.357182
vn -0.382107 -0.001900 -0.924116
vn -0.538365 -0.348777 -0.767149
vn 0.355495 -0.618592 -0.700691
vn 0.064599 -0.901185 -0.428593
vn -0.414486 -0.777974 -0.472184
vn 0.566700 0.553300 -0.610500
vn 0.839526 -0.058902 -0.540117
vn 0.443689 0.332592 -0.832180
vn 0.444399 -0.894499 0.048800
vn 0.737311 -0.665310 -0.117202
vn 0.929577 -0.109497 0.351991
vn 0.583715 -0.710618 0.392810
vn -0.525009 -0.725612 0.444807
vn 0.402512 0.886126 -0.229707
vn 0.807789 0.586192 -0.062099
vn -0.768377 -0.498885 0.400888
vn -0.871433 -0.468218 -0.146206
vn 0.383500 -0.133100 -0.913900
vn -0.444495 0.618594 0.647893
vn -0.523597 0.837895 -0.154199
vn -0.174806 0.982834 0.059002
vn -0.199593 0.216492 0.955664
vn 0.303392 0.850078 -0.430489
vn 0.455888 0.711081 -0.535285
vt 0.701600 0.249700
vt 0.718100 0.249800
vt 0.728900 0.295700
vt 0.745600 0.295500
vt 0.759800 0.351700
vt 0.766400 0.240000
vt 0.826400 0.247600
vt 0.887100 0.232600
vt 0.840000 0.199100
vt 0.910300 0.152900
vt 0.958200 0.080200
vt 0.894400 0.013900
vt 0.980000 0.017300
vt 0.737300 0.181900
vt 0.668000 0.217600
vt 0.673400 0.161000
vt 0.788200 0.141600
vt 0.758700 0.085600
vt 0.185500 0.671400
vt 0.196800 0.692500
vt 0.146900 0.773100
vt 0.156800 0.551800
vt 0.222700 0.555900
vt 0.241600 0.624700
vt 0.129500 0.680200
vt 0.084100 0.679400
vt 0.090100 0.584900
vt 0.132100 0.934400
vt 0.038100 0.880300
vt 0.029600 0.798000
vt 0.252500 0.850100
vt 0.234500 0.966800
vt 0.221000 0.827500
vt 0.758000 0.435700
vt 0.623600 0.437000
vt 0.700100 0.366600
vt 0.613500 0.320000
vt 0.598000 0.225200
vt 0.659500 0.299800
vt 0.799800 0.344100
vt 0.818800 0.437000
vt 0.655100 0.096100
vt 0.615300 0.147700
vt 0.969100 0.312500
vt 0.864400 0.292500
vt 0.958200 0.240800
vt 0.034900 0.627900
vt 0.182800 0.884600
vt 0.853800 0.143200
vt 0.860200 0.108700
vt 0.816400 0.096500
vt 0.807200 0.023400
vt 0.777700 0.192600
vt 0.543100 0.136400
vt 0.696000 0.014200
vt 0.252600 0.702500
vt 0.258100 0.810100
vt 0.534700 0.310900
vt 0.622100 0.057200
vt 0.900400 0.333300
vt 0.750900 0.013500
vt 0.588300 0.090400
f 1/1/1 2/2/2 3/3/3
f 3/3/3 4/4/4 5/5/5
f 6/6/6 7/7/7 4/4/4
f 8/8/8 9/9/9 10/10/10
f 11/11/11 10/10/10 12/12/12
f 12/12/12 13/13/13 11/11/11
f 14/14/14 2/2/2 1/1/1
f 14/14/14 15/15/15 16/16/16
f 17/17/17 16/16/16 18/18/18
f 19/19/19 20/20/20 21/21/21
f 19/19/19 12/22/12 22/23/22
f 23/24/23 20/20/20 22/23/22
f 24/25/24 19/19/19 21/21/21
f 19/19/19 24/25/24 12/22/12
f 24/25/24 25/26/25 13/27/13
f 24/25/24 21/21/21 25/26/25
f 21/21/21 26/28/26 27/29/27
f 27/29/27 28/30/28 21/21/21
f 29/31/29 30/32/30 31/33/31
f 27/34/27 26/35/26 32/36/32
f 33/37/33 34/38/34 35/39/35
f 32/36/32 33/37/33 35/39/35
f 32/36/32 26/35/26 33/37/33
f 4/4/4 2/2/2 6/6/6
f 36/40/36 28/41/28 5/5/5
f 37/42/37 16/16/16 38/43/38
f 13/44/13 39/45/39 11/46/11
f 35/39/35 3/3/3 32/36/32
f 39/45/39 7/7/7 8/8/8
f 25/26/25 40/47/40 13/27/13
f 26/28/26 21/21/21 41/48/41
f 3/3/3 35/39/35 1/1/1
f 2/2/2 14/14/14 6/6/6
f 15/15/15 14/14/14 1/1/1
f 35/39/35 34/38/34 15/15/15
f 4/4/4 36/40/36 5/5/5
f 6/6/6 9/9/9 7/7/7
f 40/47/40 25/26/25 28/30/28
f 8/8/8 10/10/10 11/46/11
f 10/10/10 42/49/42 43/50/43
f 42/49/42 9/9/9 17/17/17
f 17/17/17 44/51/44 42/49/42
f 17/17/17 18/18/18 44/51/44
f 22/52/22 43/50/43 44/51/44
f 44/51/44 18/18/18 22/52/22
f 10/10/10 43/50/43 12/12/12
f 45/53/45 14/14/14 17/17/17
f 15/15/15 34/38/34 16/16/16
f 34/38/34 30/54/30 38/43/38
f 46/55/46 18/18/18 37/42/37
f 46/56/46 20/20/20 23/24/23
f 20/20/20 31/33/31 21/21/21
f 46/56/46 47/57/47 31/33/31
f 41/48/41 30/32/30 26/28/26
f 34/38/34 33/37/33 30/58/30
f 38/43/38 47/59/47 37/42/37
f 47/57/47 29/31/29 31/33/31
f 8/8/8 7/7/7 9/9/9
f 36/40/36 40/60/40 28/41/28
f 27/34/27 32/36/32 5/5/5
f 39/45/39 36/40/36 7/7/7
f 2/2/2 4/4/4 3/3/3
f 9/9/9 42/49/42 10/10/10
f 12/22/12 24/25/24 13/27/13
f 21/21/21 28/30/28 25/26/25
f 28/41/28 27/34/27 5/5/5
f 13/44/13 40/60/40 39/45/39
f 39/45/39 8/8/8 11/46/11
f 3/3/3 5/5/5 32/36/32
f 35/39/35 15/15/15 1/1/1
f 14/14/14 45/53/45 6/6/6
f 4/4/4 7/7/7 36/40/36
f 9/9/9 45/53/45 17/17/17
f 44/51/44 43/50/43 42/49/42
f 22/52/22 12/12/12 43/50/43
f 18/18/18 23/61/23 22/52/22
f 34/38/34 38/43/38 16/16/16
f 30/54/30 29/62/29 38/43/38
f 46/55/46 23/61/23 18/18/18
f 46/56/46 31/33/31 20/20/20
f 46/55/46 37/42/37 47/59/47
f 36/40/36 39/45/39 40/60/40
f 6/6/6 45/53/45 9/9/9
f 30/58/30 33/37/33 26/35/26
f 17/17/17 14/14/14 16/16/16
f 18/18/18 16/16/16 37/42/37
f 20/20/20 19/19/19 22/23/22
f 38/43/38 29/62/29 47/59/47
f 30/32/30 41/48/41 31/33/31
f 21/21/21 31/33/31 41/48/41
