#
#
#

mtllib Boulder1.mtl


#
# Сетка Boulder1
#
g Сетка Boulder1

v 0.300256 -0.076826 0.538623
v 0.211861 -0.076029 0.569144
v 0.128820 -0.284604 0.483919
v 0.039385 -0.281518 0.490443
v -0.057361 -0.486560 0.313346
v -0.062662 -0.012389 0.529888
v -0.347761 -0.024337 0.420635
v -0.584102 0.052211 0.305199
v -0.408790 0.175249 0.422814
v -0.624303 0.291553 0.268551
v -0.600470 0.121808 0.080772
v -0.401293 0.257545 0.009250
v -0.511510 0.007899 -0.000529
v 0.097379 0.269678 0.507596
v 0.461378 0.077238 0.461166
v 0.411532 0.306716 0.362969
v -0.167983 0.411454 0.410813
v -0.029295 0.472089 0.191685
v -0.207229 0.439398 0.008882
v -0.039212 0.416995 0.005409
v -0.378499 -0.139983 -0.006463
v 0.277201 -0.268492 -0.005294
v -0.054408 -0.472117 -0.011340
v -0.240383 -0.424230 -0.005571
v 0.484155 0.171893 0.001973
v 0.597683 0.020910 -0.004928
v 0.177436 -0.382296 0.174393
v 0.528773 -0.200097 0.113318
v 0.624303 0.017564 0.264691
v 0.428820 -0.241443 0.296452
v -0.249581 -0.414934 0.299693
v 0.367270 0.343897 0.098723
v 0.598078 0.237291 0.145612
v -0.489695 -0.156889 0.281728
v -0.482536 -0.167600 0.102253
v -0.468484 0.380807 0.347725
v -0.462103 0.415105 0.221965
v -0.286289 0.486560 0.222867
v -0.114360 0.205131 0.479703
v 0.130375 0.373944 0.002985
v 0.359065 0.252083 0.002486
vn 0.441440 -0.205545 0.873431
vn 0.077403 -0.140953 0.986986
vn 0.308352 -0.666390 0.678855
vn -0.187790 -0.420399 0.887693
vn 0.018252 -0.936514 0.350156
vn -0.232966 -0.016333 0.972348
vn -0.420418 -0.264201 0.868013
vn -0.791472 -0.231745 0.565567
vn -0.373684 0.091678 0.923015
vn -0.878630 0.448545 0.163760
vn -0.911528 -0.063029 -0.406380
vn -0.560816 0.495256 -0.663481
vn -0.820398 -0.263365 -0.507530
vn 0.088382 0.343219 0.935088
vn 0.594931 0.055496 0.801859
vn 0.468901 0.745333 0.473931
vn -0.055136 0.681746 0.729508
vn 0.183004 0.982138 -0.043758
vn 0.230646 -0.966271 -0.114551
vn 0.474538 -0.762838 -0.439195
vn 0.454557 -0.890512 0.019160
vn 0.683056 -0.709402 -0.173731
vn 0.933769 -0.089417 0.346526
vn 0.599322 -0.652695 0.463468
vn -0.556618 -0.683702 0.471940
vn -0.550159 -0.810203 -0.202229
vn 0.372915 0.874143 -0.311141
vn 0.468901 0.745333 0.473931
vn 0.721809 0.627297 -0.292387
vn -0.846777 -0.467879 0.253097
vn 0.599322 -0.652695 0.463468
vn 0.454557 -0.890512 0.019160
vn -0.608680 -0.401322 -0.684433
vn -0.802115 -0.514569 -0.303035
vn 0.077403 -0.140953 0.986986
vn 0.441440 -0.205545 0.873431
vn 0.599322 -0.652695 0.463468
vn -0.878630 0.448545 0.163760
vn -0.419378 0.680318 0.601074
vn -0.529683 0.814718 -0.235948
vn -0.373684 0.091678 0.923015
vn -0.055136 0.681746 0.729508
vn -0.168685 0.980253 0.103196
vn -0.419378 0.680318 0.601074
vn -0.055136 0.681746 0.729508
vn -0.201336 0.904628 -0.375647
vn -0.168685 0.980253 0.103195
vn -0.168685 0.980253 0.103195
vn -0.878629 0.448545 0.163760
vn -0.529683 0.814718 -0.235948
vn -0.199857 0.219229 0.954985
vn 0.088382 0.343219 0.935088
vn 0.594931 0.055496 0.801859
vn 0.468901 0.745333 0.473931
vn 0.933769 -0.089417 0.346526
vn 0.880450 -0.099683 -0.463543
vn 0.279342 0.862302 -0.422379
vn 0.933769 -0.089417 0.346526
vn 0.398192 0.651846 -0.645398
vn -0.373684 0.091678 0.923015
vn 0.018252 -0.936514 0.350156
vn -0.556618 -0.683702 0.471940
vn -0.420418 -0.264201 0.868013
vn -0.187790 -0.420399 0.887693
vn 0.308352 -0.666390 0.678855
vn -0.419378 0.680318 0.601074
vn 0.230646 -0.966271 -0.114551
vn 0.018252 -0.936514 0.350156
vn -0.820398 -0.263365 -0.507530
vn -0.846777 -0.467879 0.253097
vn -0.846777 -0.467879 0.253097
vn 0.599322 -0.652695 0.463468
vn 0.594931 0.055496 0.801859
vn -0.232966 -0.016333 0.972348
vn -0.373684 0.091678 0.923015
vn -0.199857 0.219229 0.954985
vn -0.168685 0.980253 0.103196
vn -0.560816 0.495255 -0.663481
vn 0.183004 0.982138 -0.043758
vn 0.176570 0.941274 -0.287796
vn -0.201336 0.904628 -0.375647
vn 0.933769 -0.089417 0.346525
vn 0.468901 0.745333 0.473931
vn 0.501789 0.564807 -0.655134
vn 0.183004 0.982138 -0.043758
vn -0.846777 -0.467879 0.253097
vn -0.232966 -0.016333 0.972348
vn 0.880449 -0.099683 -0.463543
vn -0.055136 0.681746 0.729508
vn 0.468901 0.745333 0.473931
vn 0.183004 0.982138 -0.043758
vn 0.372915 0.874143 -0.311141
vt 0.701600 0.249700
vt 0.718100 0.249800
vt 0.728900 0.295700
vt 0.745600 0.295500
vt 0.759800 0.351700
vt 0.766400 0.240000
vt 0.826400 0.247600
vt 0.887100 0.232600
vt 0.840000 0.199100
vt 0.910300 0.152900
vt 0.958200 0.080200
vt 0.894400 0.013900
vt 0.980000 0.017300
vt 0.737300 0.181900
vt 0.668000 0.217600
vt 0.673400 0.161000
vt 0.788200 0.141600
vt 0.758700 0.085600
vt 0.758000 0.435700
vt 0.623600 0.437000
vt 0.700100 0.366600
vt 0.613500 0.320000
vt 0.598000 0.225200
vt 0.659500 0.299800
vt 0.799800 0.344100
vt 0.818800 0.437000
vt 0.655100 0.096100
vt 0.615300 0.147700
vt 0.969100 0.312500
vt 0.864400 0.292500
vt 0.958200 0.240800
vt 0.084100 0.679400
vt 0.034900 0.627900
vt 0.090100 0.584900
vt 0.029600 0.798000
vt 0.853800 0.143200
vt 0.860200 0.108700
vt 0.816400 0.096500
vt 0.807200 0.023400
vt 0.777700 0.192600
vt 0.543100 0.136400
vt 0.696000 0.014200
vt 0.534700 0.310900
vt 0.622100 0.057200
vt 0.900400 0.333300
vt 0.750900 0.013500
vt 0.588300 0.090400
f 1/1/1 2/2/2 3/3/3
f 3/3/3 4/4/4 5/5/5
f 6/6/6 7/7/7 4/4/4
f 8/8/8 9/9/9 10/10/10
f 11/11/11 10/10/10 12/12/12
f 12/12/12 13/13/13 11/11/11
f 14/14/14 2/2/2 1/1/1
f 14/14/14 15/15/15 16/16/16
f 17/17/17 16/16/16 18/18/18
f 23/19/19 22/20/20 27/21/21
f 28/22/22 29/23/23 30/24/24
f 27/21/21 28/22/22 30/24/24
f 27/21/21 22/20/20 28/22/22
f 4/4/4 2/2/2 6/6/6
f 31/25/25 24/26/26 5/5/5
f 32/27/27 16/16/28 33/28/29
f 13/29/13 34/30/30 11/31/11
f 30/24/31 3/3/3 27/21/32
f 34/30/30 7/7/7 8/8/8
f 21/32/33 35/33/34 13/34/13
f 3/3/3 30/24/31 1/1/1
f 2/2/35 14/14/14 6/6/6
f 15/15/15 14/14/14 1/1/36
f 30/24/37 29/23/23 15/15/15
f 4/4/4 31/25/25 5/5/5
f 6/6/6 9/9/9 7/7/7
f 35/33/34 21/32/33 24/35/26
f 8/8/8 10/10/38 11/31/11
f 10/10/10 36/36/39 37/37/40
f 36/36/39 9/9/41 17/17/17
f 17/17/42 38/38/43 36/36/44
f 17/17/45 18/18/18 38/38/43
f 19/39/46 37/37/40 38/38/47
f 38/38/48 18/18/18 19/39/46
f 10/10/49 37/37/50 12/12/12
f 39/40/51 14/14/52 17/17/45
f 15/15/53 29/23/23 16/16/54
f 29/23/55 26/41/56 33/28/29
f 40/42/57 18/18/18 32/27/27
f 29/23/58 28/22/22 26/43/56
f 33/28/29 41/44/59 32/27/27
f 8/8/8 7/7/7 9/9/60
f 31/25/25 35/45/34 24/26/26
f 23/19/19 27/21/21 5/5/61
f 34/30/30 31/25/62 7/7/63
f 2/2/2 4/4/64 3/3/65
f 9/9/9 36/36/66 10/10/38
f 24/26/26 23/19/67 5/5/68
f 13/29/69 35/45/34 34/30/70
f 34/30/71 8/8/8 11/31/11
f 3/3/3 5/5/61 27/21/32
f 30/24/72 15/15/73 1/1/36
f 14/14/14 39/40/51 6/6/74
f 4/4/64 7/7/63 31/25/25
f 9/9/75 39/40/76 17/17/45
f 38/38/77 37/37/40 36/36/66
f 19/39/46 12/12/78 37/37/40
f 18/18/79 20/46/80 19/39/81
f 29/23/82 33/28/29 16/16/83
f 26/41/56 25/47/84 33/28/29
f 40/42/57 20/46/80 18/18/85
f 40/42/57 32/27/27 41/44/59
f 31/25/25 34/30/86 35/45/34
f 6/6/87 39/40/76 9/9/9
f 26/43/88 28/22/22 22/20/20
f 17/17/89 14/14/14 16/16/90
f 18/18/91 16/16/28 32/27/92
f 33/28/29 25/47/84 41/44/59
