#
#
#

mtllib Bush3.mtl


#
# Сетка Сетка Plane03
#
g Сетка Сетка Plane03


#
# Сетка Сетка Plane03_Сетка Plane03_Phong[21]
#
usemtl Сетка Сетка Plane03_Сетка Plane03_Phong[21]

v 0.355494 -0.218865 0.255846
v -0.052089 -0.477006 0.281129
v 0.227560 -0.479378 0.321043
v 0.516084 -0.347754 0.285180
v -0.053083 -0.344626 0.243933
v 0.229144 -0.070383 0.203974
v 0.815835 -0.589667 0.342374
v -0.038004 -0.119467 0.132883
v -0.054720 -0.178031 0.167336
v -0.002900 -0.079546 0.137305
v 0.528585 -0.064672 0.364273
v 0.449761 0.214366 0.353198
v 0.309765 0.241850 0.256875
v 0.248863 0.240198 0.210932
v 0.227573 0.108483 0.121877
v 0.218909 0.002879 0.162995
v 0.219407 0.229220 0.176005
v 0.074330 0.144848 -0.025668
v 0.133873 0.035467 0.115677
v 0.383452 0.243848 0.312463
v 0.169766 -0.060048 0.153777
v -0.053838 -0.267756 0.208589
v 0.165143 -0.006612 0.162307
v 0.158684 -0.014883 0.161096
v 0.121391 0.018272 0.113885
v 0.059773 0.093843 0.004337
v -0.000245 0.447442 0.274886
v 0.376215 0.321268 0.339660
v 0.256297 0.506440 0.360093
v -0.000175 0.653270 0.298149
v 0.320111 0.263696 0.295638
v -0.000204 0.314631 0.231819
v 0.000205 1.038523 0.344000
v 0.188645 0.146753 0.190077
v 0.227664 0.168829 0.223100
v 0.142066 0.151045 0.189913
v -0.255887 0.506440 0.360093
v -0.375805 0.321268 0.339660
v -0.272286 0.215041 0.258435
v -0.227253 0.168829 0.223100
v -0.099596 0.212920 0.154048
v -0.033967 0.265547 0.194289
v -0.194752 0.150441 0.195594
v 0.000205 0.015329 -0.029224
v -0.000119 0.184729 0.157825
v -0.326774 0.270954 0.301187
v 0.036989 0.262864 0.192237
v 0.277454 0.219922 0.262168
v -0.000162 0.232943 0.197508
v 0.009164 0.232590 0.197238
v 0.018584 0.184729 0.157825
v 0.034188 0.034555 -0.000464
v 0.175172 0.351639 0.075281
v 0.367255 0.268300 0.074777
v 0.309324 0.379057 0.080595
v 0.186244 0.442616 0.069331
v 0.314218 0.230008 0.072711
v 0.143818 0.261710 0.073230
v 0.207938 0.613458 0.059041
v 0.208572 0.155838 0.050263
v 0.240493 0.172391 0.058669
v 0.187657 0.161555 0.054475
v 0.106935 0.415340 0.125427
v 0.029845 0.328789 0.149519
v 0.031888 0.244293 0.119674
v 0.036385 0.208983 0.103882
v 0.064651 0.199958 0.058203
v 0.111985 0.230767 0.064567
v 0.038961 0.189966 0.090420
v 0.054777 0.101232 -0.005290
v 0.105221 0.158634 0.053252
v 0.026446 0.287017 0.138781
v 0.142909 0.223220 0.056857
v 0.280200 0.203423 0.066231
v 0.124649 0.199848 0.065899
v 0.128713 0.198856 0.064885
v 0.113612 0.157129 0.051393
v 0.082579 0.115649 0.002030
v -0.241833 -0.064383 0.122489
v -0.391722 0.188481 0.138964
v -0.427984 0.037304 0.155403
v -0.348015 -0.168639 0.129423
v -0.320362 0.186544 0.116416
v -0.162858 -0.000286 0.098911
v -0.547746 -0.363395 0.143952
v -0.160747 0.172394 0.061166
v -0.202774 0.183352 0.079261
v -0.139782 0.147890 0.064960
v -0.175783 -0.207414 0.200390
v -0.021425 -0.170829 0.205015
v 0.008298 -0.075482 0.145228
v 0.021228 -0.034004 0.119218
v -0.036652 -0.003840 0.059101
v -0.108946 0.004784 0.078452
v 0.024227 -0.012074 0.098436
v 0.027466 0.100745 -0.023413
v -0.073703 0.058772 0.054152
v -0.007347 -0.125668 0.176697
v -0.141847 0.039846 0.070939
v -0.266104 0.185071 0.099272
v -0.111363 0.038248 0.079083
v -0.115687 0.042856 0.078096
v -0.082913 0.067708 0.052510
v -0.009136 0.110288 -0.007653
vn -0.476112 0.159467 0.864805
vn -0.213674 0.501588 0.838304
vn -0.063034 0.473341 0.878621
vn -0.323522 0.036736 0.945507
vn -0.267884 0.520912 0.810487
vn -0.665606 0.326147 0.671265
vn -0.327821 0.040115 0.943888
vn -0.751917 0.601299 0.270297
vn -0.588408 0.623527 0.514772
vn -0.489737 0.678410 0.547648
vn -0.628613 -0.305116 0.715367
vn -0.755006 -0.125007 0.643692
vn -0.628613 -0.305115 0.715367
vn -0.919365 -0.032638 0.392049
vn -0.759319 -0.476504 0.443146
vn -0.870109 0.023937 0.492277
vn -0.630904 0.584014 0.510772
vn -0.821727 -0.410241 0.395560
vn -0.802543 0.409190 0.434153
vn -0.591452 0.644006 0.485223
vn -0.782701 -0.066332 0.618853
vn -0.676429 0.343176 0.651670
vn -0.390214 0.668156 0.633483
vn -0.531850 0.604641 0.592912
vn -0.857732 0.025503 0.513464
vn -0.715592 0.500865 0.486891
vn -0.627710 0.696105 0.348451
vt 0.499678 0.500322
vt 0.768565 0.231435
vt 0.835635 0.469322
vt 0.652449 0.652508
vt 0.653889 0.196903
vt 0.433973 0.434556
vt 0.978698 0.977513
vt 0.385170 0.115985
vt 0.464925 0.140001
vt 0.403787 0.201139
vt 0.469808 0.835150
vt 0.231435 0.768565
vt 0.167719 0.556973
vt 0.140001 0.464925
vt 0.231180 0.373746
vt 0.346252 0.395067
vt 0.119997 0.398493
vt 0.000000 0.000000
vt 0.302231 0.302695
vt 0.201256 0.668345
vt 0.393456 0.340909
vt 0.566697 0.170647
vt 0.368741 0.369265
vt 0.374945 0.362147
vt 0.315590 0.289336
vt 0.069460 0.020916
f 1/1/1 2/2/2 3/3/3
f 3/3/3 4/4/4 1/1/1
f 5/5/5 2/2/2 1/1/1
f 1/1/1 6/6/6 5/5/5
f 3/3/3 7/7/7 4/4/4
f 8/8/8 9/9/9 10/10/10
f 7/7/7 11/11/11 4/4/4
f 11/11/11 12/12/12 1/1/1
f 1/1/1 4/4/4 11/11/13
f 13/13/14 14/14/15 15/15/16
f 15/15/16 16/16/17 13/13/14
f 15/15/16 17/17/18 18/18/19
f 18/18/19 19/19/20 15/15/16
f 1/1/1 12/12/12 20/20/21
f 20/20/21 6/6/6 1/1/1
f 6/6/6 21/21/22 22/22/23
f 22/22/23 5/5/5 6/6/6
f 6/6/6 23/23/24 24/24/25
f 25/25/26 19/19/20 18/18/19
f 18/18/19 26/26/27 25/25/26
f 23/23/24 6/6/6 16/16/17
f 6/6/6 24/24/25 21/21/22
f 10/10/10 25/25/26 26/26/27
f 26/26/27 8/8/8 10/10/10
f 15/15/16 14/14/15 17/17/18
f 19/19/20 23/23/24 16/16/17
f 16/16/17 15/15/16 19/19/20
f 25/25/26 24/24/25 23/23/24
f 23/23/24 19/19/20 25/25/26
f 25/25/26 10/10/10 21/21/22
f 21/21/22 24/24/25 25/25/26
f 10/10/10 9/9/9 22/22/23
f 22/22/23 21/21/22 10/10/10
f 6/6/6 20/20/21 13/13/14
f 13/13/14 16/16/17 6/6/6

#
# Сетка Сетка Plane03_Сетка Plane03_Phong[22]
#
usemtl Сетка Сетка Plane03_Сетка Plane03_Phong[22]

v 0.355494 -0.218865 0.255846
v -0.052089 -0.477006 0.281129
v 0.227560 -0.479378 0.321043
v 0.516084 -0.347754 0.285180
v -0.053083 -0.344626 0.243933
v 0.229144 -0.070383 0.203974
v 0.815835 -0.589667 0.342374
v -0.038004 -0.119467 0.132883
v -0.054720 -0.178031 0.167336
v -0.002900 -0.079546 0.137305
v 0.528585 -0.064672 0.364273
v 0.449761 0.214366 0.353198
v 0.309765 0.241850 0.256875
v 0.248863 0.240198 0.210932
v 0.227573 0.108483 0.121877
v 0.218909 0.002879 0.162995
v 0.219407 0.229220 0.176005
v 0.074330 0.144848 -0.025668
v 0.133873 0.035467 0.115677
v 0.383452 0.243848 0.312463
v 0.169766 -0.060048 0.153777
v -0.053838 -0.267756 0.208589
v 0.165143 -0.006612 0.162307
v 0.158684 -0.014883 0.161096
v 0.121391 0.018272 0.113885
v 0.059773 0.093843 0.004337
v -0.000245 0.447442 0.274886
v 0.376215 0.321268 0.339660
v 0.256297 0.506440 0.360093
v -0.000175 0.653270 0.298149
v 0.320111 0.263696 0.295638
v -0.000204 0.314631 0.231819
v 0.000205 1.038523 0.344000
v 0.188645 0.146753 0.190077
v 0.227664 0.168829 0.223100
v 0.142066 0.151045 0.189913
v -0.255887 0.506440 0.360093
v -0.375805 0.321268 0.339660
v -0.272286 0.215041 0.258435
v -0.227253 0.168829 0.223100
v -0.099596 0.212920 0.154048
v -0.033967 0.265547 0.194289
v -0.194752 0.150441 0.195594
v 0.000205 0.015329 -0.029224
v -0.000119 0.184729 0.157825
v -0.326774 0.270954 0.301187
v 0.036989 0.262864 0.192237
v 0.277454 0.219922 0.262168
v -0.000162 0.232943 0.197508
v 0.009164 0.232590 0.197238
v 0.018584 0.184729 0.157825
v 0.034188 0.034555 -0.000464
v 0.175172 0.351639 0.075281
v 0.367255 0.268300 0.074777
v 0.309324 0.379057 0.080595
v 0.186244 0.442616 0.069331
v 0.314218 0.230008 0.072711
v 0.143818 0.261710 0.073230
v 0.207938 0.613458 0.059041
v 0.208572 0.155838 0.050263
v 0.240493 0.172391 0.058669
v 0.187657 0.161555 0.054475
v 0.106935 0.415340 0.125427
v 0.029845 0.328789 0.149519
v 0.031888 0.244293 0.119674
v 0.036385 0.208983 0.103882
v 0.064651 0.199958 0.058203
v 0.111985 0.230767 0.064567
v 0.038961 0.189966 0.090420
v 0.054777 0.101232 -0.005290
v 0.105221 0.158634 0.053252
v 0.026446 0.287017 0.138781
v 0.142909 0.223220 0.056857
v 0.280200 0.203423 0.066231
v 0.124649 0.199848 0.065899
v 0.128713 0.198856 0.064885
v 0.113612 0.157129 0.051393
v 0.082579 0.115649 0.002030
v -0.241833 -0.064383 0.122489
v -0.391722 0.188481 0.138964
v -0.427984 0.037304 0.155403
v -0.348015 -0.168639 0.129423
v -0.320362 0.186544 0.116416
v -0.162858 -0.000286 0.098911
v -0.547746 -0.363395 0.143952
v -0.160747 0.172394 0.061166
v -0.202774 0.183352 0.079261
v -0.139782 0.147890 0.064960
v -0.175783 -0.207414 0.200390
v -0.021425 -0.170829 0.205015
v 0.008298 -0.075482 0.145228
v 0.021228 -0.034004 0.119218
v -0.036652 -0.003840 0.059101
v -0.108946 0.004784 0.078452
v 0.024227 -0.012074 0.098436
v 0.027466 0.100745 -0.023413
v -0.073703 0.058772 0.054152
v -0.007347 -0.125668 0.176697
v -0.141847 0.039846 0.070939
v -0.266104 0.185071 0.099272
v -0.111363 0.038248 0.079083
v -0.115687 0.042856 0.078096
v -0.082913 0.067708 0.052510
v -0.009136 0.110288 -0.007653
vn 0.001348 -0.493309 0.869853
vn -0.429116 -0.527604 0.733139
vn -0.487435 -0.280356 0.826927
vn 0.000784 -0.226016 0.974123
vn -0.397513 -0.588248 0.704235
vn 0.013740 -0.705864 0.708214
vn 0.000846 -0.231567 0.972819
vn -0.088694 -0.936806 0.338420
vn -0.242381 -0.812439 0.530277
vn -0.347068 -0.761572 0.547314
vn 0.488645 -0.280814 0.826056
vn 0.429960 -0.527436 0.732766
vn 0.493359 -0.695049 0.522976
vn 0.746356 -0.299869 0.594165
vn 0.400957 -0.699831 0.591160
vn -0.185568 -0.823272 0.536459
vn 0.737073 -0.437112 0.515418
vn 0.072143 -0.880488 0.468547
vn -0.252264 -0.830727 0.496242
vn 0.400263 -0.587213 0.703542
vn 0.009549 -0.708394 0.705753
vn -0.412546 -0.673061 0.613837
vn -0.273071 -0.751281 0.600840
vn 0.391063 -0.673072 0.627729
vn -0.060629 -0.846988 0.528143
vn -0.237182 -0.897987 0.370626
vt 0.499678 0.500322
vt 0.768565 0.231435
vt 0.835635 0.469322
vt 0.652449 0.652508
vt 0.653889 0.196903
vt 0.433973 0.434556
vt 0.978698 0.977513
vt 0.385170 0.115985
vt 0.464925 0.140001
vt 0.403787 0.201139
vt 0.469808 0.835150
vt 0.231435 0.768565
vt 0.167719 0.556973
vt 0.140001 0.464925
vt 0.231180 0.373746
vt 0.346252 0.395067
vt 0.119997 0.398493
vt 0.000000 0.000000
vt 0.302231 0.302695
vt 0.201256 0.668345
vt 0.393456 0.340909
vt 0.566697 0.170647
vt 0.368741 0.369265
vt 0.374945 0.362147
vt 0.315590 0.289336
vt 0.069460 0.020916
f 131/27/28 132/28/29 133/29/30
f 133/29/30 134/30/31 131/27/28
f 135/31/32 132/28/29 131/27/28
f 131/27/28 136/32/33 135/31/32
f 133/29/30 137/33/34 134/30/31
f 138/34/35 139/35/36 140/36/37
f 137/33/34 141/37/38 134/30/31
f 141/37/38 142/38/39 131/27/28
f 131/27/28 134/30/31 141/37/38
f 143/39/40 144/40/41 145/41/42
f 145/41/42 146/42/43 143/39/40
f 145/41/42 147/43/44 148/44/45
f 148/44/45 149/45/46 145/41/42
f 131/27/28 142/38/39 150/46/47
f 150/46/47 136/32/33 131/27/28
f 136/32/33 151/47/48 152/48/49
f 152/48/49 135/31/32 136/32/33
f 136/32/33 153/49/50 154/50/51
f 155/51/52 149/45/46 148/44/45
f 148/44/45 156/52/53 155/51/52
f 153/49/50 136/32/33 146/42/43
f 136/32/33 154/50/51 151/47/48
f 140/36/37 155/51/52 156/52/53
f 156/52/53 138/34/35 140/36/37
f 145/41/42 144/40/41 147/43/44
f 149/45/46 153/49/50 146/42/43
f 146/42/43 145/41/42 149/45/46
f 155/51/52 154/50/51 153/49/50
f 153/49/50 149/45/46 155/51/52
f 155/51/52 140/36/37 151/47/48
f 151/47/48 154/50/51 155/51/52
f 140/36/37 139/35/36 152/48/49
f 152/48/49 151/47/48 140/36/37
f 136/32/33 150/46/47 143/39/40
f 143/39/40 146/42/43 136/32/33

#
# Сетка Сетка Plane03_Сетка Plane03_Phong[23]
#
usemtl Сетка Сетка Plane03_Сетка Plane03_Phong[23]

v 0.355494 -0.218865 0.255846
v -0.052089 -0.477006 0.281129
v 0.227560 -0.479378 0.321043
v 0.516084 -0.347754 0.285180
v -0.053083 -0.344626 0.243933
v 0.229144 -0.070383 0.203974
v 0.815835 -0.589667 0.342374
v -0.038004 -0.119467 0.132883
v -0.054720 -0.178031 0.167336
v -0.002900 -0.079546 0.137305
v 0.528585 -0.064672 0.364273
v 0.449761 0.214366 0.353198
v 0.309765 0.241850 0.256875
v 0.248863 0.240198 0.210932
v 0.227573 0.108483 0.121877
v 0.218909 0.002879 0.162995
v 0.219407 0.229220 0.176005
v 0.074330 0.144848 -0.025668
v 0.133873 0.035467 0.115677
v 0.383452 0.243848 0.312463
v 0.169766 -0.060048 0.153777
v -0.053838 -0.267756 0.208589
v 0.165143 -0.006612 0.162307
v 0.158684 -0.014883 0.161096
v 0.121391 0.018272 0.113885
v 0.059773 0.093843 0.004337
v -0.000245 0.447442 0.274886
v 0.376215 0.321268 0.339660
v 0.256297 0.506440 0.360093
v -0.000175 0.653270 0.298149
v 0.320111 0.263696 0.295638
v -0.000204 0.314631 0.231819
v 0.000205 1.038523 0.344000
v 0.188645 0.146753 0.190077
v 0.227664 0.168829 0.223100
v 0.142066 0.151045 0.189913
v -0.255887 0.506440 0.360093
v -0.375805 0.321268 0.339660
v -0.272286 0.215041 0.258435
v -0.227253 0.168829 0.223100
v -0.099596 0.212920 0.154048
v -0.033967 0.265547 0.194289
v -0.194752 0.150441 0.195594
v 0.000205 0.015329 -0.029224
v -0.000119 0.184729 0.157825
v -0.326774 0.270954 0.301187
v 0.036989 0.262864 0.192237
v 0.277454 0.219922 0.262168
v -0.000162 0.232943 0.197508
v 0.009164 0.232590 0.197238
v 0.018584 0.184729 0.157825
v 0.034188 0.034555 -0.000464
v 0.175172 0.351639 0.075281
v 0.367255 0.268300 0.074777
v 0.309324 0.379057 0.080595
v 0.186244 0.442616 0.069331
v 0.314218 0.230008 0.072711
v 0.143818 0.261710 0.073230
v 0.207938 0.613458 0.059041
v 0.208572 0.155838 0.050263
v 0.240493 0.172391 0.058669
v 0.187657 0.161555 0.054475
v 0.106935 0.415340 0.125427
v 0.029845 0.328789 0.149519
v 0.031888 0.244293 0.119674
v 0.036385 0.208983 0.103882
v 0.064651 0.199958 0.058203
v 0.111985 0.230767 0.064567
v 0.038961 0.189966 0.090420
v 0.054777 0.101232 -0.005290
v 0.105221 0.158634 0.053252
v 0.026446 0.287017 0.138781
v 0.142909 0.223220 0.056857
v 0.280200 0.203423 0.066231
v 0.124649 0.199848 0.065899
v 0.128713 0.198856 0.064885
v 0.113612 0.157129 0.051393
v 0.082579 0.115649 0.002030
v -0.241833 -0.064383 0.122489
v -0.391722 0.188481 0.138964
v -0.427984 0.037304 0.155403
v -0.348015 -0.168639 0.129423
v -0.320362 0.186544 0.116416
v -0.162858 -0.000286 0.098911
v -0.547746 -0.363395 0.143952
v -0.160747 0.172394 0.061166
v -0.202774 0.183352 0.079261
v -0.139782 0.147890 0.064960
v -0.175783 -0.207414 0.200390
v -0.021425 -0.170829 0.205015
v 0.008298 -0.075482 0.145228
v 0.021228 -0.034004 0.119218
v -0.036652 -0.003840 0.059101
v -0.108946 0.004784 0.078452
v 0.024227 -0.012074 0.098436
v 0.027466 0.100745 -0.023413
v -0.073703 0.058772 0.054152
v -0.007347 -0.125668 0.176697
v -0.141847 0.039846 0.070939
v -0.266104 0.185071 0.099272
v -0.111363 0.038248 0.079083
v -0.115687 0.042856 0.078096
v -0.082913 0.067708 0.052510
v -0.009136 0.110288 -0.007653
vn 0.382899 -0.146858 0.912042
vn -0.038798 -0.101437 0.994085
vn -0.090855 0.048247 0.994695
vn 0.414343 0.062555 0.907969
vn -0.030850 -0.164335 0.985922
vn 0.307618 -0.425544 0.851049
vn 0.413698 0.056928 0.908633
vn -0.004287 -0.832340 0.554249
vn -0.010904 -0.578291 0.815757
vn -0.053792 -0.596640 0.800704
vn 0.789330 -0.110309 0.603979
vn 0.700936 -0.321676 0.636563
vn 0.652734 -0.588411 0.477190
vn 0.921611 -0.235621 0.308409
vn 0.546613 -0.577751 0.606150
vn -0.043668 -0.521082 0.852389
vn 0.878826 -0.377477 0.291849
vn 0.203113 -0.865813 0.457288
vn -0.211132 -0.588065 0.780771
vn 0.664113 -0.380148 0.643772
vn 0.353115 -0.435743 0.827912
vn -0.124952 -0.395326 0.910003
vn -0.040442 -0.395196 0.917706
vn 0.664953 -0.453752 0.593250
vn 0.275441 -0.733492 0.621387
vn 0.096320 -0.921401 0.376487
vn -0.043668 -0.521083 0.852388
vn -0.124952 -0.395326 0.910002
vt 0.499678 0.500322
vt 0.768565 0.231435
vt 0.835635 0.469322
vt 0.652449 0.652508
vt 0.653889 0.196903
vt 0.433973 0.434556
vt 0.978698 0.977513
vt 0.385170 0.115985
vt 0.464925 0.140001
vt 0.403787 0.201139
vt 0.469808 0.835150
vt 0.231435 0.768565
vt 0.167719 0.556973
vt 0.140001 0.464925
vt 0.231180 0.373746
vt 0.346252 0.395067
vt 0.119997 0.398493
vt 0.000000 0.000000
vt 0.302231 0.302695
vt 0.201256 0.668345
vt 0.393456 0.340909
vt 0.566697 0.170647
vt 0.368741 0.369265
vt 0.374945 0.362147
vt 0.315590 0.289336
vt 0.069460 0.020916
f 261/53/54 262/54/55 263/55/56
f 263/55/56 264/56/57 261/53/54
f 265/57/58 262/54/55 261/53/54
f 261/53/54 266/58/59 265/57/58
f 263/55/56 267/59/60 264/56/57
f 268/60/61 269/61/62 270/62/63
f 267/59/60 271/63/64 264/56/57
f 271/63/64 272/64/65 261/53/54
f 261/53/54 264/56/57 271/63/64
f 273/65/66 274/66/67 275/67/68
f 275/67/68 276/68/69 273/65/66
f 275/67/68 277/69/70 278/70/71
f 278/70/71 279/71/72 275/67/68
f 261/53/54 272/64/65 280/72/73
f 280/72/73 266/58/59 261/53/54
f 266/58/59 281/73/74 282/74/75
f 282/74/75 265/57/58 266/58/59
f 266/58/59 283/75/76 284/76/77
f 285/77/78 279/71/72 278/70/71
f 278/70/71 286/78/79 285/77/78
f 283/75/76 266/58/59 276/68/69
f 266/58/59 284/76/77 281/73/74
f 270/62/63 285/77/78 286/78/79
f 286/78/79 268/60/61 270/62/63
f 275/67/68 274/66/67 277/69/70
f 279/71/72 283/75/76 276/68/80
f 276/68/69 275/67/68 279/71/72
f 285/77/78 284/76/77 283/75/76
f 283/75/76 279/71/72 285/77/78
f 285/77/78 270/62/63 281/73/74
f 281/73/74 284/76/77 285/77/78
f 270/62/63 269/61/62 282/74/75
f 282/74/81 281/73/74 270/62/63
f 266/58/59 280/72/73 273/65/66
f 273/65/66 276/68/80 266/58/59

#
# Сетка Сетка Plane03_Сетка Plane03_Phong[24]
#
usemtl Сетка Сетка Plane03_Сетка Plane03_Phong[24]

v 0.355494 -0.218865 0.255846
v -0.052089 -0.477006 0.281129
v 0.227560 -0.479378 0.321043
v 0.516084 -0.347754 0.285180
v -0.053083 -0.344626 0.243933
v 0.229144 -0.070383 0.203974
v 0.815835 -0.589667 0.342374
v -0.038004 -0.119467 0.132883
v -0.054720 -0.178031 0.167336
v -0.002900 -0.079546 0.137305
v 0.528585 -0.064672 0.364273
v 0.449761 0.214366 0.353198
v 0.309765 0.241850 0.256875
v 0.248863 0.240198 0.210932
v 0.227573 0.108483 0.121877
v 0.218909 0.002879 0.162995
v 0.219407 0.229220 0.176005
v 0.074330 0.144848 -0.025668
v 0.133873 0.035467 0.115677
v 0.383452 0.243848 0.312463
v 0.169766 -0.060048 0.153777
v -0.053838 -0.267756 0.208589
v 0.165143 -0.006612 0.162307
v 0.158684 -0.014883 0.161096
v 0.121391 0.018272 0.113885
v 0.059773 0.093843 0.004337
v -0.000245 0.447442 0.274886
v 0.376215 0.321268 0.339660
v 0.256297 0.506440 0.360093
v -0.000175 0.653270 0.298149
v 0.320111 0.263696 0.295638
v -0.000204 0.314631 0.231819
v 0.000205 1.038523 0.344000
v 0.188645 0.146753 0.190077
v 0.227664 0.168829 0.223100
v 0.142066 0.151045 0.189913
v -0.255887 0.506440 0.360093
v -0.375805 0.321268 0.339660
v -0.272286 0.215041 0.258435
v -0.227253 0.168829 0.223100
v -0.099596 0.212920 0.154048
v -0.033967 0.265547 0.194289
v -0.194752 0.150441 0.195594
v 0.000205 0.015329 -0.029224
v -0.000119 0.184729 0.157825
v -0.326774 0.270954 0.301187
v 0.036989 0.262864 0.192237
v 0.277454 0.219922 0.262168
v -0.000162 0.232943 0.197508
v 0.009164 0.232590 0.197238
v 0.018584 0.184729 0.157825
v 0.034188 0.034555 -0.000464
v 0.175172 0.351639 0.075281
v 0.367255 0.268300 0.074777
v 0.309324 0.379057 0.080595
v 0.186244 0.442616 0.069331
v 0.314218 0.230008 0.072711
v 0.143818 0.261710 0.073230
v 0.207938 0.613458 0.059041
v 0.208572 0.155838 0.050263
v 0.240493 0.172391 0.058669
v 0.187657 0.161555 0.054475
v 0.106935 0.415340 0.125427
v 0.029845 0.328789 0.149519
v 0.031888 0.244293 0.119674
v 0.036385 0.208983 0.103882
v 0.064651 0.199958 0.058203
v 0.111985 0.230767 0.064567
v 0.038961 0.189966 0.090420
v 0.054777 0.101232 -0.005290
v 0.105221 0.158634 0.053252
v 0.026446 0.287017 0.138781
v 0.142909 0.223220 0.056857
v 0.280200 0.203423 0.066231
v 0.124649 0.199848 0.065899
v 0.128713 0.198856 0.064885
v 0.113612 0.157129 0.051393
v 0.082579 0.115649 0.002030
v -0.241833 -0.064383 0.122489
v -0.391722 0.188481 0.138964
v -0.427984 0.037304 0.155403
v -0.348015 -0.168639 0.129423
v -0.320362 0.186544 0.116416
v -0.162858 -0.000286 0.098911
v -0.547746 -0.363395 0.143952
v -0.160747 0.172394 0.061166
v -0.202774 0.183352 0.079261
v -0.139782 0.147890 0.064960
v -0.175783 -0.207414 0.200390
v -0.021425 -0.170829 0.205015
v 0.008298 -0.075482 0.145228
v 0.021228 -0.034004 0.119218
v -0.036652 -0.003840 0.059101
v -0.108946 0.004784 0.078452
v 0.024227 -0.012074 0.098436
v 0.027466 0.100745 -0.023413
v -0.073703 0.058772 0.054152
v -0.007347 -0.125668 0.176697
v -0.141847 0.039846 0.070939
v -0.266104 0.185071 0.099272
v -0.111363 0.038248 0.079083
v -0.115687 0.042856 0.078096
v -0.082913 0.067708 0.052510
v -0.009136 0.110288 -0.007653
vn 0.098897 0.433275 0.895819
vn 0.457233 0.156971 0.875385
vn 0.307727 -0.056189 0.949814
vn -0.106932 0.245219 0.963552
vn 0.483435 0.220446 0.847168
vn 0.275077 0.584504 0.763340
vn -0.102920 0.249228 0.962960
vn 0.610061 0.658454 0.440753
vn 0.571409 0.475511 0.668865
vn 0.609706 0.369191 0.701396
vn -0.370355 0.602560 0.706937
vn -0.140052 0.736367 0.661928
vn -0.016648 0.885133 0.465040
vn -0.475503 0.771624 0.422485
vn 0.015629 0.822516 0.568527
vn 0.537517 0.522285 0.662037
vn -0.396011 0.829754 0.393298
vn 0.396823 0.717450 0.572536
vn 0.597159 0.478499 0.643770
vn -0.071725 0.757825 0.648503
vn 0.280332 0.583334 0.762322
vn 0.574469 0.265215 0.774369
vn 0.533217 0.415648 0.736829
vn 0.012097 0.808478 0.588402
vn 0.468585 0.617187 0.632066
vn 0.676684 0.519007 0.522237
vn 0.676684 0.519006 0.522237
vt 0.499678 0.500322
vt 0.768565 0.231435
vt 0.835635 0.469322
vt 0.652449 0.652508
vt 0.653889 0.196903
vt 0.433973 0.434556
vt 0.978698 0.977513
vt 0.385170 0.115985
vt 0.464925 0.140001
vt 0.403787 0.201139
vt 0.469808 0.835150
vt 0.231435 0.768565
vt 0.167719 0.556973
vt 0.140001 0.464925
vt 0.231180 0.373746
vt 0.346252 0.395067
vt 0.119997 0.398493
vt 0.000000 0.000000
vt 0.302231 0.302695
vt 0.201256 0.668345
vt 0.393456 0.340909
vt 0.566697 0.170647
vt 0.368741 0.369265
vt 0.374945 0.362147
vt 0.315590 0.289336
vt 0.069460 0.020916
f 391/79/82 392/80/83 393/81/84
f 393/81/84 394/82/85 391/79/82
f 395/83/86 392/80/83 391/79/82
f 391/79/82 396/84/87 395/83/86
f 393/81/84 397/85/88 394/82/85
f 398/86/89 399/87/90 400/88/91
f 397/85/88 401/89/92 394/82/85
f 401/89/92 402/90/93 391/79/82
f 391/79/82 394/82/85 401/89/92
f 403/91/94 404/92/95 405/93/96
f 405/93/96 406/94/97 403/91/94
f 405/93/96 407/95/98 408/96/99
f 408/96/99 409/97/100 405/93/96
f 391/79/82 402/90/93 410/98/101
f 410/98/101 396/84/87 391/79/82
f 396/84/87 411/99/102 412/100/103
f 412/100/103 395/83/86 396/84/87
f 396/84/87 413/101/104 414/102/105
f 415/103/106 409/97/100 408/96/99
f 408/96/99 416/104/107 415/103/106
f 413/101/104 396/84/87 406/94/97
f 396/84/87 414/102/105 411/99/102
f 400/88/91 415/103/106 416/104/107
f 416/104/108 398/86/89 400/88/91
f 405/93/96 404/92/95 407/95/98
f 409/97/100 413/101/104 406/94/97
f 406/94/97 405/93/96 409/97/100
f 415/103/106 414/102/105 413/101/104
f 413/101/104 409/97/100 415/103/106
f 415/103/106 400/88/91 411/99/102
f 411/99/102 414/102/105 415/103/106
f 400/88/91 399/87/90 412/100/103
f 412/100/103 411/99/102 400/88/91
f 396/84/87 410/98/101 403/91/94
f 403/91/94 406/94/97 396/84/87
