#
#
#

mtllib Bush6.mtl


#
# Сетка Сетка
#
g Сетка Сетка


#
# Сетка Сетка_Сетка _MAT_4
#
usemtl Сетка Сетка_Сетка _MAT_4

v 0.801806 -0.567690 0.122073
v 0.900424 -0.472515 0.141740
v 0.749983 -0.377179 0.243093
v 0.655075 -0.472816 0.223972
v 0.702484 -0.664799 0.091706
v 0.561615 -0.571376 0.194697
v 0.834369 -0.708699 0.003337
v 0.947443 -0.659991 -0.005343
v 1.048553 -0.565755 0.014723
v 0.115529 -0.049624 0.065393
v 0.190073 0.044334 0.080062
v 0.068348 0.005177 -0.041492
v 0.142401 0.099257 -0.027307
v 0.030107 -0.083777 -0.029565
v 0.048563 -0.149663 0.045023
v 0.175094 -0.111446 0.161546
v 0.106993 -0.210980 0.139914
v 0.250802 -0.017537 0.176845
v 0.259424 -0.187311 0.236232
v 0.337643 -0.093307 0.252455
v 0.188679 -0.286228 0.212752
v 0.369463 -0.275125 0.277859
v 0.293564 -0.373657 0.252281
v 0.451911 -0.180752 0.295132
v 0.506153 -0.372793 0.274837
v 0.594918 -0.277650 0.293117
v 0.421592 -0.471518 0.247243
v 0.692091 -0.189670 0.292771
v 0.793467 -0.105270 0.283112
v 0.649553 -0.012805 0.288151
v 0.547457 -0.094699 0.295794
v 0.847790 -0.287390 0.241907
v 0.947045 -0.200525 0.230567
v 0.430811 -0.009129 0.254166
v 0.531454 0.070137 0.248622
v 0.440256 0.142154 0.175784
v 0.341725 0.065121 0.179480
v 0.279772 0.126132 0.083328
v 0.377048 0.201849 0.080892
v 0.316025 0.223283 0.001821
v 0.231385 0.180523 -0.023557
v 0.997633 -0.381207 0.140008
v 1.094136 -0.291834 0.127576
v 1.144548 -0.473074 0.012592
v 1.178663 -0.381812 0.034722
v -0.655077 -0.842705 0.287955
v -0.513147 -0.914384 0.315770
v -0.444556 -0.712489 0.432450
v -0.585849 -0.642457 0.405601
v -0.724665 -0.577826 0.365551
v -0.795169 -0.774781 0.245973
v -0.809384 -0.941063 0.141413
v -0.719372 -1.043984 0.135584
v -0.576426 -1.117321 0.164176
v -0.158756 0.103467 0.110775
v -0.012617 0.039493 0.130931
v -0.082301 0.177947 -0.042539
v 0.064369 0.114318 -0.023073
v -0.213327 0.198366 -0.023518
v -0.307265 0.155982 0.084112
v -0.239536 0.013095 0.251158
v -0.386324 0.066748 0.222679
v -0.094257 -0.051448 0.272222
v -0.328967 -0.109062 0.365678
v -0.185207 -0.174621 0.388086
v -0.472717 -0.053380 0.334510
v -0.420291 -0.261889 0.438502
v -0.561019 -0.203544 0.404223
v -0.278042 -0.328779 0.462466
v -0.506752 -0.444269 0.453797
v -0.365340 -0.512678 0.479301
v -0.645809 -0.382887 0.416436
v -0.219215 -0.595139 0.481092
v -0.070733 -0.684625 0.471026
v 0.014056 -0.505282 0.458814
v -0.132753 -0.412758 0.465798
v -0.298311 -0.793326 0.432896
v -0.149590 -0.879565 0.420142
v -0.041429 -0.259931 0.392974
v 0.102359 -0.355118 0.389101
v 0.048002 -0.137774 0.278454
v 0.188751 -0.234990 0.277269
v 0.128782 -0.047402 0.138071
v 0.267811 -0.145757 0.138702
v 0.289864 -0.065655 0.024248
v 0.205237 0.027077 -0.015244
v -0.367540 -0.993574 0.315250
v -0.220094 -1.076519 0.300563
v -0.431835 -1.194853 0.162879
v -0.306193 -1.205084 0.189180
v -0.414351 0.905540 0.244467
v -0.499305 0.813028 0.260650
v -0.283478 0.783242 0.331700
v -0.367135 0.689421 0.347091
v -0.204053 0.880593 0.306187
v -0.332331 1.000272 0.217370
v -0.450673 1.066787 0.137869
v -0.546628 1.027634 0.130297
v -0.632954 0.936493 0.147128
v 0.178629 0.319213 0.087849
v 0.098509 0.221639 0.097926
v 0.219568 0.272336 -0.032588
v 0.139608 0.174575 -0.023052
v 0.263437 0.362885 -0.013102
v 0.250980 0.424069 0.072963
v 0.127119 0.375812 0.198575
v 0.199997 0.480072 0.182262
v 0.046736 0.278535 0.209367
v 0.054468 0.451856 0.289882
v -0.026385 0.355099 0.301732
v 0.128287 0.555077 0.271449
v -0.039613 0.546909 0.349474
v 0.035605 0.648623 0.328579
v -0.121166 0.450905 0.362555
v -0.155413 0.660535 0.365057
v -0.237919 0.565529 0.379367
v -0.078291 0.760253 0.341707
v -0.331191 0.479949 0.375595
v -0.429846 0.399080 0.362781
v -0.315949 0.287450 0.349653
v -0.215390 0.366323 0.360011
v -0.459255 0.602656 0.342237
v -0.555608 0.519420 0.327261
v -0.121309 0.271269 0.300419
v -0.223268 0.193904 0.292523
v -0.151558 0.118899 0.203336
v -0.048658 0.195226 0.209113
v 0.002852 0.138627 0.098386
v -0.100574 0.062896 0.094037
v -0.044173 0.046858 0.005338
v 0.043791 0.091750 -0.022051
v -0.590128 0.724954 0.255004
v -0.683885 0.639099 0.238444
v -0.722406 0.847047 0.140834
v -0.758283 0.750761 0.156309
v 0.983782 0.517826 0.263263
v 0.883010 0.635225 0.280551
v 0.847672 0.431352 0.356452
v 0.745723 0.544864 0.372894
v 0.953094 0.325849 0.329196
v 1.086467 0.408753 0.234315
v 1.161031 0.502913 0.149385
v 1.119389 0.609002 0.141297
v 1.019976 0.729117 0.159277
v 0.335566 0.094385 0.095950
v 0.231740 0.180475 0.106715
v 0.285279 0.050891 -0.032711
v 0.181253 0.136811 -0.022524
v 0.381784 0.003563 -0.011895
v 0.447209 0.016557 0.080047
v 0.396667 0.145010 0.214237
v 0.507839 0.064769 0.196810
v 0.293020 0.232929 0.225765
v 0.479396 0.209897 0.311778
v 0.375884 0.302965 0.324438
v 0.589959 0.123098 0.292086
v 0.583958 0.282002 0.375439
v 0.693479 0.187398 0.353117
v 0.480690 0.382028 0.389414
v 0.710557 0.354282 0.392087
v 0.607792 0.461563 0.407374
v 0.818311 0.253522 0.367142
v 0.515007 0.581883 0.403344
v 0.427211 0.708724 0.389655
v 0.305417 0.609179 0.375630
v 0.389927 0.492894 0.386696
v 0.650718 0.674395 0.367708
v 0.559186 0.811934 0.351709
v 0.286475 0.408571 0.323035
v 0.204118 0.520446 0.314599
v 0.123358 0.447162 0.219323
v 0.204426 0.336206 0.225494
v 0.143552 0.283089 0.107206
v 0.063181 0.393964 0.102561
v 0.045759 0.333794 0.007804
v 0.093265 0.239594 -0.021455
v 0.786063 0.769279 0.274519
v 0.691029 0.911661 0.256828
v 0.921226 0.865352 0.152553
v 0.814467 0.949077 0.169084
vn 0.298225 -0.515220 0.803499
vn 0.348716 -0.446824 0.823860
vn 0.235982 -0.333382 0.912781
vn 0.188565 -0.406362 0.894043
vn 0.278789 -0.525488 0.803828
vn 0.151952 -0.403474 0.902286
vn 0.312701 -0.568520 0.760923
vn 0.330371 -0.540712 0.773618
vn 0.394515 -0.461089 0.794830
vn -0.707113 0.399212 0.583628
vn -0.621052 0.500256 0.603356
vn -0.714281 0.442219 0.542444
vn -0.636282 0.534744 0.556052
vn -0.749374 0.393359 0.532642
vn -0.712112 0.353676 0.606474
vn -0.621538 0.325378 0.712614
vn -0.598669 0.243991 0.762931
vn -0.511205 0.406172 0.757425
vn -0.456915 0.172455 0.872633
vn -0.344495 0.240613 0.907430
vn -0.412454 0.078824 0.907562
vn -0.222806 -0.040857 0.974006
vn -0.221624 -0.081533 0.971718
vn -0.138422 0.038908 0.989609
vn 0.010437 -0.240189 0.970670
vn 0.061943 -0.159368 0.985274
vn -0.034923 -0.237694 0.970712
vn 0.119961 -0.080793 0.989486
vn 0.173889 -0.086739 0.980938
vn -0.010418 0.113731 0.993457
vn -0.070183 0.124254 0.989765
vn 0.292046 -0.260953 0.920116
vn 0.344361 -0.264903 0.900690
vn -0.261173 0.331613 0.906544
vn -0.201274 0.326599 0.923483
vn -0.360448 0.503886 0.784969
vn -0.416517 0.500270 0.759107
vn -0.508267 0.600448 0.617355
vn -0.463472 0.618553 0.634496
vn -0.499832 0.658522 0.562598
vn -0.547287 0.620045 0.562157
vn -0.416517 0.500269 0.759107
vn 0.417664 -0.374605 0.827785
vn 0.433858 -0.353170 0.828878
vn 0.447031 -0.396932 0.801628
vn 0.464338 -0.378803 0.800561
vn -0.405751 -0.404433 0.819634
vn -0.317052 -0.449491 0.835126
vn -0.239177 -0.284294 0.928424
vn -0.314995 -0.205982 0.926472
vn -0.387911 -0.276694 0.879184
vn -0.436231 -0.402201 0.804945
vn -0.451493 -0.444431 0.773715
vn -0.415033 -0.460009 0.784945
vn -0.415033 -0.460010 0.784945
vn -0.317106 -0.503492 0.803704
vn 0.223718 0.793763 0.565588
vn 0.328868 0.737204 0.590234
vn 0.253613 0.814261 0.522169
vn 0.370069 0.749469 0.548950
vn 0.204403 0.836652 0.508166
vn 0.181137 0.801214 0.570302
vn 0.165518 0.701519 0.693163
vn 0.115195 0.694883 0.709837
vn 0.268589 0.645561 0.714920
vn 0.066341 0.532945 0.843545
vn 0.166721 0.507720 0.845237
vn 0.165518 0.701519 0.693163
vn 0.008401 0.512720 0.858515
vn -0.059681 0.321097 0.945164
vn -0.134176 0.255289 0.957509
vn 0.034993 0.269079 0.962482
vn -0.188135 0.058095 0.980423
vn -0.111442 -0.026458 0.993419
vn -0.275381 -0.022579 0.961070
vn -0.275380 -0.022579 0.961070
vn -0.314995 -0.205981 0.926472
vn -0.016538 -0.074738 0.997066
vn -0.009814 -0.140354 0.990053
vn 0.131883 0.124678 0.983393
vn 0.128024 0.191529 0.973101
vn -0.147877 -0.327424 0.933234
vn -0.138530 -0.385452 0.912270
vn 0.252041 0.427970 0.867938
vn 0.290497 0.399971 0.869272
vn 0.364226 0.582551 0.726618
vn 0.408567 0.581986 0.703111
vn 0.166721 0.507719 0.845237
vn 0.433553 0.672714 0.599573
vn 0.456743 0.649526 0.607867
vn 0.475331 0.674866 0.564461
vn 0.445506 0.697650 0.561078
vn -0.226963 -0.497958 0.836974
vn -0.201278 -0.506280 0.838551
vn -0.243892 -0.534618 0.809135
vn -0.220566 -0.545797 0.808366
vn -0.262615 0.439657 0.858915
vn -0.308944 0.352266 0.883438
vn -0.133049 0.314195 0.939989
vn -0.163074 0.214918 0.962921
vn -0.146615 0.370526 0.917177
vn -0.246059 0.457462 0.854508
vn -0.274944 0.486356 0.829375
vn -0.287693 0.469096 0.834974
vn -0.357238 0.397053 0.845417
vn 0.719091 -0.479774 0.502717
vn 0.637095 -0.591278 0.494470
vn 0.730682 -0.514645 0.448603
vn 0.650562 -0.606573 0.456989
vn 0.766309 -0.466179 0.442095
vn 0.737973 -0.435524 0.515475
vn 0.642022 -0.399715 0.654244
vn 0.647690 -0.344177 0.679735
vn 0.572859 -0.520666 0.633040
vn 0.494625 -0.255947 0.830564
vn 0.439883 -0.380708 0.813366
vn 0.487959 -0.192283 0.851424
vn 0.289332 -0.064413 0.955059
vn 0.271626 0.004118 0.962394
vn 0.250252 -0.188173 0.949718
vn 0.067769 0.135767 0.988420
vn 0.034021 0.025185 0.999104
vn 0.051958 0.198290 0.978765
vn 0.067769 0.135768 0.988420
vn -0.075986 -0.011920 0.997038
vn -0.139398 0.001703 0.990235
vn 0.059719 -0.213590 0.975096
vn 0.128187 -0.229969 0.964719
vn -0.262619 0.181082 0.947756
vn -0.320546 0.191835 0.927604
vn 0.317953 -0.437450 0.841156
vn 0.255445 -0.431156 0.865363
vn 0.401602 -0.596994 0.694489
vn 0.455383 -0.591460 0.665433
vn 0.528663 -0.675413 0.514134
vn 0.485788 -0.694606 0.530597
vn 0.512923 -0.726496 0.457289
vn 0.560640 -0.689337 0.458800
vn -0.396251 0.302364 0.866926
vn -0.413801 0.285128 0.864564
vn -0.427740 0.325217 0.843370
vn -0.444923 0.311723 0.839567
vn 0.492806 0.267774 0.827913
vn 0.440642 0.299258 0.846333
vn 0.342714 0.137226 0.929363
vn 0.297260 0.193574 0.934968
vn 0.399138 0.154104 0.903848
vn 0.504032 0.255552 0.825012
vn 0.535282 0.281935 0.796232
vn 0.525568 0.288792 0.800236
vn 0.484791 0.340476 0.805639
vn -0.487180 -0.718851 0.495892
vn -0.595543 -0.635324 0.491622
vn -0.518144 -0.728203 0.448606
vn -0.609687 -0.647646 0.456987
vn -0.469852 -0.764061 0.442098
vn -0.447703 -0.739880 0.502136
vn -0.424037 -0.648708 0.631957
vn -0.383703 -0.660414 0.645465
vn -0.532594 -0.574500 0.621525
vn -0.309508 -0.514689 0.799563
vn -0.400749 -0.421860 0.813286
vn -0.266776 -0.518147 0.812622
vn -0.127866 -0.319043 0.939075
vn -0.070292 -0.309312 0.948359
vn -0.186931 -0.226392 0.955931
vn 0.110361 -0.083152 0.990407
vn 0.057832 -0.005099 0.998313
vn 0.174738 -0.066108 0.982393
vn -0.031165 0.043166 0.998582
vn 0.041087 0.136876 0.989736
vn -0.215795 -0.058302 0.974697
vn -0.282826 -0.168067 0.944332
vn 0.218245 0.226331 0.949286
vn 0.284524 0.297893 0.911211
vn -0.474299 -0.329558 0.816353
vn -0.444033 -0.254884 0.858993
vn -0.604242 -0.399195 0.689590
vn -0.600432 -0.453973 0.658324
vn -0.679504 -0.526011 0.511455
vn -0.698315 -0.482783 0.528467
vn -0.728948 -0.509431 0.457290
vn -0.692023 -0.557321 0.458800
vn 0.411765 0.358017 0.838018
vn 0.404743 0.373838 0.834523
vn 0.450177 0.387777 0.804344
vn 0.443764 0.400113 0.801862
vt 0.750000 0.875000
vt 0.500000 0.875000
vt 0.500000 0.750000
vt 0.750000 0.750000
vt 1.000000 0.875000
vt 1.000000 0.750000
vt 0.937500 0.968750
vt 0.750000 1.000000
vt 0.500000 1.000000
vt 0.750000 0.125000
vt 0.500000 0.125000
vt 0.750000 0.000000
vt 0.500000 0.000000
vt 0.937500 0.031250
vt 1.000000 0.125000
vt 0.750000 0.250000
vt 1.000000 0.250000
vt 0.500000 0.250000
vt 0.750000 0.375000
vt 0.500000 0.375000
vt 1.000000 0.375000
vt 0.750000 0.500000
vt 1.000000 0.500000
vt 0.500000 0.500000
vt 0.750000 0.625000
vt 0.500000 0.625000
vt 1.000000 0.625000
vt 0.250000 0.625000
vt 0.000000 0.625000
vt 0.000000 0.500000
vt 0.250000 0.500000
vt 0.250000 0.750000
vt 0.000000 0.750000
vt 0.250000 0.375000
vt 0.000000 0.375000
vt 0.000000 0.250000
vt 0.250000 0.250000
vt 0.250000 0.125000
vt 0.000000 0.125000
vt 0.062500 0.031250
vt 0.250000 0.000000
vt 0.250000 0.875000
vt 0.000000 0.875000
vt 0.250000 1.000000
vt 0.062500 0.968750
f 1/1/1 2/2/2 3/3/3
f 1/1/1 3/3/3 4/4/4
f 1/1/1 4/4/4 5/5/5
f 4/4/4 6/6/6 5/5/5
f 1/1/1 5/5/5 7/7/7
f 1/1/1 7/7/7 8/8/8
f 1/1/1 8/8/8 2/2/2
f 8/8/8 9/9/9 2/2/2
f 10/10/10 11/11/11 12/12/12
f 11/11/11 13/13/13 12/12/12
f 10/10/10 12/12/12 14/14/14
f 10/10/10 14/14/14 15/15/15
f 10/10/10 15/15/15 16/16/16
f 15/15/15 17/17/17 16/16/16
f 10/10/10 16/16/16 11/11/11
f 16/16/16 18/18/18 11/11/11
f 19/19/19 20/20/20 18/18/18
f 19/19/19 18/18/18 16/16/16
f 19/19/19 16/16/16 17/17/17
f 19/19/19 17/17/17 21/21/21
f 19/19/19 21/21/21 22/22/22
f 21/21/21 23/23/23 22/22/22
f 19/19/19 22/22/22 20/20/20
f 22/22/22 24/24/24 20/20/20
f 25/25/25 26/26/26 24/24/24
f 25/25/25 24/24/24 22/22/22
f 25/25/25 22/22/22 27/27/27
f 22/22/22 23/23/23 27/27/27
f 25/25/25 27/27/27 6/6/6
f 25/25/25 6/6/6 4/4/4
f 25/25/25 4/4/4 26/26/26
f 4/4/4 3/3/3 26/26/26
f 28/28/28 29/29/29 30/30/30
f 28/28/28 30/30/30 31/31/31
f 28/28/28 31/31/31 26/26/26
f 31/31/31 24/24/24 26/26/26
f 28/28/28 26/26/26 3/3/3
f 28/28/28 3/3/3 32/32/32
f 28/28/28 32/32/32 29/29/29
f 32/32/32 33/33/33 29/29/29
f 34/34/34 35/35/35 36/36/36
f 34/34/34 36/36/36 37/37/37
f 34/34/34 37/37/37 20/20/20
f 37/37/37 18/18/18 20/20/20
f 34/34/34 20/20/20 24/24/24
f 34/34/34 24/24/24 31/31/31
f 34/34/34 31/31/31 35/35/35
f 31/31/31 30/30/30 35/35/35
f 38/38/38 39/39/39 40/40/40
f 38/38/38 40/40/40 41/41/41
f 38/38/38 41/41/41 11/11/11
f 41/41/41 13/13/13 11/11/11
f 38/38/38 11/11/11 18/18/18
f 38/38/38 18/18/18 37/37/37
f 38/38/38 37/37/42 39/39/39
f 37/37/37 36/36/36 39/39/39
f 42/42/43 43/43/44 33/33/33
f 42/42/43 33/33/33 32/32/32
f 42/42/43 32/32/32 2/2/2
f 32/32/32 3/3/3 2/2/2
f 42/42/43 2/2/2 9/9/9
f 42/42/43 9/9/9 44/44/45
f 42/42/43 44/44/45 45/45/46
f 42/42/43 45/45/46 43/43/44
f 46/1/47 47/2/48 48/3/49
f 46/1/47 48/3/49 49/4/50
f 46/1/47 49/4/50 50/6/51
f 46/1/47 50/6/51 51/5/52
f 46/1/47 51/5/52 52/7/53
f 46/1/47 52/7/53 53/8/54
f 46/1/47 53/8/54 47/2/48
f 53/8/55 54/9/56 47/2/48
f 55/10/57 56/11/58 57/12/59
f 56/11/58 58/13/60 57/12/59
f 55/10/57 57/12/59 59/14/61
f 55/10/57 59/14/61 60/15/62
f 55/10/57 60/15/62 61/16/63
f 60/15/62 62/17/64 61/16/63
f 55/10/57 61/16/63 63/18/65
f 55/10/57 63/18/65 56/11/58
f 64/19/66 65/20/67 61/16/63
f 65/20/67 63/18/65 61/16/63
f 64/19/66 61/16/68 62/17/64
f 64/19/66 62/17/64 66/21/69
f 64/19/66 66/21/69 67/22/70
f 66/21/69 68/23/71 67/22/70
f 64/19/66 67/22/70 69/24/72
f 64/19/66 69/24/72 65/20/67
f 70/25/73 71/26/74 69/24/72
f 70/25/73 69/24/72 67/22/70
f 70/25/73 67/22/70 68/23/71
f 70/25/73 68/23/71 72/27/75
f 70/25/73 72/27/75 49/4/50
f 72/27/76 50/6/51 49/4/77
f 70/25/73 49/4/77 71/26/74
f 49/4/77 48/3/49 71/26/74
f 73/28/78 74/29/79 75/30/80
f 73/28/78 75/30/80 76/31/81
f 73/28/78 76/31/81 71/26/74
f 76/31/81 69/24/72 71/26/74
f 73/28/78 71/26/74 48/3/49
f 73/28/78 48/3/49 77/32/82
f 73/28/78 77/32/82 74/29/79
f 77/32/82 78/33/83 74/29/79
f 79/34/84 80/35/85 81/37/86
f 80/35/85 82/36/87 81/37/86
f 79/34/84 81/37/86 63/18/65
f 79/34/84 63/18/65 65/20/88
f 79/34/84 65/20/88 69/24/72
f 79/34/84 69/24/72 76/31/81
f 79/34/84 76/31/81 80/35/85
f 76/31/81 75/30/80 80/35/85
f 83/38/89 84/39/90 85/40/91
f 83/38/89 85/40/91 86/41/92
f 83/38/89 86/41/92 58/13/60
f 83/38/89 58/13/60 56/11/58
f 83/38/89 56/11/58 81/37/86
f 56/11/58 63/18/65 81/37/86
f 83/38/89 81/37/86 82/36/87
f 83/38/89 82/36/87 84/39/90
f 87/42/93 88/43/94 78/33/83
f 87/42/93 78/33/83 77/32/82
f 87/42/93 77/32/82 47/2/48
f 77/32/82 48/3/49 47/2/48
f 87/42/93 47/2/48 54/9/56
f 87/42/93 54/9/56 89/44/95
f 87/42/93 89/44/95 90/45/96
f 87/42/93 90/45/96 88/43/94
f 91/1/97 92/2/98 93/4/99
f 92/2/98 94/3/100 93/4/99
f 91/1/97 93/4/99 95/6/101
f 91/1/97 95/6/101 96/5/102
f 91/1/97 96/5/102 97/7/103
f 91/1/97 97/7/103 98/8/104
f 91/1/97 98/8/104 99/9/105
f 91/1/97 99/9/105 92/2/98
f 100/10/106 101/11/107 102/12/108
f 101/11/107 103/13/109 102/12/108
f 100/10/106 102/12/108 104/14/110
f 100/10/106 104/14/110 105/15/111
f 100/10/106 105/15/111 106/16/112
f 105/15/111 107/17/113 106/16/112
f 100/10/106 106/16/112 108/18/114
f 100/10/106 108/18/114 101/11/107
f 109/19/115 110/20/116 106/16/112
f 110/20/116 108/18/114 106/16/112
f 109/19/115 106/16/112 107/17/113
f 109/19/115 107/17/113 111/21/117
f 109/19/115 111/21/117 112/22/118
f 111/21/117 113/23/119 112/22/118
f 109/19/115 112/22/118 114/24/120
f 109/19/115 114/24/120 110/20/116
f 115/25/121 116/26/122 112/22/118
f 116/26/122 114/24/120 112/22/118
f 115/25/121 112/22/118 113/23/119
f 115/25/121 113/23/119 117/27/123
f 115/25/121 117/27/123 93/4/99
f 117/27/123 95/6/101 93/4/99
f 115/25/121 93/4/99 94/3/100
f 115/25/124 94/3/100 116/26/122
f 118/28/125 119/29/126 120/30/127
f 118/28/125 120/30/127 121/31/128
f 118/28/125 121/31/128 116/26/122
f 121/31/128 114/24/120 116/26/122
f 118/28/125 116/26/122 94/3/100
f 118/28/125 94/3/100 122/32/129
f 118/28/125 122/32/129 119/29/126
f 122/32/129 123/33/130 119/29/126
f 124/34/131 125/35/132 126/36/133
f 124/34/131 126/36/133 127/37/134
f 124/34/131 127/37/134 110/20/116
f 127/37/134 108/18/114 110/20/116
f 124/34/131 110/20/116 114/24/120
f 124/34/131 114/24/120 121/31/128
f 124/34/131 121/31/128 125/35/132
f 121/31/128 120/30/127 125/35/132
f 128/38/135 129/39/136 130/40/137
f 128/38/135 130/40/137 131/41/138
f 128/38/135 131/41/138 101/11/107
f 131/41/138 103/13/109 101/11/107
f 128/38/135 101/11/107 108/18/114
f 128/38/135 108/18/114 127/37/134
f 128/38/135 127/37/134 129/39/136
f 127/37/134 126/36/133 129/39/136
f 132/42/139 133/43/140 123/33/130
f 132/42/139 123/33/130 122/32/129
f 132/42/139 122/32/129 92/2/98
f 122/32/129 94/3/100 92/2/98
f 132/42/139 92/2/98 99/9/105
f 132/42/139 99/9/105 134/44/141
f 132/42/139 134/44/141 135/45/142
f 132/42/139 135/45/142 133/43/140
f 136/1/143 137/2/144 138/4/145
f 137/2/144 139/3/146 138/4/145
f 136/1/143 138/4/145 140/6/147
f 136/1/143 140/6/147 141/5/148
f 136/1/143 141/5/148 142/7/149
f 136/1/143 142/7/149 143/8/150
f 136/1/143 143/8/150 144/9/151
f 136/1/143 144/9/151 137/2/144
f 145/10/152 146/11/153 147/12/154
f 146/11/153 148/13/155 147/12/154
f 145/10/152 147/12/154 149/14/156
f 145/10/152 149/14/156 150/15/157
f 145/10/152 150/15/157 151/16/158
f 150/15/157 152/17/159 151/16/158
f 145/10/152 151/16/158 153/18/160
f 145/10/152 153/18/160 146/11/153
f 154/19/161 155/20/162 151/16/158
f 155/20/162 153/18/160 151/16/158
f 154/19/161 151/16/158 152/17/159
f 154/19/161 152/17/159 156/21/163
f 154/19/161 156/21/163 157/22/164
f 156/21/163 158/23/165 157/22/164
f 154/19/161 157/22/164 159/24/166
f 154/19/161 159/24/166 155/20/162
f 160/25/167 161/26/168 157/22/164
f 161/26/168 159/24/166 157/22/164
f 160/25/167 157/22/164 158/23/165
f 160/25/167 158/23/165 162/27/169
f 160/25/167 162/27/169 138/4/145
f 162/27/169 140/6/147 138/4/145
f 160/25/167 138/4/145 139/3/146
f 160/25/167 139/3/146 161/26/168
f 163/28/170 164/29/171 165/30/172
f 163/28/170 165/30/172 166/31/173
f 163/28/170 166/31/173 159/24/166
f 163/28/170 159/24/166 161/26/168
f 163/28/170 161/26/168 167/32/174
f 161/26/168 139/3/146 167/32/174
f 163/28/170 167/32/174 164/29/171
f 167/32/174 168/33/175 164/29/171
f 169/34/176 170/35/177 171/36/178
f 169/34/176 171/36/178 172/37/179
f 169/34/176 172/37/179 155/20/162
f 172/37/179 153/18/160 155/20/162
f 169/34/176 155/20/162 166/31/173
f 155/20/162 159/24/166 166/31/173
f 169/34/176 166/31/173 170/35/177
f 166/31/173 165/30/172 170/35/177
f 173/38/180 174/39/181 175/40/182
f 173/38/180 175/40/182 176/41/183
f 173/38/180 176/41/183 146/11/153
f 176/41/183 148/13/155 146/11/153
f 173/38/180 146/11/153 153/18/160
f 173/38/180 153/18/160 172/37/179
f 173/38/180 172/37/179 174/39/181
f 172/37/179 171/36/178 174/39/181
f 177/42/184 178/43/185 168/33/175
f 177/42/184 168/33/175 167/32/174
f 177/42/184 167/32/174 139/3/146
f 177/42/184 139/3/146 137/2/144
f 177/42/184 137/2/144 144/9/151
f 177/42/184 144/9/151 179/44/186
f 177/42/184 179/44/186 180/45/187
f 177/42/184 180/45/187 178/43/185
