#
#
#

mtllib SM_Grass_07.mtl


#
# Plane.994
#
g Plane.994


#
# Plane.994_Grass
#
usemtl Plane.994_Grass

v 0.510047 -0.134353 0.027602
v 0.630327 -0.213968 0.073422
v 0.599926 -0.008533 -0.004218
v 0.720814 -0.085839 0.041891
v 0.564397 -0.175078 0.059844
v 0.662946 -0.039394 0.026230
v 0.548249 -0.065834 0.018353
v 0.679094 -0.148637 0.067722
v 0.611994 -0.103268 0.054137
v 0.348666 -0.684505 0.015987
v 0.435654 -0.828771 -0.011802
v 0.498945 -0.593876 0.046334
v 0.587541 -0.736614 0.020107
v 0.385025 -0.760987 0.011298
v 0.548717 -0.664342 0.044379
v 0.418715 -0.635954 0.042018
v 0.515027 -0.789375 0.013659
v 0.465984 -0.715637 0.040908
v 0.349531 0.477765 0.016976
v 0.131982 0.707614 -0.008494
v 0.114724 0.245974 0.045608
v -0.105111 0.472066 0.022611
v 0.251826 0.601447 0.022553
v -0.004802 0.352695 0.054226
v 0.242638 0.355770 0.050934
v 0.004385 0.598372 0.025844
v 0.123806 0.479926 0.063203
v 0.724422 0.390280 0.061683
v 0.627880 0.541940 0.054339
v 0.571695 0.285412 0.031641
v 0.473304 0.435023 0.025044
v 0.681113 0.468024 0.069985
v 0.514561 0.355888 0.037865
v 0.651253 0.331543 0.057680
v 0.544420 0.492369 0.050170
v 0.595672 0.411170 0.067892
v -0.521891 -0.102360 0.018662
v -0.377848 -0.336789 0.041881
v -0.280490 0.053280 -0.002761
v -0.133744 -0.177971 0.021816
v -0.460058 -0.221347 0.047516
v -0.197005 -0.054968 0.025322
v -0.408260 -0.013838 0.023410
v -0.248802 -0.262477 0.049428
v -0.328252 -0.135720 0.058003
v -0.388281 0.598268 0.035365
v -0.551866 0.579691 0.014259
v -0.368367 0.429324 0.067579
v -0.531205 0.408737 0.048008
v -0.470708 0.597226 0.033626
v -0.450846 0.414048 0.068785
v -0.373041 0.517182 0.061789
v -0.548513 0.494092 0.040622
v -0.462608 0.507882 0.063938
v 0.174806 -0.120788 0.084117
v 0.406812 -0.037215 0.088403
v 0.085559 0.109544 0.012236
v 0.315302 0.196274 0.017040
v 0.290285 -0.084640 0.103303
v 0.195834 0.165976 0.026134
v 0.119388 -0.006632 0.062472
v 0.366731 0.087968 0.066965
v 0.240844 0.045574 0.083361
v 0.236255 -0.551993 0.098129
v -0.022959 -0.513147 0.034251
v 0.208468 -0.831004 0.074260
v -0.050536 -0.796138 0.011957
v 0.106147 -0.523383 0.083548
v 0.073234 -0.825379 0.057786
v 0.229369 -0.692490 0.104500
v -0.049988 -0.656272 0.036834
v 0.084556 -0.675575 0.091226
v 0.295699 -0.085643 0.060010
v 0.061703 -0.309169 0.113255
v 0.526132 -0.329130 -0.008080
v 0.296644 -0.555116 0.046053
v 0.177278 -0.186726 0.107945
v 0.424858 -0.452857 0.035608
v 0.424285 -0.197336 0.042978
v 0.177851 -0.442248 0.100575
v 0.307600 -0.320497 0.096727
v -0.073582 -0.458694 0.000661
v -0.238561 -0.375131 0.034362
v -0.157607 -0.635842 -0.001838
v -0.322886 -0.555075 0.032867
v -0.149531 -0.412048 0.028508
v -0.242159 -0.603214 0.026669
v -0.106495 -0.550746 0.009009
v -0.285195 -0.464516 0.046168
v -0.193450 -0.508931 0.042124
v -0.243516 0.836611 0.002131
v -0.290097 0.677040 0.032423
v -0.073118 0.791633 -0.000116
v -0.117178 0.632259 0.031079
v -0.272186 0.761801 0.027162
v -0.087979 0.711537 0.025508
v -0.156747 0.822736 0.009635
v -0.203418 0.650602 0.043035
v -0.179329 0.739000 0.039401
v 0.510047 -0.134353 0.027602
v 0.630327 -0.213968 0.073422
v 0.599926 -0.008533 -0.004218
v 0.720814 -0.085839 0.041891
v 0.564397 -0.175078 0.059844
v 0.662946 -0.039394 0.026230
v 0.548249 -0.065834 0.018353
v 0.679094 -0.148637 0.067722
v 0.611994 -0.103268 0.054137
v 0.348666 -0.684505 0.015987
v 0.435654 -0.828771 -0.011802
v 0.498945 -0.593876 0.046334
v 0.587541 -0.736614 0.020107
v 0.385025 -0.760987 0.011298
v 0.548717 -0.664342 0.044379
v 0.418715 -0.635954 0.042018
v 0.515027 -0.789375 0.013659
v 0.465984 -0.715637 0.040908
v 0.349531 0.477765 0.016976
v 0.131982 0.707614 -0.008494
v 0.114724 0.245974 0.045608
v -0.105111 0.472066 0.022611
v 0.251826 0.601447 0.022553
v -0.004802 0.352695 0.054226
v 0.242638 0.355770 0.050934
v 0.004385 0.598372 0.025844
v 0.123806 0.479926 0.063203
v 0.724422 0.390280 0.061683
v 0.627880 0.541940 0.054339
v 0.571695 0.285412 0.031641
v 0.473304 0.435023 0.025044
v 0.681113 0.468024 0.069985
v 0.514561 0.355888 0.037865
v 0.651253 0.331543 0.057680
v 0.544420 0.492369 0.050170
v 0.595672 0.411170 0.067892
v -0.521891 -0.102360 0.018662
v -0.377848 -0.336789 0.041881
v -0.280490 0.053280 -0.002761
v -0.133744 -0.177971 0.021816
v -0.460058 -0.221347 0.047516
v -0.197005 -0.054968 0.025322
v -0.408260 -0.013838 0.023410
v -0.248802 -0.262477 0.049428
v -0.328252 -0.135720 0.058003
v -0.388281 0.598268 0.035365
v -0.551866 0.579691 0.014259
v -0.368367 0.429324 0.067579
v -0.531205 0.408737 0.048008
v -0.470708 0.597226 0.033626
v -0.450846 0.414048 0.068785
v -0.373041 0.517182 0.061789
v -0.548513 0.494092 0.040622
v -0.462608 0.507882 0.063938
v 0.174806 -0.120788 0.084117
v 0.406812 -0.037215 0.088403
v 0.085559 0.109544 0.012236
v 0.315302 0.196274 0.017040
v 0.290285 -0.084640 0.103303
v 0.195834 0.165976 0.026134
v 0.119388 -0.006632 0.062472
v 0.366731 0.087968 0.066965
v 0.240844 0.045574 0.083361
v 0.236255 -0.551993 0.098129
v -0.022959 -0.513147 0.034251
v 0.208468 -0.831004 0.074260
v -0.050536 -0.796138 0.011957
v 0.106147 -0.523383 0.083548
v 0.073234 -0.825379 0.057786
v 0.229369 -0.692490 0.104500
v -0.049988 -0.656272 0.036834
v 0.084556 -0.675575 0.091226
v 0.295699 -0.085643 0.060010
v 0.061703 -0.309169 0.113255
v 0.526132 -0.329130 -0.008080
v 0.296644 -0.555116 0.046053
v 0.177278 -0.186726 0.107945
v 0.424858 -0.452857 0.035608
v 0.424285 -0.197336 0.042978
v 0.177851 -0.442248 0.100575
v 0.307600 -0.320497 0.096727
v -0.073582 -0.458694 0.000661
v -0.238561 -0.375131 0.034362
v -0.157607 -0.635842 -0.001838
v -0.322886 -0.555075 0.032867
v -0.149531 -0.412048 0.028508
v -0.242159 -0.603214 0.026669
v -0.106495 -0.550746 0.009009
v -0.285195 -0.464516 0.046168
v -0.193450 -0.508931 0.042124
v -0.243516 0.836611 0.002131
v -0.290097 0.677040 0.032423
v -0.073118 0.791633 -0.000116
v -0.117178 0.632259 0.031079
v -0.272186 0.761801 0.027162
v -0.087979 0.711537 0.025508
v -0.156747 0.822736 0.009635
v -0.203418 0.650602 0.043035
v -0.179329 0.739000 0.039401
vn -0.140854 0.333259 0.932255
vn -0.060415 0.439711 0.896105
vn -0.173300 0.500435 0.848252
vn 0.046990 0.361030 0.931369
vn -0.103325 0.154067 0.982643
vn -0.023282 0.255004 0.966660
vn -0.255623 0.404234 0.878210
vn -0.323618 0.293470 0.899526
vn -0.217551 0.219774 0.950984
vn -0.065990 -0.221275 0.972976
vn 0.051393 -0.149705 0.987394
vn -0.026005 -0.037474 0.998959
vn 0.117725 -0.266428 0.956639
vn -0.103593 -0.397099 0.911910
vn 0.009927 -0.340797 0.940085
vn -0.140768 -0.097229 0.985257
vn -0.247327 -0.168146 0.954231
vn -0.181429 -0.289707 0.939762
vn 0.011794 0.114317 0.993374
vn -0.086633 0.017293 0.996090
vn 0.013888 -0.075523 0.997047
vn -0.177316 0.119170 0.976912
vn 0.009270 0.300035 0.953883
vn -0.088851 0.217027 0.972114
vn 0.112405 0.009401 0.993618
vn 0.200478 0.105345 0.974018
vn 0.109084 0.210085 0.971579
vn -0.152913 -0.055503 0.986680
vn -0.264156 -0.131405 0.955486
vn -0.181355 -0.240311 0.953604
vn -0.332642 -0.012565 0.942969
vn -0.118961 0.131307 0.984178
vn -0.230554 0.066358 0.970794
vn -0.071794 -0.176025 0.981764
vn 0.032330 -0.096438 0.994814
vn -0.039469 0.022544 0.998967
vn 0.012855 0.112215 0.993601
vn 0.128740 0.185055 0.974259
vn 0.049012 0.294460 0.954406
vn 0.196157 0.065023 0.978414
vn -0.023762 -0.074078 0.996969
vn 0.089755 -0.011122 0.995902
vn -0.064570 0.233019 0.970326
vn -0.170910 0.155359 0.972961
vn -0.102574 0.036137 0.994069
vn -0.140244 0.171950 0.975072
vn -0.123852 0.035696 0.991659
vn 0.010780 0.059191 0.998188
vn -0.258585 0.023746 0.965697
vn -0.286213 0.278506 0.916797
vn -0.281598 0.152427 0.947348
vn 0.004041 0.188134 0.982135
vn -0.016847 0.313955 0.949288
vn -0.155239 0.304749 0.939696
vn -0.114147 0.252818 0.960757
vn -0.160215 0.374238 0.913388
vn -0.284058 0.316681 0.905000
vn -0.028527 0.414414 0.909641
vn 0.059881 0.179842 0.981871
vn 0.022821 0.300941 0.953370
vn -0.248601 0.199082 0.947926
vn -0.195650 0.082105 0.977231
vn -0.064680 0.127032 0.989788
vn -0.241924 -0.056265 0.968663
vn -0.254059 -0.192387 0.947861
vn -0.119720 -0.201562 0.972132
vn -0.383567 -0.167357 0.908223
vn -0.355407 0.091059 0.930266
vn -0.379045 -0.036458 0.924660
vn -0.099658 -0.074585 0.992222
vn -0.091559 0.056857 0.994175
vn -0.226422 0.081095 0.970648
vn 0.253174 -0.027323 0.967035
vn 0.343199 -0.125771 0.930804
vn 0.431481 -0.025355 0.901766
vn 0.240016 -0.215639 0.946516
vn 0.065739 -0.028310 0.997435
vn 0.148319 -0.127064 0.980743
vn 0.352478 0.073211 0.932952
vn 0.257202 0.161978 0.952686
vn 0.157399 0.070740 0.984998
vn 0.161949 -0.087928 0.982874
vn 0.100676 -0.211382 0.972205
vn 0.223265 -0.262165 0.938841
vn -0.018957 -0.145284 0.989208
vn 0.094791 0.089479 0.991468
vn 0.032380 -0.024081 0.999186
vn 0.288228 -0.149646 0.945796
vn 0.337016 -0.027400 0.941100
vn 0.218974 0.037763 0.975000
vn 0.056669 0.175350 0.982874
vn 0.189281 0.137807 0.972205
vn 0.216672 0.267640 0.938841
vn 0.146294 0.008064 0.989208
vn -0.105374 0.076734 0.991468
vn 0.017721 0.036254 0.999186
vn 0.094130 0.310820 0.945796
vn -0.035000 0.336312 0.941100
vn -0.077360 0.208305 0.975000
vn 0.140854 -0.333259 -0.932255
vn 0.173300 -0.500435 -0.848252
vn 0.060415 -0.439711 -0.896105
vn -0.046990 -0.361030 -0.931369
vn 0.103325 -0.154067 -0.982643
vn 0.023282 -0.255004 -0.966660
vn 0.323618 -0.293470 -0.899526
vn 0.255623 -0.404234 -0.878210
vn 0.217551 -0.219774 -0.950984
vn 0.065990 0.221275 -0.972976
vn 0.026005 0.037474 -0.998959
vn -0.051393 0.149705 -0.987394
vn -0.117725 0.266428 -0.956639
vn 0.103593 0.397099 -0.911910
vn -0.009927 0.340797 -0.940085
vn 0.247327 0.168146 -0.954231
vn 0.140768 0.097229 -0.985257
vn 0.181429 0.289707 -0.939762
vn -0.011794 -0.114317 -0.993374
vn -0.013888 0.075523 -0.997047
vn 0.086633 -0.017293 -0.996090
vn 0.177316 -0.119170 -0.976912
vn -0.009270 -0.300035 -0.953883
vn 0.088851 -0.217027 -0.972114
vn -0.200478 -0.105345 -0.974018
vn -0.112405 -0.009401 -0.993618
vn -0.109084 -0.210085 -0.971579
vn 0.152913 0.055503 -0.986680
vn 0.181355 0.240311 -0.953604
vn 0.264156 0.131405 -0.955486
vn 0.332642 0.012565 -0.942969
vn 0.118961 -0.131307 -0.984178
vn 0.230554 -0.066358 -0.970794
vn -0.032330 0.096438 -0.994814
vn 0.071794 0.176025 -0.981764
vn 0.039469 -0.022544 -0.998967
vn -0.012855 -0.112215 -0.993601
vn -0.049012 -0.294460 -0.954406
vn -0.128740 -0.185055 -0.974259
vn -0.196157 -0.065023 -0.978414
vn 0.023762 0.074078 -0.996969
vn -0.089755 0.011122 -0.995902
vn 0.170910 -0.155359 -0.972961
vn 0.064570 -0.233019 -0.970326
vn 0.102574 -0.036137 -0.994069
vn 0.140244 -0.171950 -0.975072
vn -0.010780 -0.059191 -0.998188
vn 0.123852 -0.035696 -0.991659
vn 0.258585 -0.023746 -0.965697
vn 0.286213 -0.278506 -0.916797
vn 0.281598 -0.152427 -0.947348
vn 0.016847 -0.313955 -0.949288
vn -0.004041 -0.188134 -0.982135
vn 0.155239 -0.304749 -0.939696
vn 0.114147 -0.252818 -0.960757
vn 0.284058 -0.316681 -0.905000
vn 0.160215 -0.374238 -0.913388
vn 0.028527 -0.414414 -0.909641
vn -0.059881 -0.179842 -0.981871
vn -0.022821 -0.300941 -0.953370
vn 0.195650 -0.082105 -0.977231
vn 0.248601 -0.199082 -0.947926
vn 0.064680 -0.127032 -0.989788
vn 0.241924 0.056265 -0.968663
vn 0.119720 0.201562 -0.972132
vn 0.254059 0.192387 -0.947861
vn 0.383567 0.167357 -0.908223
vn 0.355407 -0.091059 -0.930266
vn 0.379045 0.036458 -0.924660
vn 0.091559 -0.056857 -0.994175
vn 0.099658 0.074585 -0.992222
vn 0.226422 -0.081095 -0.970648
vn -0.253174 0.027323 -0.967035
vn -0.431481 0.025355 -0.901766
vn -0.343199 0.125771 -0.930804
vn -0.240016 0.215639 -0.946516
vn -0.065739 0.028310 -0.997435
vn -0.148319 0.127064 -0.980743
vn -0.257202 -0.161978 -0.952686
vn -0.352478 -0.073211 -0.932952
vn -0.157399 -0.070740 -0.984998
vn -0.161949 0.087928 -0.982874
vn -0.223265 0.262165 -0.938841
vn -0.100676 0.211382 -0.972205
vn 0.018957 0.145284 -0.989208
vn -0.094791 -0.089479 -0.991468
vn -0.032380 0.024081 -0.999186
vn -0.337016 0.027400 -0.941100
vn -0.288228 0.149646 -0.945796
vn -0.218974 -0.037763 -0.975000
vn -0.056669 -0.175350 -0.982874
vn -0.216672 -0.267640 -0.938841
vn -0.189281 -0.137807 -0.972205
vn -0.146294 -0.008064 -0.989208
vn 0.105374 -0.076734 -0.991468
vn -0.017721 -0.036254 -0.999186
vn 0.035000 -0.336312 -0.941100
vn -0.094130 -0.310820 -0.945796
vn 0.077360 -0.208305 -0.975000
vt 0.085561 0.920295
vt 0.159714 0.920295
vt 0.154645 0.985942
vt 0.154008 0.855253
vt 0.015282 0.853512
vt 0.085561 0.849831
vt 0.085561 0.990759
vt 0.017762 0.984721
vt 0.011408 0.920295
f 9/1/1 6/2/2 3/3/3
f 4/4/4 6/2/2 9/1/1
f 2/5/5 8/6/6 9/1/1
f 9/1/1 7/7/7 1/8/8
f 8/6/6 4/4/4 9/1/1
f 7/7/7 9/1/1 3/3/3
f 5/9/9 9/1/1 1/8/8
f 5/9/9 2/5/5 9/1/1
f 18/1/10 15/2/11 12/3/12
f 13/4/13 15/2/11 18/1/10
f 11/5/14 17/6/15 18/1/10
f 18/1/10 16/7/16 10/8/17
f 17/6/15 13/4/13 18/1/10
f 16/7/16 18/1/10 12/3/12
f 14/9/18 18/1/10 10/8/17
f 14/9/18 11/5/14 18/1/10
f 27/1/19 24/2/20 21/3/21
f 22/4/22 24/2/20 27/1/19
f 20/5/23 26/6/24 27/1/19
f 27/1/19 25/7/25 19/8/26
f 26/6/24 22/4/22 27/1/19
f 25/7/25 27/1/19 21/3/21
f 23/9/27 27/1/19 19/8/26
f 23/9/27 20/5/23 27/1/19
f 36/1/28 33/2/29 30/3/30
f 31/4/31 33/2/29 36/1/28
f 29/5/32 35/6/33 36/1/28
f 36/1/28 34/7/34 28/8/35
f 35/6/33 31/4/31 36/1/28
f 34/7/34 36/1/28 30/3/30
f 32/9/36 36/1/28 28/8/35
f 32/9/36 29/5/32 36/1/28
f 45/1/37 42/2/38 39/3/39
f 40/4/40 42/2/38 45/1/37
f 38/5/41 44/6/42 45/1/37
f 45/1/37 43/7/43 37/8/44
f 44/6/42 40/4/40 45/1/37
f 43/7/43 45/1/37 39/3/39
f 41/9/45 45/1/37 37/8/44
f 41/9/45 38/5/41 45/1/37
f 54/1/46 51/2/47 48/3/48
f 49/4/49 51/2/47 54/1/46
f 47/5/50 53/6/51 54/1/46
f 54/1/46 52/7/52 46/8/53
f 53/6/51 49/4/49 54/1/46
f 52/7/52 54/1/46 48/3/48
f 50/9/54 54/1/46 46/8/53
f 50/9/54 47/5/50 54/1/46
f 63/1/55 60/2/56 57/3/57
f 58/4/58 60/2/56 63/1/55
f 56/5/59 62/6/60 63/1/55
f 63/1/55 61/7/61 55/8/62
f 62/6/60 58/4/58 63/1/55
f 61/7/61 63/1/55 57/3/57
f 59/9/63 63/1/55 55/8/62
f 59/9/63 56/5/59 63/1/55
f 72/1/64 69/2/65 66/3/66
f 67/4/67 69/2/65 72/1/64
f 65/5/68 71/6/69 72/1/64
f 72/1/64 70/7/70 64/8/71
f 71/6/69 67/4/67 72/1/64
f 70/7/70 72/1/64 66/3/66
f 68/9/72 72/1/64 64/8/71
f 68/9/72 65/5/68 72/1/64
f 81/1/73 78/2/74 75/3/75
f 76/4/76 78/2/74 81/1/73
f 74/5/77 80/6/78 81/1/73
f 81/1/73 79/7/79 73/8/80
f 80/6/78 76/4/76 81/1/73
f 79/7/79 81/1/73 75/3/75
f 77/9/81 81/1/73 73/8/80
f 77/9/81 74/5/77 81/1/73
f 90/1/82 87/2/83 84/3/84
f 85/4/85 87/2/83 90/1/82
f 83/5/86 89/6/87 90/1/82
f 90/1/82 88/7/88 82/8/89
f 89/6/87 85/4/85 90/1/82
f 88/7/88 90/1/82 84/3/84
f 86/9/90 90/1/82 82/8/89
f 86/9/90 83/5/86 90/1/82
f 99/1/91 96/2/92 93/3/93
f 94/4/94 96/2/92 99/1/91
f 92/5/95 98/6/96 99/1/91
f 99/1/91 97/7/97 91/8/98
f 98/6/96 94/4/94 99/1/91
f 97/7/97 99/1/91 93/3/93
f 95/9/99 99/1/91 91/8/98
f 95/9/99 92/5/95 99/1/91
f 108/1/100 102/3/101 105/2/102
f 103/4/103 108/1/100 105/2/102
f 101/5/104 108/1/100 107/6/105
f 108/1/100 100/8/106 106/7/107
f 107/6/105 108/1/100 103/4/103
f 106/7/107 102/3/101 108/1/100
f 104/9/108 100/8/106 108/1/100
f 104/9/108 108/1/100 101/5/104
f 117/1/109 111/3/110 114/2/111
f 112/4/112 117/1/109 114/2/111
f 110/5/113 117/1/109 116/6/114
f 117/1/109 109/8/115 115/7/116
f 116/6/114 117/1/109 112/4/112
f 115/7/116 111/3/110 117/1/109
f 113/9/117 109/8/115 117/1/109
f 113/9/117 117/1/109 110/5/113
f 126/1/118 120/3/119 123/2/120
f 121/4/121 126/1/118 123/2/120
f 119/5/122 126/1/118 125/6/123
f 126/1/118 118/8/124 124/7/125
f 125/6/123 126/1/118 121/4/121
f 124/7/125 120/3/119 126/1/118
f 122/9/126 118/8/124 126/1/118
f 122/9/126 126/1/118 119/5/122
f 135/1/127 129/3/128 132/2/129
f 130/4/130 135/1/127 132/2/129
f 128/5/131 135/1/127 134/6/132
f 135/1/127 127/8/133 133/7/134
f 134/6/132 135/1/127 130/4/130
f 133/7/134 129/3/128 135/1/127
f 131/9/135 127/8/133 135/1/127
f 131/9/135 135/1/127 128/5/131
f 144/1/136 138/3/137 141/2/138
f 139/4/139 144/1/136 141/2/138
f 137/5/140 144/1/136 143/6/141
f 144/1/136 136/8/142 142/7/143
f 143/6/141 144/1/136 139/4/139
f 142/7/143 138/3/137 144/1/136
f 140/9/144 136/8/142 144/1/136
f 140/9/144 144/1/136 137/5/140
f 153/1/145 147/3/146 150/2/147
f 148/4/148 153/1/145 150/2/147
f 146/5/149 153/1/145 152/6/150
f 153/1/145 145/8/151 151/7/152
f 152/6/150 153/1/145 148/4/148
f 151/7/152 147/3/146 153/1/145
f 149/9/153 145/8/151 153/1/145
f 149/9/153 153/1/145 146/5/149
f 162/1/154 156/3/155 159/2/156
f 157/4/157 162/1/154 159/2/156
f 155/5/158 162/1/154 161/6/159
f 162/1/154 154/8/160 160/7/161
f 161/6/159 162/1/154 157/4/157
f 160/7/161 156/3/155 162/1/154
f 158/9/162 154/8/160 162/1/154
f 158/9/162 162/1/154 155/5/158
f 171/1/163 165/3/164 168/2/165
f 166/4/166 171/1/163 168/2/165
f 164/5/167 171/1/163 170/6/168
f 171/1/163 163/8/169 169/7/170
f 170/6/168 171/1/163 166/4/166
f 169/7/170 165/3/164 171/1/163
f 167/9/171 163/8/169 171/1/163
f 167/9/171 171/1/163 164/5/167
f 180/1/172 174/3/173 177/2/174
f 175/4/175 180/1/172 177/2/174
f 173/5/176 180/1/172 179/6/177
f 180/1/172 172/8/178 178/7/179
f 179/6/177 180/1/172 175/4/175
f 178/7/179 174/3/173 180/1/172
f 176/9/180 172/8/178 180/1/172
f 176/9/180 180/1/172 173/5/176
f 189/1/181 183/3/182 186/2/183
f 184/4/184 189/1/181 186/2/183
f 182/5/185 189/1/181 188/6/186
f 189/1/181 181/8/187 187/7/188
f 188/6/186 189/1/181 184/4/184
f 187/7/188 183/3/182 189/1/181
f 185/9/189 181/8/187 189/1/181
f 185/9/189 189/1/181 182/5/185
f 198/1/190 192/3/191 195/2/192
f 193/4/193 198/1/190 195/2/192
f 191/5/194 198/1/190 197/6/195
f 198/1/190 190/8/196 196/7/197
f 197/6/195 198/1/190 193/4/193
f 196/7/197 192/3/191 198/1/190
f 194/9/198 190/8/196 198/1/190
f 194/9/198 198/1/190 191/5/194
