#
#
#

mtllib SM_Grass_05.mtl


#
# Plane.959
#
g Plane.959


#
# Plane.959_Grass
#
usemtl Plane.959_Grass

v -0.237111 -0.247894 0.597475
v -0.230194 -0.254387 0.597475
v -0.107077 -0.120021 0.000000
v -0.086895 -0.138965 0.000000
v -0.129015 -0.138062 0.167996
v -0.112905 -0.153183 0.167996
v -0.210095 -0.202050 0.381042
v -0.182958 -0.227521 0.381042
v 0.017668 0.270305 1.338126
v 0.063842 0.271917 1.341528
v 0.078645 0.060107 0.000000
v 0.100666 0.066667 0.000000
v 0.055732 0.070164 0.453834
v 0.023258 0.148505 0.898739
v 0.070381 0.071444 0.453902
v 0.075797 0.144315 0.905184
v -0.195059 -0.279879 1.138207
v -0.166524 -0.306447 1.138716
v -0.157725 -0.206241 0.000000
v -0.140619 -0.215261 0.000000
v -0.207158 -0.265547 0.374677
v -0.222055 -0.278000 0.755378
v -0.197568 -0.273353 0.374155
v -0.193306 -0.312180 0.756935
v 0.257632 -0.359867 1.346014
v 0.215418 -0.380944 1.350454
v 0.040322 -0.105135 0.000000
v 0.022513 -0.120475 0.000000
v 0.090606 -0.133590 0.461354
v 0.177757 -0.221038 0.907916
v 0.077478 -0.140928 0.461671
v 0.127357 -0.239576 0.916074
v -0.279159 0.465582 1.286266
v -0.312513 0.434106 1.291318
v -0.075318 0.108531 0.000000
v -0.095235 0.097261 0.000000
v -0.099283 0.189481 0.444727
v -0.164634 0.322678 0.870697
v -0.110340 0.179891 0.445226
v -0.198480 0.283085 0.879825
v -0.128005 -0.430561 1.100531
v -0.088871 -0.427708 1.104853
v -0.070268 -0.083644 0.000000
v -0.050967 -0.086932 0.000000
v -0.098115 -0.150263 0.380506
v -0.126745 -0.273905 0.744967
v -0.085598 -0.149877 0.380933
v -0.082898 -0.265934 0.752776
v 0.121452 0.114465 1.022652
v 0.089243 0.128144 1.024448
v 0.075350 0.053318 0.000000
v 0.061637 0.063994 0.000000
v 0.075828 0.030430 0.343007
v 0.102055 0.053337 0.683787
v 0.065861 0.035362 0.342864
v 0.063657 0.064536 0.687388
v -0.325715 -0.260808 1.272026
v -0.347278 -0.220819 1.277095
v -0.017099 0.016297 0.000000
v -0.032310 0.033111 0.000000
v -0.066800 -0.054065 0.440149
v -0.171646 -0.160566 0.861335
v -0.074207 -0.041598 0.440660
v -0.191154 -0.112807 0.870480
v 0.062954 0.005120 0.789802
v 0.066484 -0.006372 0.789802
v 0.115597 0.011620 0.000000
v 0.125898 -0.021909 0.000000
v 0.074067 0.003697 0.211719
v 0.082290 -0.023066 0.211719
v 0.092661 0.029725 0.510027
v 0.106512 -0.015356 0.510027
v -0.183205 0.528275 0.376708
v -0.187209 0.526732 0.376708
v -0.060232 0.221993 0.000000
v -0.077753 0.215241 0.000000
v -0.139848 0.418144 0.327887
v -0.151458 0.413670 0.327887
v -0.090602 0.305858 0.191660
v -0.101341 0.301720 0.191660
v 0.108888 0.379875 0.956598
v 0.101575 0.383822 0.956598
v 0.040565 0.234451 0.000000
v 0.008563 0.251723 0.000000
v 0.041321 0.251185 0.755700
v 0.020115 0.262630 0.755700
v 0.020814 0.190446 0.406574
v 0.001199 0.201032 0.406574
v 0.178042 0.408763 0.763892
v 0.188213 0.402620 0.763892
v 0.098514 0.259413 0.000000
v 0.128191 0.241489 0.000000
v 0.104271 0.277783 0.212527
v 0.127959 0.263475 0.212527
v 0.142981 0.379000 0.488558
v 0.182882 0.354900 0.488558
v -0.186391 0.000559 0.376669
v -0.189500 -0.000366 0.376669
v -0.194011 0.038414 0.000000
v -0.207617 0.034366 0.000000
v -0.200475 0.050171 0.294758
v -0.209491 0.047489 0.294758
v -0.200951 0.066559 0.157170
v -0.209290 0.064078 0.157170
v 0.216777 -0.418166 0.700382
v 0.223060 -0.408929 0.700382
v 0.035768 -0.284650 -0.000000
v 0.054101 -0.257698 -0.000000
v 0.063146 -0.308469 0.197325
v 0.077779 -0.286955 0.197325
v 0.155447 -0.393078 0.446431
v 0.180096 -0.356840 0.446431
v -0.237111 -0.247894 0.597475
v -0.230194 -0.254387 0.597475
v -0.107077 -0.120021 0.000000
v -0.086895 -0.138965 0.000000
v -0.129015 -0.138062 0.167996
v -0.112905 -0.153183 0.167996
v -0.210095 -0.202050 0.381042
v -0.182958 -0.227521 0.381042
v 0.017668 0.270305 1.338126
v 0.063842 0.271917 1.341528
v 0.078645 0.060107 0.000000
v 0.100666 0.066667 0.000000
v 0.055732 0.070164 0.453834
v 0.023258 0.148505 0.898739
v 0.070381 0.071444 0.453902
v 0.075797 0.144315 0.905184
v -0.195059 -0.279879 1.138207
v -0.166524 -0.306447 1.138716
v -0.157725 -0.206241 0.000000
v -0.140619 -0.215261 0.000000
v -0.207158 -0.265547 0.374677
v -0.222055 -0.278000 0.755378
v -0.197568 -0.273353 0.374155
v -0.193306 -0.312180 0.756935
v 0.257632 -0.359867 1.346014
v 0.215418 -0.380944 1.350454
v 0.040322 -0.105135 0.000000
v 0.022513 -0.120475 0.000000
v 0.090606 -0.133590 0.461354
v 0.177757 -0.221038 0.907916
v 0.077478 -0.140928 0.461671
v 0.127357 -0.239576 0.916074
v -0.279159 0.465582 1.286266
v -0.312513 0.434106 1.291318
v -0.075318 0.108531 0.000000
v -0.095235 0.097261 0.000000
v -0.099283 0.189481 0.444727
v -0.164634 0.322678 0.870697
v -0.110340 0.179891 0.445226
v -0.198480 0.283085 0.879825
v -0.128005 -0.430561 1.100531
v -0.088871 -0.427708 1.104853
v -0.070268 -0.083644 0.000000
v -0.050967 -0.086932 0.000000
v -0.098115 -0.150263 0.380506
v -0.126745 -0.273905 0.744967
v -0.085598 -0.149877 0.380933
v -0.082898 -0.265934 0.752776
v 0.121452 0.114465 1.022652
v 0.089243 0.128144 1.024448
v 0.075350 0.053318 0.000000
v 0.061637 0.063994 0.000000
v 0.075828 0.030430 0.343007
v 0.102055 0.053337 0.683787
v 0.065861 0.035362 0.342864
v 0.063657 0.064536 0.687388
v -0.325715 -0.260808 1.272026
v -0.347278 -0.220819 1.277095
v -0.017099 0.016297 0.000000
v -0.032310 0.033111 0.000000
v -0.066800 -0.054065 0.440149
v -0.171646 -0.160566 0.861335
v -0.074207 -0.041598 0.440660
v -0.191154 -0.112807 0.870480
v 0.062954 0.005120 0.789802
v 0.066484 -0.006372 0.789802
v 0.115597 0.011620 0.000000
v 0.125898 -0.021909 0.000000
v 0.074067 0.003697 0.211719
v 0.082290 -0.023066 0.211719
v 0.092661 0.029725 0.510027
v 0.106512 -0.015356 0.510027
v -0.183205 0.528275 0.376708
v -0.187209 0.526732 0.376708
v -0.060232 0.221993 0.000000
v -0.077753 0.215241 0.000000
v -0.139848 0.418144 0.327887
v -0.151458 0.413670 0.327887
v -0.090602 0.305858 0.191660
v -0.101341 0.301720 0.191660
v 0.108888 0.379875 0.956598
v 0.101575 0.383822 0.956598
v 0.040565 0.234451 0.000000
v 0.008563 0.251723 0.000000
v 0.041321 0.251185 0.755700
v 0.020115 0.262630 0.755700
v 0.020814 0.190446 0.406574
v 0.001199 0.201032 0.406574
v 0.178042 0.408763 0.763892
v 0.188213 0.402620 0.763892
v 0.098514 0.259413 0.000000
v 0.128191 0.241489 0.000000
v 0.104271 0.277783 0.212527
v 0.127959 0.263475 0.212527
v 0.142981 0.379000 0.488558
v 0.182882 0.354900 0.488558
v -0.186391 0.000559 0.376669
v -0.189500 -0.000366 0.376669
v -0.194011 0.038414 0.000000
v -0.207617 0.034366 0.000000
v -0.200475 0.050171 0.294758
v -0.209491 0.047489 0.294758
v -0.200951 0.066559 0.157170
v -0.209290 0.064078 0.157170
v 0.216777 -0.418166 0.700382
v 0.223060 -0.408929 0.700382
v 0.035768 -0.284650 -0.000000
v 0.054101 -0.257698 -0.000000
v 0.063146 -0.308469 0.197325
v 0.077779 -0.286955 0.197325
v 0.155447 -0.393078 0.446431
v 0.180096 -0.356840 0.446431
vn -0.645015 -0.687190 -0.334254
vn -0.665501 -0.709015 -0.233253
vn -0.665501 -0.709015 -0.233253
vn -0.674957 -0.719089 -0.165362
vn -0.652964 -0.695658 -0.299495
vn -0.651668 -0.694277 -0.305464
vn -0.644336 -0.686467 -0.337037
vn -0.099869 -0.971245 0.216125
vn 0.004134 -0.960012 0.279927
vn -0.101421 -0.972307 0.210555
vn 0.281499 -0.959121 0.029081
vn 0.082710 -0.991374 0.101672
vn 0.086082 -0.990714 0.105242
vn -0.762687 -0.646767 0.000532
vn -0.687181 -0.724152 0.058190
vn -0.763928 -0.645282 -0.005018
vn -0.460163 -0.864082 -0.203992
vn -0.632980 -0.763616 -0.127383
vn -0.630491 -0.766230 -0.123987
vn -0.292827 0.911436 0.289028
vn -0.379688 0.854638 0.354163
vn -0.292141 0.913382 0.283524
vn -0.645593 0.755639 0.110544
vn -0.473598 0.861987 0.180784
vn -0.476214 0.859784 0.184370
vn -0.748572 0.565511 -0.346174
vn -0.663642 0.624327 -0.412063
vn -0.750813 0.565835 -0.340749
vn -0.488356 0.854830 -0.175424
vn -0.644345 0.724953 -0.243437
vn -0.641271 0.726466 -0.247018
vn 0.223136 -0.911271 -0.346115
vn 0.120143 -0.903227 -0.412004
vn 0.224669 -0.912937 -0.340690
vn -0.161343 -0.971195 -0.175357
vn 0.041624 -0.969039 -0.243373
vn 0.038285 -0.968271 -0.246953
vn 0.269462 0.953281 -0.136551
vn 0.365644 0.909351 -0.198458
vn 0.268102 0.954449 -0.130952
vn 0.610081 0.790193 0.058267
vn 0.440566 0.897572 -0.016302
vn 0.443659 0.895976 -0.019830
vn 0.887097 0.299551 0.351180
vn 0.824734 0.381867 0.417122
vn 0.889350 0.299174 0.345764
vn 0.732003 0.656777 0.181153
vn 0.838844 0.484110 0.248955
vn 0.836388 0.486500 0.252534
vn -0.955686 -0.293619 -0.021256
vn -0.948246 -0.291333 -0.126310
vn -0.948246 -0.291333 -0.126310
vn -0.937610 -0.288065 -0.194694
vn -0.954300 -0.293193 -0.057874
vn -0.954628 -0.293294 -0.051622
vn -0.955742 -0.293637 -0.018301
vn 0.208199 -0.540291 0.815315
vn 0.137121 -0.355829 0.924437
vn 0.207884 -0.539474 0.815937
vn 0.300065 -0.778690 0.551002
vn 0.326009 -0.846023 0.421857
vn 0.326009 -0.846023 0.421857
vn -0.437458 -0.810542 0.389425
vn -0.384807 -0.712992 0.586145
vn -0.437260 -0.810174 0.390414
vn -0.474735 -0.879607 0.030293
vn -0.471662 -0.873916 -0.117502
vn -0.471662 -0.873916 -0.117502
vn -0.499299 -0.826672 0.259449
vn -0.510640 -0.845447 0.156417
vn -0.510640 -0.845447 0.156417
vn -0.515013 -0.852689 0.087652
vn -0.503879 -0.834254 0.223889
vn -0.503144 -0.833038 0.229987
vn -0.498901 -0.826012 0.262302
vn 0.269255 -0.905010 -0.329330
vn 0.241311 -0.811124 -0.532773
vn 0.269154 -0.904670 -0.330345
vn 0.284997 -0.957921 0.034109
vn 0.280444 -0.942616 0.181182
vn 0.280444 -0.942616 0.181182
vn 0.775204 -0.527296 -0.347877
vn 0.801163 -0.544949 -0.247322
vn 0.801164 -0.544948 -0.247322
vn 0.813398 -0.553276 -0.179638
vn 0.785222 -0.534111 -0.313291
vn 0.783585 -0.532997 -0.319232
vn 0.774350 -0.526715 -0.350646
vn 0.645015 0.687190 0.334254
vn 0.665501 0.709015 0.233253
vn 0.644336 0.686467 0.337037
vn 0.674957 0.719089 0.165362
vn 0.652964 0.695658 0.299495
vn 0.651668 0.694277 0.305464
vn -0.004134 0.960012 -0.279927
vn 0.099869 0.971245 -0.216125
vn 0.101421 0.972307 -0.210555
vn -0.281499 0.959121 -0.029081
vn -0.082710 0.991374 -0.101672
vn -0.285366 0.957976 -0.029123
vn -0.086082 0.990714 -0.105242
vn 0.687181 0.724152 -0.058190
vn 0.762687 0.646767 -0.000532
vn 0.763928 0.645282 0.005018
vn 0.460163 0.864082 0.203992
vn 0.632980 0.763617 0.127383
vn 0.456603 0.865977 0.203953
vn 0.630491 0.766230 0.123987
vn 0.379687 -0.854638 -0.354163
vn 0.292827 -0.911436 -0.289028
vn 0.292141 -0.913383 -0.283524
vn 0.645593 -0.755639 -0.110544
vn 0.473598 -0.861987 -0.180784
vn 0.648651 -0.753010 -0.110586
vn 0.476214 -0.859784 -0.184370
vn 0.663642 -0.624327 0.412063
vn 0.748573 -0.565511 0.346174
vn 0.750813 -0.565835 0.340749
vn 0.488356 -0.854830 0.175424
vn 0.644345 -0.724954 0.243438
vn 0.484846 -0.856817 0.175466
vn 0.641271 -0.726466 0.247018
vn -0.120144 0.903227 0.412004
vn -0.223136 0.911271 0.346115
vn -0.224669 0.912937 0.340690
vn 0.161343 0.971195 0.175357
vn -0.041623 0.969039 0.243373
vn 0.165319 0.970518 0.175399
vn -0.038285 0.968271 0.246953
vn -0.365644 -0.909351 0.198458
vn -0.269462 -0.953281 0.136551
vn -0.268102 -0.954449 0.130952
vn -0.610081 -0.790193 -0.058267
vn -0.440566 -0.897572 0.016302
vn -0.613270 -0.787724 -0.058226
vn -0.443659 -0.895976 0.019830
vn -0.824734 -0.381867 -0.417122
vn -0.887097 -0.299551 -0.351180
vn -0.889350 -0.299174 -0.345763
vn -0.732003 -0.656777 -0.181153
vn -0.838844 -0.484110 -0.248955
vn -0.729298 -0.659768 -0.181195
vn -0.836388 -0.486500 -0.252534
vn 0.955686 0.293619 0.021256
vn 0.948246 0.291333 0.126310
vn 0.955742 0.293637 0.018301
vn 0.937610 0.288065 0.194694
vn 0.954300 0.293193 0.057874
vn 0.937610 0.288065 0.194694
vn 0.954628 0.293294 0.051622
vn -0.137115 0.355829 -0.924438
vn -0.208199 0.540291 -0.815315
vn -0.207884 0.539473 -0.815937
vn -0.300065 0.778690 -0.551002
vn -0.300205 0.779053 -0.550412
vn -0.326009 0.846023 -0.421857
vn -0.326009 0.846023 -0.421857
vn 0.384804 0.712993 -0.586146
vn 0.437458 0.810542 -0.389425
vn 0.437260 0.810173 -0.390414
vn 0.474735 0.879607 -0.030293
vn 0.474746 0.879626 -0.029586
vn 0.471662 0.873916 0.117502
vn 0.471662 0.873916 0.117502
vn 0.499299 0.826672 -0.259449
vn 0.510640 0.845447 -0.156417
vn 0.498901 0.826012 -0.262302
vn 0.515013 0.852689 -0.087652
vn 0.503879 0.834254 -0.223889
vn 0.503144 0.833038 -0.229987
vn -0.241309 0.811125 0.532773
vn -0.269255 0.905010 0.329330
vn -0.269154 0.904670 0.330345
vn -0.284997 0.957921 -0.034109
vn -0.284990 0.957898 -0.034816
vn -0.280444 0.942616 -0.181182
vn -0.280444 0.942616 -0.181182
vn -0.775204 0.527296 0.347877
vn -0.801163 0.544949 0.247322
vn -0.774350 0.526715 0.350646
vn -0.813398 0.553276 0.179638
vn -0.785222 0.534111 0.313291
vn -0.813398 0.553276 0.179638
vn -0.783585 0.532997 0.319232
vn 0.012784 -0.959629 0.280977
vn 0.285366 -0.957976 0.029123
vn -0.680819 -0.730094 0.058723
vn -0.456603 -0.865977 -0.203953
vn -0.387363 0.850679 0.355381
vn -0.648651 0.753010 0.110586
vn -0.657280 0.630139 -0.413410
vn -0.484846 0.856817 -0.175466
vn 0.111540 -0.903715 -0.413351
vn -0.165319 -0.970518 -0.175399
vn 0.373614 0.905916 -0.199321
vn 0.613270 0.787724 0.058226
vn 0.820521 0.389383 0.418480
vn 0.729298 0.659768 0.181195
vn -0.937610 -0.288065 -0.194694
vn 0.137121 -0.355830 0.924437
vn 0.300205 -0.779053 0.550412
vn -0.384807 -0.712992 0.586145
vn -0.474746 -0.879626 0.029586
vn 0.241311 -0.811125 -0.532772
vn 0.284991 -0.957898 0.034816
vn 0.813398 -0.553276 -0.179638
vn 0.665501 0.709015 0.233253
vn -0.012785 0.959629 -0.280977
vn 0.680818 0.730094 -0.058723
vn 0.387363 -0.850679 -0.355381
vn 0.657280 -0.630139 0.413410
vn -0.111540 0.903714 0.413351
vn -0.373614 -0.905916 0.199321
vn -0.820521 -0.389383 -0.418481
vn 0.948246 0.291333 0.126310
vn -0.137115 0.355829 -0.924438
vn 0.384803 0.712993 -0.586146
vn 0.510640 0.845447 -0.156417
vn -0.241308 0.811125 0.532772
vn -0.801164 0.544948 0.247322
vt 0.676773 0.297104
vt 0.692395 0.461100
vt 0.685392 0.461100
vt 0.690779 0.000000
vt 0.704396 0.124682
vt 0.688085 0.124682
vt 0.704246 0.297104
vt 0.809551 0.392390
vt 0.800095 0.588584
vt 0.786668 0.391429
vt 0.799629 0.000000
vt 0.797485 0.196195
vt 0.791131 0.196195
vt 0.644984 0.417905
vt 0.639531 0.553320
vt 0.631806 0.417905
vt 0.638703 0.223878
vt 0.648967 0.000000
vt 0.629080 0.000000
vt 0.711212 0.000000
vt 0.809556 0.000000
vt 0.650891 0.223878
vt 0.820112 0.588584
vt 0.644075 0.553320
f 7/1/1 2/2/2 1/3/3
f 3/4/4 6/5/5 5/6/6
f 5/6/6 8/7/7 7/1/1
f 16/8/8 9/9/9 14/10/10
f 11/11/11 15/12/12 13/13/13
f 15/12/12 14/10/10 13/13/13
f 24/8/14 17/9/15 22/10/16
f 19/11/17 23/12/18 21/13/19
f 23/12/18 22/10/16 21/13/19
f 32/8/20 25/9/21 30/10/22
f 27/11/23 31/12/24 29/13/25
f 31/12/24 30/10/22 29/13/25
f 40/8/26 33/9/27 38/10/28
f 35/11/29 39/12/30 37/13/31
f 39/12/30 38/10/28 37/13/31
f 48/8/32 41/9/33 46/10/34
f 43/11/35 47/12/36 45/13/37
f 47/12/36 46/10/34 45/13/37
f 56/8/38 49/9/39 54/10/40
f 51/11/41 55/12/42 53/13/43
f 55/12/42 54/10/40 53/13/43
f 64/8/44 57/9/45 62/10/46
f 59/11/47 63/12/48 61/13/49
f 63/12/48 62/10/46 61/13/49
f 71/1/50 66/2/51 65/3/52
f 67/4/53 70/5/54 69/6/55
f 69/6/55 72/7/56 71/1/50
f 77/14/57 74/15/58 78/16/59
f 80/17/60 77/14/57 78/16/59
f 75/18/61 80/17/60 76/19/62
f 85/14/63 82/15/64 86/16/65
f 88/17/66 85/14/63 86/16/65
f 83/18/67 88/17/66 84/19/68
f 95/1/69 90/2/70 89/3/71
f 91/4/72 94/5/73 93/6/74
f 93/6/74 96/7/75 95/1/69
f 101/14/76 98/15/77 102/16/78
f 104/17/79 101/14/76 102/16/78
f 99/18/80 104/17/79 100/19/81
f 111/1/82 106/2/83 105/3/84
f 107/4/85 110/5/86 109/6/87
f 109/6/87 112/7/88 111/1/82
f 119/1/89 114/2/90 120/7/91
f 115/4/92 118/5/93 116/20/92
f 117/6/94 120/7/91 118/5/93
f 121/9/95 128/8/96 126/10/97
f 123/11/98 127/12/99 124/21/100
f 126/10/97 127/12/99 125/13/101
f 129/9/102 136/8/103 134/10/104
f 131/11/105 135/12/106 132/21/107
f 134/10/104 135/12/106 133/13/108
f 137/9/109 144/8/110 142/10/111
f 139/11/112 143/12/113 140/21/114
f 142/10/111 143/12/113 141/13/115
f 145/9/116 152/8/117 150/10/118
f 147/11/119 151/12/120 148/21/121
f 150/10/118 151/12/120 149/13/122
f 153/9/123 160/8/124 158/10/125
f 155/11/126 159/12/127 156/21/128
f 158/10/125 159/12/127 157/13/129
f 161/9/130 168/8/131 166/10/132
f 163/11/133 167/12/134 164/21/135
f 166/10/132 167/12/134 165/13/136
f 169/9/137 176/8/138 174/10/139
f 171/11/140 175/12/141 172/21/142
f 174/10/139 175/12/141 173/13/143
f 183/1/144 178/2/145 184/7/146
f 179/4/147 182/5/148 180/20/149
f 181/6/150 184/7/146 182/5/148
f 186/15/151 189/14/152 190/16/153
f 192/17/154 189/14/152 191/22/155
f 192/17/154 187/18/156 188/19/157
f 194/15/158 197/14/159 198/16/160
f 200/17/161 197/14/159 199/22/162
f 200/17/161 195/18/163 196/19/164
f 207/1/165 202/2/166 208/7/167
f 203/4/168 206/5/169 204/20/168
f 205/6/170 208/7/167 206/5/169
f 210/15/171 213/14/172 214/16/173
f 216/17/174 213/14/172 215/22/175
f 216/17/174 211/18/176 212/19/177
f 223/1/178 218/2/179 224/7/180
f 219/4/181 222/5/182 220/20/183
f 221/6/184 224/7/180 222/5/182
f 7/1/1 8/7/7 2/2/2
f 3/4/4 4/20/4 6/5/5
f 5/6/6 6/5/5 8/7/7
f 16/8/8 10/23/185 9/9/9
f 11/11/11 12/21/186 15/12/12
f 15/12/12 16/8/8 14/10/10
f 24/8/14 18/23/187 17/9/15
f 19/11/17 20/21/188 23/12/18
f 23/12/18 24/8/14 22/10/16
f 32/8/20 26/23/189 25/9/21
f 27/11/23 28/21/190 31/12/24
f 31/12/24 32/8/20 30/10/22
f 40/8/26 34/23/191 33/9/27
f 35/11/29 36/21/192 39/12/30
f 39/12/30 40/8/26 38/10/28
f 48/8/32 42/23/193 41/9/33
f 43/11/35 44/21/194 47/12/36
f 47/12/36 48/8/32 46/10/34
f 56/8/38 50/23/195 49/9/39
f 51/11/41 52/21/196 55/12/42
f 55/12/42 56/8/38 54/10/40
f 64/8/44 58/23/197 57/9/45
f 59/11/47 60/21/198 63/12/48
f 63/12/48 64/8/44 62/10/46
f 71/1/50 72/7/56 66/2/51
f 67/4/53 68/20/199 70/5/54
f 69/6/55 70/5/54 72/7/56
f 77/14/57 73/24/200 74/15/58
f 80/17/60 79/22/201 77/14/57
f 75/18/61 79/22/201 80/17/60
f 85/14/63 81/24/202 82/15/64
f 88/17/66 87/22/203 85/14/63
f 83/18/67 87/22/203 88/17/66
f 95/1/69 96/7/75 90/2/70
f 91/4/72 92/20/72 94/5/73
f 93/6/74 94/5/73 96/7/75
f 101/14/76 97/24/204 98/15/77
f 104/17/79 103/22/205 101/14/76
f 99/18/80 103/22/205 104/17/79
f 111/1/82 112/7/88 106/2/83
f 107/4/85 108/20/206 110/5/86
f 109/6/87 110/5/86 112/7/88
f 119/1/89 113/3/207 114/2/90
f 115/4/92 117/6/94 118/5/93
f 117/6/94 119/1/89 120/7/91
f 121/9/95 122/23/208 128/8/96
f 123/11/98 125/13/101 127/12/99
f 126/10/97 128/8/96 127/12/99
f 129/9/102 130/23/209 136/8/103
f 131/11/105 133/13/108 135/12/106
f 134/10/104 136/8/103 135/12/106
f 137/9/109 138/23/210 144/8/110
f 139/11/112 141/13/115 143/12/113
f 142/10/111 144/8/110 143/12/113
f 145/9/116 146/23/211 152/8/117
f 147/11/119 149/13/122 151/12/120
f 150/10/118 152/8/117 151/12/120
f 153/9/123 154/23/212 160/8/124
f 155/11/126 157/13/129 159/12/127
f 158/10/125 160/8/124 159/12/127
f 161/9/130 162/23/213 168/8/131
f 163/11/133 165/13/136 167/12/134
f 166/10/132 168/8/131 167/12/134
f 169/9/137 170/23/214 176/8/138
f 171/11/140 173/13/143 175/12/141
f 174/10/139 176/8/138 175/12/141
f 183/1/144 177/3/215 178/2/145
f 179/4/147 181/6/150 182/5/148
f 181/6/150 183/1/144 184/7/146
f 186/15/151 185/24/216 189/14/152
f 192/17/154 190/16/153 189/14/152
f 192/17/154 191/22/155 187/18/156
f 194/15/158 193/24/217 197/14/159
f 200/17/161 198/16/160 197/14/159
f 200/17/161 199/22/162 195/18/163
f 207/1/165 201/3/218 202/2/166
f 203/4/168 205/6/170 206/5/169
f 205/6/170 207/1/165 208/7/167
f 210/15/171 209/24/219 213/14/172
f 216/17/174 214/16/173 213/14/172
f 216/17/174 215/22/175 211/18/176
f 223/1/178 217/3/220 218/2/179
f 219/4/181 221/6/184 222/5/182
f 221/6/184 223/1/178 224/7/180
