#
#
#

mtllib SM_Grass_06.mtl


#
# Plane.970
#
g Plane.970


#
# Plane.970_Grass
#
usemtl Plane.970_Grass

v 0.074867 0.048212 0.000000
v -0.127243 -0.377057 1.083477
v 0.097841 -0.401459 1.013853
v 0.098860 0.056532 0.000000
v -0.032681 -0.159597 0.763352
v 0.242621 -0.180317 0.723808
v 0.092410 -0.024594 0.377920
v 0.114298 -0.020111 0.377328
v 0.000801 -0.125843 0.660567
v 0.171593 -0.079371 0.566707
v 0.012323 0.256156 0.262308
v 0.307615 0.333231 0.258696
v -0.114904 0.052015 -0.040163
v -0.188429 0.299555 0.222907
v -0.178164 0.593684 0.391786
v 0.268023 0.560689 0.356721
v 0.012323 0.009333 0.000000
v 0.033922 0.495871 0.373359
v 0.166485 0.052015 -0.040163
v 0.251967 0.012020 0.420194
v 0.399104 -0.349329 0.447666
v 0.107681 0.156247 -0.031079
v 0.284122 0.276410 0.390335
v 0.570123 0.303648 0.716747
v 0.625060 -0.266068 0.660576
v 0.062857 -0.014775 0.000000
v 0.498316 0.018971 0.653971
v 0.158270 -0.200787 -0.031079
v -0.149746 -0.147331 0.358180
v -0.450152 0.052754 0.370507
v 0.079336 -0.144380 -0.037584
v -0.035288 -0.363675 0.321637
v -0.271482 -0.558698 0.581238
v -0.600510 -0.144636 0.533357
v 0.022390 0.006678 0.000000
v -0.356933 -0.298406 0.538819
v -0.142678 0.103765 -0.037584
v -0.135578 0.152115 0.310904
v -0.317708 -0.097193 0.323223
v 0.042056 0.220106 -0.031004
v -0.108017 0.359874 0.280803
v -0.350394 0.445052 0.508861
v -0.493611 0.015876 0.467300
v 0.041480 0.081722 0.000000
v -0.343161 0.211111 0.470421
v -0.063191 -0.044621 -0.031004
v 0.064532 -0.081446 0.317854
v 0.336580 -0.087176 0.352210
v -0.049346 -0.095252 -0.009935
v -0.101779 -0.168505 0.308842
v -0.064249 -0.305689 0.578564
v 0.326906 -0.217197 0.536073
v 0.052273 -0.021631 0.000000
v 0.109336 -0.203399 0.517503
v 0.198371 -0.044487 -0.009935
v 0.129938 0.234051 0.251623
v 0.416645 0.201169 0.249340
v -0.050367 0.101685 -0.037346
v -0.032032 0.341433 0.215008
v 0.076595 0.594918 0.378992
v 0.458913 0.413879 0.345355
v 0.047017 0.020042 0.000000
v 0.230277 0.436484 0.360135
v 0.197734 0.005554 -0.037346
v 0.094562 0.038799 0.000000
v 0.424852 0.564949 1.004839
v 0.220188 0.647549 0.918843
v 0.069167 0.038799 0.000000
v 0.264261 0.335412 0.721582
v 0.010943 0.436218 0.662821
v 0.101842 0.180509 0.358186
v 0.079693 0.183289 0.357073
v 0.221568 0.296232 0.624282
v 0.044977 0.291095 0.529791
v -0.001540 0.018196 0.000000
v -0.271821 -0.470192 1.041177
v -0.438145 -0.321520 0.961561
v -0.012176 0.041256 0.000000
v -0.150347 -0.237316 0.741638
v -0.351694 -0.051219 0.690535
v -0.102634 -0.036448 0.367731
v -0.114503 -0.017531 0.366828
v -0.139317 -0.185214 0.641695
v -0.215005 -0.025654 0.547083
v 0.022989 0.073542 0.000000
v -0.495274 0.389633 1.013466
v -0.347173 0.553990 0.928859
v 0.045880 0.084538 0.000000
v -0.253186 0.256550 0.726424
v -0.068915 0.457973 0.669351
v -0.042341 0.192728 0.360498
v -0.023588 0.204841 0.359431
v -0.198443 0.241186 0.628485
v -0.037722 0.314440 0.533921
v 0.198922 -0.082472 0.000000
v 0.545470 -0.129490 1.128414
v 0.412161 0.060037 1.079283
v 0.176279 -0.070976 0.000000
v 0.353474 -0.152918 0.780134
v 0.179851 0.064677 0.763052
v 0.204698 -0.087177 0.385197
v 0.186305 -0.074480 0.385197
v 0.315313 -0.133776 0.675242
v 0.171593 -0.026770 0.585611
v 0.000154 -0.002438 0.000000
v 0.116696 -0.311492 1.134253
v 0.151716 -0.080344 1.096171
v -0.008652 0.021381 0.000000
v -0.007112 -0.186046 0.776977
v 0.014374 0.091968 0.771460
v -0.034733 -0.023096 0.383130
v -0.039617 -0.001288 0.383427
v -0.012322 -0.142456 0.672584
v -0.036862 0.036743 0.586417
v 0.074867 0.048212 0.000000
v -0.127243 -0.377057 1.083477
v 0.097841 -0.401459 1.013853
v 0.098860 0.056532 0.000000
v -0.032681 -0.159597 0.763352
v 0.242621 -0.180317 0.723808
v 0.092410 -0.024594 0.377920
v 0.114298 -0.020111 0.377328
v 0.000801 -0.125843 0.660567
v 0.171593 -0.079371 0.566707
v 0.012323 0.256156 0.262308
v 0.307615 0.333231 0.258696
v -0.114904 0.052015 -0.040163
v -0.188429 0.299555 0.222907
v -0.178164 0.593684 0.391786
v 0.268023 0.560689 0.356721
v 0.012323 0.009333 0.000000
v 0.033922 0.495871 0.373359
v 0.166485 0.052015 -0.040163
v 0.251967 0.012020 0.420194
v 0.399104 -0.349329 0.447666
v 0.107681 0.156247 -0.031079
v 0.284122 0.276410 0.390335
v 0.570123 0.303648 0.716747
v 0.625060 -0.266068 0.660576
v 0.062857 -0.014775 0.000000
v 0.498316 0.018971 0.653971
v 0.158270 -0.200787 -0.031079
v -0.149746 -0.147331 0.358180
v -0.450152 0.052754 0.370507
v 0.079336 -0.144380 -0.037584
v -0.035288 -0.363675 0.321637
v -0.271482 -0.558698 0.581238
v -0.600510 -0.144636 0.533357
v 0.022390 0.006678 0.000000
v -0.356933 -0.298406 0.538819
v -0.142678 0.103765 -0.037584
v -0.135578 0.152115 0.310904
v -0.317708 -0.097193 0.323223
v 0.042056 0.220106 -0.031004
v -0.108017 0.359874 0.280803
v -0.350394 0.445052 0.508861
v -0.493611 0.015876 0.467300
v 0.041480 0.081722 0.000000
v -0.343161 0.211111 0.470421
v -0.063191 -0.044621 -0.031004
v 0.064532 -0.081446 0.317854
v 0.336580 -0.087176 0.352210
v -0.049346 -0.095252 -0.009935
v -0.101779 -0.168505 0.308842
v -0.064249 -0.305689 0.578564
v 0.326906 -0.217197 0.536073
v 0.052273 -0.021631 0.000000
v 0.109336 -0.203399 0.517503
v 0.198371 -0.044487 -0.009935
v 0.129938 0.234051 0.251623
v 0.416645 0.201169 0.249340
v -0.050367 0.101685 -0.037346
v -0.032032 0.341433 0.215008
v 0.076595 0.594918 0.378992
v 0.458913 0.413879 0.345355
v 0.047017 0.020042 0.000000
v 0.230277 0.436484 0.360135
v 0.197734 0.005554 -0.037346
v 0.094562 0.038799 0.000000
v 0.424852 0.564949 1.004839
v 0.220188 0.647549 0.918843
v 0.069167 0.038799 0.000000
v 0.264261 0.335412 0.721582
v 0.010943 0.436218 0.662821
v 0.101842 0.180509 0.358186
v 0.079693 0.183289 0.357073
v 0.221568 0.296232 0.624282
v 0.044977 0.291095 0.529791
v -0.001540 0.018196 0.000000
v -0.271821 -0.470192 1.041177
v -0.438145 -0.321520 0.961561
v -0.012176 0.041256 0.000000
v -0.150347 -0.237316 0.741638
v -0.351694 -0.051219 0.690535
v -0.102634 -0.036448 0.367731
v -0.114503 -0.017531 0.366828
v -0.139317 -0.185214 0.641695
v -0.215005 -0.025654 0.547083
v 0.022989 0.073542 0.000000
v -0.495274 0.389633 1.013466
v -0.347173 0.553990 0.928859
v 0.045880 0.084538 0.000000
v -0.253186 0.256550 0.726424
v -0.068915 0.457973 0.669351
v -0.042341 0.192728 0.360498
v -0.023588 0.204841 0.359431
v -0.198443 0.241186 0.628485
v -0.037722 0.314440 0.533921
v 0.198922 -0.082472 0.000000
v 0.545470 -0.129490 1.128414
v 0.412161 0.060037 1.079283
v 0.176279 -0.070976 0.000000
v 0.353474 -0.152918 0.780134
v 0.179851 0.064677 0.763052
v 0.204698 -0.087177 0.385197
v 0.186305 -0.074480 0.385197
v 0.315313 -0.133776 0.675242
v 0.171593 -0.026770 0.585611
v 0.000154 -0.002438 0.000000
v 0.116696 -0.311492 1.134253
v 0.151716 -0.080344 1.096171
v -0.008652 0.021381 0.000000
v -0.007112 -0.186046 0.776977
v 0.014374 0.091968 0.771460
v -0.034733 -0.023096 0.383130
v -0.039617 -0.001288 0.383427
v -0.012322 -0.142456 0.672584
v -0.036862 0.036743 0.586417
vn 0.164176 0.832917 0.528485
vn 0.225233 0.756925 0.613461
vn 0.111044 0.825037 0.554061
vn 0.054723 0.919639 0.388934
vn -0.028801 0.913136 0.406636
vn -0.316337 0.927123 0.200931
vn -0.188523 0.943313 0.273167
vn -0.320947 0.925497 0.201118
vn -0.167493 0.947647 0.271868
vn 0.297173 -0.714334 0.633573
vn -0.054093 -0.614776 0.786845
vn -0.034184 -0.727851 0.684883
vn 0.172990 -0.555576 0.813271
vn -0.025983 -0.433133 0.900955
vn -0.247968 -0.583797 0.773106
vn -0.150517 -0.488299 0.859598
vn -0.375425 -0.687329 0.621799
vn -0.830093 -0.417759 0.369355
vn -0.835006 -0.063680 0.546544
vn -0.905631 -0.093795 0.413564
vn -0.756103 -0.281851 0.590650
vn -0.697260 -0.072553 0.713137
vn -0.828784 0.133013 0.543530
vn -0.753228 0.045294 0.656199
vn -0.895384 0.252306 0.366919
vn 0.410972 0.766448 0.493619
vn 0.592923 0.457902 0.662396
vn 0.648750 0.534566 0.541629
vn 0.401690 0.591512 0.699113
vn 0.456463 0.373531 0.807537
vn 0.697634 0.291442 0.654499
vn 0.574345 0.311898 0.756867
vn 0.838063 0.246059 0.486935
vn -0.660038 0.582208 -0.474745
vn -0.728255 0.231320 -0.645086
vn -0.804467 0.283044 -0.522225
vn -0.595507 0.422914 -0.683019
vn -0.574222 0.200331 -0.793811
vn -0.769096 0.038922 -0.637947
vn -0.662588 0.101448 -0.742082
vn -0.881728 -0.053460 -0.468720
vn -0.101892 -0.983046 -0.152446
vn 0.241824 -0.910582 -0.335203
vn 0.230528 -0.954626 -0.188536
vn 0.012170 -0.921062 -0.389226
vn 0.195762 -0.825828 -0.528853
vn 0.425023 -0.838823 -0.340193
vn 0.322666 -0.824764 -0.464382
vn 0.551168 -0.819497 -0.156967
vn 0.015494 -0.782537 0.622411
vn -0.276939 -0.565022 0.777210
vn -0.298651 -0.676165 0.673505
vn -0.043957 -0.592254 0.804551
vn -0.185749 -0.407477 0.894126
vn -0.446450 -0.465895 0.763953
vn -0.321568 -0.413318 0.851917
vn -0.601850 -0.514184 0.611058
vn -0.428012 -0.625381 0.652461
vn -0.460800 -0.519713 0.719417
vn -0.375232 -0.630549 0.679418
vn -0.353015 -0.766491 0.536537
vn -0.271971 -0.784158 0.557788
vn -0.004889 -0.927042 0.374925
vn -0.130952 -0.887824 0.441157
vn 0.000000 -0.926983 0.375105
vn -0.152242 -0.885310 0.439373
vn -0.431108 -0.670180 -0.604156
vn -0.326208 -0.657906 -0.678784
vn -0.459714 -0.625250 -0.630655
vn -0.582475 -0.657404 -0.478062
vn -0.633851 -0.591851 -0.497941
vn -0.862754 -0.403305 -0.304960
vn -0.778914 -0.503461 -0.373925
vn -0.864760 -0.398847 -0.305144
vn -0.767600 -0.521688 -0.372333
vn -0.661269 0.388104 -0.641949
vn -0.645559 0.279678 -0.710657
vn -0.616126 0.416022 -0.668816
vn -0.653924 0.546016 -0.523690
vn -0.588673 0.597350 -0.544644
vn -0.408468 0.839027 -0.359426
vn -0.505600 0.750090 -0.426301
vn -0.404037 0.841093 -0.359607
vn -0.523689 0.738579 -0.424560
vn -0.754251 -0.540169 0.373260
vn -0.750346 -0.460048 0.474696
vn -0.713897 -0.577275 0.396365
vn -0.727175 -0.652507 0.213191
vn -0.665911 -0.710863 0.226353
vn -0.457042 -0.889439 0.003482
vn -0.564111 -0.821858 0.079546
vn -0.452688 -0.891662 0.003671
vn -0.581737 -0.809548 0.078825
vn -0.951432 0.104604 0.289544
vn -0.903937 0.157119 0.397758
vn -0.949117 0.049189 0.311060
vn -0.992544 0.009449 0.121525
vn -0.988350 -0.075405 0.132205
vn -0.935314 -0.340547 -0.095994
vn -0.975118 -0.220860 -0.019135
vn -0.933647 -0.345143 -0.095807
vn -0.979635 -0.199832 -0.019555
vn -0.225232 -0.756925 -0.613461
vn -0.164176 -0.832917 -0.528485
vn -0.111044 -0.825037 -0.554061
vn -0.054723 -0.919639 -0.388934
vn 0.028801 -0.913136 -0.406636
vn 0.188523 -0.943313 -0.273167
vn 0.316337 -0.927123 -0.200931
vn 0.320947 -0.925497 -0.201118
vn 0.167493 -0.947647 -0.271868
vn 0.054093 0.614776 -0.786845
vn -0.297173 0.714334 -0.633573
vn 0.034184 0.727851 -0.684883
vn 0.025983 0.433133 -0.900955
vn -0.172990 0.555576 -0.813271
vn 0.247968 0.583797 -0.773106
vn 0.375425 0.687329 -0.621799
vn 0.835006 0.063680 -0.546544
vn 0.830093 0.417759 -0.369355
vn 0.905631 0.093795 -0.413564
vn 0.697260 0.072553 -0.713137
vn 0.756103 0.281851 -0.590650
vn 0.828784 -0.133013 -0.543530
vn 0.895384 -0.252306 -0.366919
vn -0.592922 -0.457902 -0.662396
vn -0.410972 -0.766448 -0.493619
vn -0.648750 -0.534566 -0.541629
vn -0.456463 -0.373531 -0.807537
vn -0.401690 -0.591511 -0.699113
vn -0.697634 -0.291442 -0.654499
vn -0.838063 -0.246059 -0.486935
vn 0.728255 -0.231320 0.645086
vn 0.660039 -0.582208 0.474745
vn 0.804467 -0.283044 0.522225
vn 0.574222 -0.200331 0.793811
vn 0.595507 -0.422914 0.683019
vn 0.769096 -0.038922 0.637947
vn 0.881728 0.053460 0.468720
vn -0.241824 0.910582 0.335203
vn 0.101892 0.983046 0.152446
vn -0.230528 0.954626 0.188537
vn -0.195762 0.825828 0.528853
vn -0.012170 0.921062 0.389226
vn -0.425023 0.838823 0.340193
vn -0.551168 0.819497 0.156967
vn 0.276939 0.565022 -0.777210
vn -0.015494 0.782537 -0.622411
vn 0.298651 0.676165 -0.673505
vn 0.185749 0.407477 -0.894126
vn 0.043957 0.592254 -0.804551
vn 0.446450 0.465895 -0.763953
vn 0.601850 0.514184 -0.611058
vn 0.460800 0.519713 -0.719418
vn 0.428012 0.625381 -0.652461
vn 0.375232 0.630549 -0.679418
vn 0.353015 0.766491 -0.536537
vn 0.271971 0.784158 -0.557788
vn 0.130952 0.887824 -0.441157
vn 0.004889 0.927042 -0.374925
vn 0.000000 0.926983 -0.375105
vn 0.152242 0.885310 -0.439373
vn 0.326208 0.657906 0.678785
vn 0.431108 0.670180 0.604156
vn 0.459714 0.625250 0.630655
vn 0.582475 0.657404 0.478062
vn 0.633851 0.591851 0.497941
vn 0.778914 0.503461 0.373925
vn 0.862754 0.403305 0.304960
vn 0.864760 0.398847 0.305144
vn 0.767600 0.521688 0.372333
vn 0.645559 -0.279678 0.710657
vn 0.661269 -0.388104 0.641949
vn 0.616126 -0.416022 0.668816
vn 0.653924 -0.546016 0.523690
vn 0.588673 -0.597350 0.544644
vn 0.505600 -0.750090 0.426301
vn 0.408468 -0.839027 0.359426
vn 0.404037 -0.841093 0.359606
vn 0.523689 -0.738579 0.424560
vn 0.750346 0.460048 -0.474696
vn 0.754251 0.540169 -0.373260
vn 0.713897 0.577275 -0.396365
vn 0.727175 0.652507 -0.213191
vn 0.665912 0.710863 -0.226353
vn 0.564111 0.821858 -0.079546
vn 0.457042 0.889439 -0.003482
vn 0.452688 0.891662 -0.003671
vn 0.581738 0.809548 -0.078824
vn 0.903937 -0.157119 -0.397758
vn 0.951432 -0.104604 -0.289544
vn 0.949117 -0.049189 -0.311060
vn 0.992543 -0.009449 -0.121525
vn 0.988350 0.075405 -0.132205
vn 0.975118 0.220860 0.019135
vn 0.935314 0.340547 0.095994
vn 0.933647 0.345143 0.095807
vn 0.979635 0.199832 0.019555
vn 0.266091 0.759026 0.594202
vn 0.166340 -0.365695 0.915750
vn -0.611799 -0.254689 0.748889
vn 0.280799 0.474428 0.834308
vn -0.444618 0.355770 -0.822035
vn -0.002489 -0.816411 -0.577466
vn 0.017862 -0.414301 0.909965
vn -0.500091 -0.511986 0.698412
vn -0.301337 -0.689703 -0.658412
vn -0.677478 0.255385 -0.689784
vn -0.778599 -0.428903 0.458068
vn -0.902027 0.199714 0.382702
vn -0.266090 -0.759026 -0.594202
vn -0.166340 0.365695 -0.915750
vn 0.150517 0.488299 -0.859598
vn 0.611799 0.254689 -0.748889
vn 0.753228 -0.045294 -0.656199
vn -0.280799 -0.474428 -0.834308
vn -0.574345 -0.311898 -0.756867
vn 0.444619 -0.355770 0.822035
vn 0.662588 -0.101448 0.742082
vn 0.002489 0.816411 0.577466
vn -0.322666 0.824764 0.464382
vn -0.017862 0.414301 -0.909965
vn 0.321568 0.413318 -0.851917
vn 0.500090 0.511986 -0.698412
vn 0.301336 0.689703 0.658412
vn 0.677478 -0.255385 0.689784
vn 0.778599 0.428903 -0.458067
vn 0.902027 -0.199714 -0.382702
vt 0.966087 0.395056
vt 0.885012 0.567724
vt 0.826987 0.385197
vt 0.945325 0.339787
vt 0.856717 0.293059
vt 0.883817 0.000000
vt 0.876335 0.192598
vt 0.871120 0.000000
vt 0.887510 0.192598
vt 0.224508 0.382353
vt 0.124107 0.616924
vt 0.124107 0.382353
vt 0.316422 0.649610
vt 0.138174 0.799101
vt -0.001537 0.616435
vt 0.000049 0.851494
vt 0.041248 0.382353
vt 0.124107 0.616924
vt 1.000000 0.596082
vt 0.290636 0.820137
f 5/1/1 3/2/2 6/3/3
f 9/4/4 6/3/3 10/5/5
f 1/6/6 8/7/7 4/8/8
f 7/9/9 10/5/5 8/7/7
f 19/10/10 11/11/11 17/12/12
f 12/13/13 18/14/14 11/11/11
f 14/15/15 18/14/14 15/16/16
f 13/17/17 11/11/11 14/15/15
f 28/10/18 20/11/19 26/12/20
f 21/13/21 27/14/22 20/11/19
f 23/15/23 27/14/22 24/16/24
f 22/17/25 20/11/19 23/15/23
f 37/10/26 29/11/27 35/12/28
f 30/13/29 36/14/30 29/11/27
f 32/15/31 36/14/30 33/16/32
f 31/17/33 29/11/27 32/15/31
f 46/10/34 38/11/35 44/12/36
f 39/13/37 45/14/38 38/11/35
f 41/15/39 45/14/38 42/16/40
f 40/17/41 38/11/35 41/15/39
f 55/10/42 47/11/43 53/12/44
f 48/13/45 54/14/46 47/11/43
f 50/15/47 54/14/46 51/16/48
f 49/17/49 47/11/43 50/15/47
f 64/10/50 56/11/51 62/12/52
f 57/13/53 63/14/54 56/11/51
f 59/15/55 63/14/54 60/16/56
f 58/17/57 56/11/51 59/15/55
f 69/1/58 67/2/59 70/3/60
f 73/4/61 70/3/60 74/5/62
f 65/6/63 72/7/64 68/8/65
f 71/9/66 74/5/62 72/7/64
f 79/1/67 77/2/68 80/3/69
f 83/4/70 80/3/69 84/5/71
f 75/6/72 82/7/73 78/8/74
f 81/9/75 84/5/71 82/7/73
f 89/1/76 87/2/77 90/3/78
f 93/4/79 90/3/78 94/5/80
f 85/6/81 92/7/82 88/8/83
f 91/9/84 94/5/80 92/7/82
f 99/1/85 97/2/86 100/3/87
f 103/4/88 100/3/87 104/5/89
f 95/6/90 102/7/91 98/8/92
f 101/9/93 104/5/89 102/7/91
f 109/1/94 107/2/95 110/3/96
f 113/4/97 110/3/96 114/5/98
f 105/6/99 112/7/100 108/8/101
f 111/9/102 114/5/98 112/7/100
f 117/2/103 119/1/104 120/3/105
f 120/3/105 123/4/106 124/5/107
f 122/7/108 115/6/109 118/8/110
f 124/5/107 121/9/111 122/7/108
f 125/11/112 133/10/113 131/12/114
f 132/14/115 126/13/116 125/11/112
f 128/15/117 132/14/115 125/18/112
f 127/17/118 125/11/112 131/12/114
f 134/11/119 142/10/120 140/12/121
f 141/14/122 135/13/123 134/11/119
f 137/15/124 141/14/122 134/18/119
f 136/17/125 134/11/119 140/12/121
f 143/11/126 151/10/127 149/12/128
f 150/14/129 144/13/130 143/11/126
f 146/15/131 150/14/129 143/18/126
f 145/17/132 143/11/126 149/12/128
f 152/11/133 160/10/134 158/12/135
f 159/14/136 153/13/137 152/11/133
f 155/15/138 159/14/136 152/18/133
f 154/17/139 152/11/133 158/12/135
f 161/11/140 169/10/141 167/12/142
f 168/14/143 162/13/144 161/11/140
f 164/15/145 168/14/143 161/18/140
f 163/17/146 161/11/140 167/12/142
f 170/11/147 178/10/148 176/12/149
f 177/14/150 171/13/151 170/11/147
f 173/15/152 177/14/150 170/18/147
f 172/17/153 170/11/147 176/12/149
f 181/2/154 183/1/155 184/3/156
f 184/3/156 187/4/157 188/5/158
f 186/7/159 179/6/160 182/8/161
f 188/5/158 185/9/162 186/7/159
f 191/2/163 193/1/164 194/3/165
f 194/3/165 197/4/166 198/5/167
f 196/7/168 189/6/169 192/8/170
f 198/5/167 195/9/171 196/7/168
f 201/2/172 203/1/173 204/3/174
f 204/3/174 207/4/175 208/5/176
f 206/7/177 199/6/178 202/8/179
f 208/5/176 205/9/180 206/7/177
f 211/2/181 213/1/182 214/3/183
f 214/3/183 217/4/184 218/5/185
f 216/7/186 209/6/187 212/8/188
f 218/5/185 215/9/189 216/7/186
f 221/2/190 223/1/191 224/3/192
f 224/3/192 227/4/193 228/5/194
f 226/7/195 219/6/196 222/8/197
f 228/5/194 225/9/198 226/7/195
f 5/1/1 2/19/199 3/2/2
f 9/4/4 5/1/1 6/3/3
f 1/6/6 7/9/9 8/7/7
f 7/9/9 9/4/4 10/5/5
f 19/10/10 12/13/13 11/11/11
f 12/13/13 16/20/200 18/14/14
f 14/15/15 11/18/11 18/14/14
f 13/17/17 17/12/12 11/11/11
f 28/10/18 21/13/21 20/11/19
f 21/13/21 25/20/201 27/14/22
f 23/15/23 20/18/19 27/14/22
f 22/17/25 26/12/20 20/11/19
f 37/10/26 30/13/29 29/11/27
f 30/13/29 34/20/202 36/14/30
f 32/15/31 29/18/27 36/14/30
f 31/17/33 35/12/28 29/11/27
f 46/10/34 39/13/37 38/11/35
f 39/13/37 43/20/203 45/14/38
f 41/15/39 38/18/35 45/14/38
f 40/17/41 44/12/36 38/11/35
f 55/10/42 48/13/45 47/11/43
f 48/13/45 52/20/204 54/14/46
f 50/15/47 47/18/43 54/14/46
f 49/17/49 53/12/44 47/11/43
f 64/10/50 57/13/53 56/11/51
f 57/13/53 61/20/205 63/14/54
f 59/15/55 56/18/51 63/14/54
f 58/17/57 62/12/52 56/11/51
f 69/1/58 66/19/206 67/2/59
f 73/4/61 69/1/58 70/3/60
f 65/6/63 71/9/66 72/7/64
f 71/9/66 73/4/61 74/5/62
f 79/1/67 76/19/207 77/2/68
f 83/4/70 79/1/67 80/3/69
f 75/6/72 81/9/75 82/7/73
f 81/9/75 83/4/70 84/5/71
f 89/1/76 86/19/208 87/2/77
f 93/4/79 89/1/76 90/3/78
f 85/6/81 91/9/84 92/7/82
f 91/9/84 93/4/79 94/5/80
f 99/1/85 96/19/209 97/2/86
f 103/4/88 99/1/85 100/3/87
f 95/6/90 101/9/93 102/7/91
f 101/9/93 103/4/88 104/5/89
f 109/1/94 106/19/210 107/2/95
f 113/4/97 109/1/94 110/3/96
f 105/6/99 111/9/102 112/7/100
f 111/9/102 113/4/97 114/5/98
f 117/2/103 116/19/211 119/1/104
f 120/3/105 119/1/104 123/4/106
f 122/7/108 121/9/111 115/6/109
f 124/5/107 123/4/106 121/9/111
f 125/11/112 126/13/116 133/10/113
f 132/14/115 130/20/212 126/13/116
f 128/15/117 129/16/213 132/14/115
f 127/17/118 128/15/117 125/11/112
f 134/11/119 135/13/123 142/10/120
f 141/14/122 139/20/214 135/13/123
f 137/15/124 138/16/215 141/14/122
f 136/17/125 137/15/124 134/11/119
f 143/11/126 144/13/130 151/10/127
f 150/14/129 148/20/216 144/13/130
f 146/15/131 147/16/217 150/14/129
f 145/17/132 146/15/131 143/11/126
f 152/11/133 153/13/137 160/10/134
f 159/14/136 157/20/218 153/13/137
f 155/15/138 156/16/219 159/14/136
f 154/17/139 155/15/138 152/11/133
f 161/11/140 162/13/144 169/10/141
f 168/14/143 166/20/220 162/13/144
f 164/15/145 165/16/221 168/14/143
f 163/17/146 164/15/145 161/11/140
f 170/11/147 171/13/151 178/10/148
f 177/14/150 175/20/222 171/13/151
f 173/15/152 174/16/223 177/14/150
f 172/17/153 173/15/152 170/11/147
f 181/2/154 180/19/224 183/1/155
f 184/3/156 183/1/155 187/4/157
f 186/7/159 185/9/162 179/6/160
f 188/5/158 187/4/157 185/9/162
f 191/2/163 190/19/225 193/1/164
f 194/3/165 193/1/164 197/4/166
f 196/7/168 195/9/171 189/6/169
f 198/5/167 197/4/166 195/9/171
f 201/2/172 200/19/226 203/1/173
f 204/3/174 203/1/173 207/4/175
f 206/7/177 205/9/180 199/6/178
f 208/5/176 207/4/175 205/9/180
f 211/2/181 210/19/227 213/1/182
f 214/3/183 213/1/182 217/4/184
f 216/7/186 215/9/189 209/6/187
f 218/5/185 217/4/184 215/9/189
f 221/2/190 220/19/228 223/1/191
f 224/3/192 223/1/191 227/4/193
f 226/7/195 225/9/198 219/6/196
f 228/5/194 227/4/193 225/9/198
