#
#
#

mtllib SM_Grass_04.mtl


#
# Plane.950
#
g Plane.950


#
# Plane.950_Grass
#
usemtl Plane.950_Grass

v 0.431973 -0.129705 0.950585
v 0.423764 -0.171355 0.931987
v 0.074892 0.017306 0.000000
v 0.072497 -0.006668 0.000000
v 0.127259 0.029203 0.204133
v 0.294460 0.010352 0.665210
v 0.123931 0.002072 0.201292
v 0.284974 -0.040858 0.645136
v -0.138055 0.369664 0.965653
v -0.105483 0.396779 0.946899
v 0.011262 0.056694 0.000000
v 0.028553 0.073473 0.000000
v -0.030270 0.075021 0.206140
v -0.131946 0.182873 0.674043
v -0.010315 0.093699 0.203275
v -0.092277 0.216519 0.653799
v -0.356931 -0.240836 0.935412
v -0.386803 -0.210569 0.916985
v -0.015014 0.005801 0.000000
v -0.033749 0.020950 0.000000
v -0.038771 -0.050684 0.201989
v -0.157466 -0.194069 0.656143
v -0.059565 -0.032937 0.199174
v -0.194597 -0.157447 0.636253
v -0.119490 -0.164651 1.007362
v -0.158322 -0.147982 0.988332
v 0.045531 -0.061104 0.000000
v 0.023391 -0.051599 0.000000
v 0.058610 -0.073841 0.210288
v 0.030295 -0.134377 0.696536
v 0.033498 -0.063061 0.207381
v -0.017397 -0.113904 0.675996
v 0.205669 0.268562 0.987952
v 0.179889 0.302093 0.969005
v 0.061915 0.031879 0.000000
v 0.048046 0.051581 0.000000
v 0.093141 0.033018 0.208753
v 0.183491 0.099234 0.686620
v 0.077189 0.055208 0.205859
v 0.152045 0.140567 0.666169
v 0.051510 -0.287460 0.981740
v 0.091292 -0.301887 0.962841
v 0.057404 0.010674 0.000000
v 0.079591 0.001281 0.000000
v 0.029597 -0.011294 0.208083
v -0.016440 -0.125536 0.683197
v 0.054895 -0.021634 0.205196
v 0.032289 -0.143558 0.662797
v 0.069404 0.317718 0.991286
v 0.033324 0.339772 0.972318
v 0.029085 0.056073 0.000000
v 0.008994 0.069371 0.000000
v 0.056196 0.066155 0.209088
v 0.112663 0.155340 0.688422
v 0.033280 0.081044 0.206190
v 0.068476 0.182614 0.667947
v -0.285873 0.237500 0.970286
v -0.322268 0.215822 0.951487
v -0.045182 0.006535 0.000000
v -0.066691 -0.004321 0.000000
v -0.047588 0.049122 0.206724
v -0.113238 0.174435 0.676714
v -0.071780 0.036405 0.203853
v -0.158134 0.148203 0.656422
v -0.007618 -0.169474 0.503923
v -0.013300 -0.169369 0.503923
v -0.009697 -0.049303 0.000000
v -0.034247 -0.048846 0.000000
v -0.027253 -0.155590 0.340541
v -0.047140 -0.155220 0.340541
v -0.002870 -0.067300 0.192355
v -0.021941 -0.066945 0.192355
v -0.109672 0.356944 0.670936
v -0.000806 0.070447 0.000000
v 0.022242 0.080458 0.000000
v -0.122778 0.351251 0.670936
v -0.010116 0.147288 0.270303
v -0.052914 0.241550 0.503507
v -0.026296 0.140260 0.270303
v -0.069421 0.234379 0.503507
v 0.186907 0.307000 0.657911
v 0.062688 0.089836 0.000000
v 0.084120 0.079083 0.000000
v 0.174720 0.313115 0.657911
v 0.105661 0.128510 0.261999
v 0.141910 0.204374 0.490495
v 0.090615 0.136059 0.261999
v 0.126560 0.212076 0.490495
v 0.199728 -0.102097 0.511932
v 0.196116 -0.106671 0.511932
v 0.085581 -0.017583 0.000000
v 0.069974 -0.037344 0.000000
v 0.171414 -0.105728 0.345001
v 0.158772 -0.121735 0.345001
v 0.110153 -0.027633 0.196459
v 0.098030 -0.042983 0.196459
v 0.241150 0.063013 0.372385
v 0.084315 0.038797 0.000000
v 0.087090 0.025289 0.000000
v 0.239572 0.070694 0.372385
v 0.122889 0.034354 0.149332
v 0.175105 0.046035 0.278724
v 0.120941 0.043837 0.149332
v 0.173118 0.055709 0.278724
v -0.202620 0.014080 0.680350
v -0.201792 0.021732 0.680350
v -0.031772 0.001479 0.000000
v -0.028197 0.034539 0.000000
v -0.178766 0.038594 0.459334
v -0.175869 0.065375 0.459334
v -0.060119 -0.005209 0.260175
v -0.057341 0.020472 0.260175
v 0.431973 -0.129705 0.950585
v 0.423764 -0.171355 0.931987
v 0.074892 0.017306 0.000000
v 0.072497 -0.006668 0.000000
v 0.127259 0.029203 0.204133
v 0.294460 0.010352 0.665210
v 0.123931 0.002072 0.201292
v 0.284974 -0.040858 0.645136
v -0.138055 0.369664 0.965653
v -0.105483 0.396779 0.946899
v 0.011262 0.056694 0.000000
v 0.028553 0.073473 0.000000
v -0.030270 0.075021 0.206140
v -0.131946 0.182873 0.674043
v -0.010315 0.093699 0.203275
v -0.092277 0.216519 0.653799
v -0.356931 -0.240836 0.935412
v -0.386803 -0.210569 0.916985
v -0.015014 0.005801 0.000000
v -0.033749 0.020950 0.000000
v -0.038771 -0.050684 0.201989
v -0.157466 -0.194069 0.656143
v -0.059565 -0.032937 0.199174
v -0.194597 -0.157447 0.636253
v -0.119490 -0.164651 1.007362
v -0.158322 -0.147982 0.988332
v 0.045531 -0.061104 0.000000
v 0.023391 -0.051599 0.000000
v 0.058610 -0.073841 0.210288
v 0.030295 -0.134377 0.696536
v 0.033498 -0.063061 0.207381
v -0.017397 -0.113904 0.675996
v 0.205669 0.268562 0.987952
v 0.179889 0.302093 0.969005
v 0.061915 0.031879 0.000000
v 0.048046 0.051581 0.000000
v 0.093141 0.033018 0.208753
v 0.183491 0.099234 0.686620
v 0.077189 0.055208 0.205859
v 0.152045 0.140567 0.666169
v 0.051510 -0.287460 0.981740
v 0.091292 -0.301887 0.962841
v 0.057404 0.010674 0.000000
v 0.079591 0.001281 0.000000
v 0.029597 -0.011294 0.208083
v -0.016440 -0.125536 0.683197
v 0.054895 -0.021634 0.205196
v 0.032289 -0.143558 0.662797
v 0.069404 0.317718 0.991286
v 0.033324 0.339772 0.972318
v 0.029085 0.056073 0.000000
v 0.008994 0.069371 0.000000
v 0.056196 0.066155 0.209088
v 0.112663 0.155340 0.688422
v 0.033280 0.081044 0.206190
v 0.068476 0.182614 0.667947
v -0.285873 0.237500 0.970286
v -0.322268 0.215822 0.951487
v -0.045182 0.006535 0.000000
v -0.066691 -0.004321 0.000000
v -0.047588 0.049122 0.206724
v -0.113238 0.174435 0.676714
v -0.071780 0.036405 0.203853
v -0.158134 0.148203 0.656422
v -0.007618 -0.169474 0.503923
v -0.013300 -0.169369 0.503923
v -0.009697 -0.049303 0.000000
v -0.034247 -0.048846 0.000000
v -0.027253 -0.155590 0.340541
v -0.047140 -0.155220 0.340541
v -0.002870 -0.067300 0.192355
v -0.021941 -0.066945 0.192355
v -0.109672 0.356944 0.670936
v -0.000806 0.070447 0.000000
v 0.022242 0.080458 0.000000
v -0.122778 0.351251 0.670936
v -0.010116 0.147288 0.270303
v -0.052914 0.241550 0.503507
v -0.026296 0.140260 0.270303
v -0.069421 0.234379 0.503507
v 0.186907 0.307000 0.657911
v 0.062688 0.089836 0.000000
v 0.084120 0.079083 0.000000
v 0.174720 0.313115 0.657911
v 0.105661 0.128510 0.261999
v 0.141910 0.204374 0.490495
v 0.090615 0.136059 0.261999
v 0.126560 0.212076 0.490495
v 0.199728 -0.102097 0.511932
v 0.196116 -0.106671 0.511932
v 0.085581 -0.017583 0.000000
v 0.069974 -0.037344 0.000000
v 0.171414 -0.105728 0.345001
v 0.158772 -0.121735 0.345001
v 0.110153 -0.027633 0.196459
v 0.098030 -0.042983 0.196459
v 0.241150 0.063013 0.372385
v 0.084315 0.038797 0.000000
v 0.087090 0.025289 0.000000
v 0.239572 0.070694 0.372385
v 0.122889 0.034354 0.149332
v 0.175105 0.046035 0.278724
v 0.120941 0.043837 0.149332
v 0.173118 0.055709 0.278724
v -0.202620 0.014080 0.680350
v -0.201792 0.021732 0.680350
v -0.031772 0.001479 0.000000
v -0.028197 0.034539 0.000000
v -0.178766 0.038594 0.459334
v -0.175869 0.065375 0.459334
v -0.060119 -0.005209 0.260175
v -0.057341 0.020472 0.260175
vn 0.918768 -0.014929 -0.394515
vn 0.903090 0.012397 -0.429271
vn 0.922965 -0.021014 -0.384311
vn 0.965383 -0.096160 -0.242465
vn 0.952675 -0.086482 -0.291431
vn 0.965354 -0.096422 -0.242478
vn 0.950342 -0.083780 -0.299719
vn -0.703823 0.615508 -0.354659
vn -0.710520 0.585599 -0.390174
vn -0.702797 0.622545 -0.344259
vn -0.682463 0.702910 -0.200403
vn -0.680472 0.688842 -0.249911
vn -0.682272 0.703092 -0.200416
vn -0.680682 0.685531 -0.258302
vn -0.506185 -0.747594 -0.429978
vn -0.473890 -0.748424 -0.463993
vn -0.513822 -0.748073 -0.419968
vn -0.603383 -0.746615 -0.280171
vn -0.587124 -0.739816 -0.328569
vn -0.603585 -0.746446 -0.280184
vn -0.583383 -0.739097 -0.336749
vn -0.315714 -0.929295 -0.191664
vn -0.288002 -0.929720 -0.229512
vn -0.321885 -0.929379 -0.180679
vn -0.394025 -0.918559 -0.031531
vn -0.385180 -0.919167 -0.082269
vn -0.394267 -0.918455 -0.031544
vn -0.382616 -0.919423 -0.090916
vn -0.825963 -0.487908 0.282367
vn -0.829240 -0.458868 0.319063
vn -0.825602 -0.494549 0.271665
vn -0.811472 -0.570887 0.124903
vn -0.810021 -0.559634 0.175144
vn -0.811319 -0.571102 0.124916
vn -0.810142 -0.556715 0.183681
vn 0.440507 0.844469 0.304674
vn 0.458308 0.820763 0.341031
vn 0.436788 0.850145 0.294057
vn 0.385774 0.910630 0.148094
vn 0.390034 0.899229 0.198141
vn 0.385531 0.910731 0.148107
vn 0.391602 0.896631 0.206639
vn -0.593617 -0.758302 0.269437
vn -0.607519 -0.732863 0.306319
vn -0.590784 -0.764235 0.258689
vn -0.548728 -0.828532 0.111503
vn -0.551850 -0.818088 0.161843
vn -0.548508 -0.828676 0.111516
vn -0.553090 -0.815509 0.170401
vn 0.353911 -0.870821 0.341200
vn 0.323689 -0.867832 0.376954
vn 0.360830 -0.872017 0.330738
vn 0.442491 -0.877214 0.186271
vn 0.430169 -0.871371 0.235938
vn 0.442725 -0.877094 0.186283
vn 0.427025 -0.870596 0.244361
vn 0.017700 0.951642 0.306698
vn 0.018534 0.996423 0.082449
vn 0.018534 0.996423 0.082449
vn 0.017648 0.948808 0.315361
vn 0.017717 0.952506 0.304006
vn 0.018517 0.995542 0.092489
vn 0.342366 -0.788200 0.511397
vn 0.316097 -0.727712 0.608702
vn 0.316097 -0.727712 0.608702
vn 0.384197 -0.884500 0.264674
vn 0.375250 -0.863901 0.335952
vn 0.384197 -0.884500 0.264674
vn 0.342790 -0.789176 0.509605
vn -0.399515 -0.796229 0.454322
vn -0.372845 -0.743077 0.555719
vn -0.372845 -0.743077 0.555719
vn -0.439293 -0.875503 0.201284
vn -0.431326 -0.859623 0.273873
vn -0.439294 -0.875503 0.201284
vn -0.399938 -0.797073 0.452464
vn -0.737658 0.582592 0.341243
vn -0.779210 0.615405 0.118781
vn -0.779210 0.615404 0.118781
vn -0.735186 0.580640 0.349797
vn -0.738412 0.583188 0.338584
vn -0.778228 0.614635 0.128781
vn -0.854347 -0.175523 0.489166
vn -0.792218 -0.162759 0.588133
vn -0.792218 -0.162759 0.588133
vn -0.950953 -0.195370 0.239829
vn -0.930754 -0.191220 0.311659
vn -0.950953 -0.195370 0.239829
vn -0.855343 -0.175728 0.487347
vn 0.942389 -0.101923 0.318614
vn 0.989711 -0.107041 0.094945
vn 0.989711 -0.107041 0.094945
vn 0.939463 -0.101605 0.327241
vn 0.943281 -0.102018 0.315933
vn 0.988709 -0.106933 0.104973
vn -0.903090 -0.012396 0.429272
vn -0.918768 0.014929 0.394515
vn -0.922965 0.021014 0.384311
vn -0.952675 0.086482 0.291431
vn -0.965383 0.096160 0.242465
vn -0.965354 0.096422 0.242478
vn -0.950342 0.083780 0.299719
vn 0.710520 -0.585599 0.390174
vn 0.703823 -0.615508 0.354659
vn 0.702797 -0.622545 0.344259
vn 0.680472 -0.688842 0.249911
vn 0.682463 -0.702910 0.200403
vn 0.682272 -0.703092 0.200416
vn 0.680682 -0.685531 0.258302
vn 0.473890 0.748424 0.463993
vn 0.506185 0.747594 0.429978
vn 0.513822 0.748073 0.419968
vn 0.587124 0.739816 0.328569
vn 0.603383 0.746615 0.280171
vn 0.603585 0.746446 0.280184
vn 0.583383 0.739097 0.336749
vn 0.288002 0.929720 0.229512
vn 0.315714 0.929295 0.191664
vn 0.321885 0.929379 0.180679
vn 0.385180 0.919167 0.082269
vn 0.394025 0.918559 0.031531
vn 0.394267 0.918455 0.031544
vn 0.382616 0.919423 0.090916
vn 0.829240 0.458868 -0.319063
vn 0.825963 0.487908 -0.282367
vn 0.825602 0.494549 -0.271665
vn 0.810021 0.559634 -0.175144
vn 0.811472 0.570887 -0.124903
vn 0.811319 0.571102 -0.124916
vn 0.810142 0.556715 -0.183681
vn -0.458308 -0.820763 -0.341031
vn -0.440507 -0.844468 -0.304674
vn -0.436788 -0.850145 -0.294057
vn -0.390034 -0.899229 -0.198141
vn -0.385774 -0.910630 -0.148094
vn -0.385531 -0.910731 -0.148107
vn -0.391602 -0.896631 -0.206639
vn 0.607520 0.732863 -0.306319
vn 0.593618 0.758302 -0.269437
vn 0.590784 0.764235 -0.258689
vn 0.551850 0.818088 -0.161843
vn 0.548728 0.828532 -0.111503
vn 0.548508 0.828676 -0.111516
vn 0.553090 0.815509 -0.170401
vn -0.323689 0.867832 -0.376954
vn -0.353911 0.870821 -0.341200
vn -0.360830 0.872017 -0.330738
vn -0.430169 0.871372 -0.235938
vn -0.442491 0.877214 -0.186271
vn -0.442725 0.877094 -0.186283
vn -0.427025 0.870596 -0.244361
vn -0.017700 -0.951642 -0.306698
vn -0.018534 -0.996423 -0.082449
vn -0.017671 -0.950073 -0.311526
vn -0.017648 -0.948808 -0.315361
vn -0.017717 -0.952506 -0.304006
vn -0.018517 -0.995542 -0.092489
vn -0.018517 -0.995542 -0.092489
vn -0.342366 0.788200 -0.511397
vn -0.316097 0.727712 -0.608702
vn -0.342790 0.789176 -0.509605
vn -0.375250 0.863901 -0.335952
vn -0.384197 0.884500 -0.264674
vn -0.384197 0.884500 -0.264674
vn -0.375281 0.863973 -0.335730
vn 0.399515 0.796229 -0.454322
vn 0.372845 0.743077 -0.555719
vn 0.399938 0.797073 -0.452464
vn 0.431326 0.859623 -0.273873
vn 0.439293 0.875503 -0.201284
vn 0.439293 0.875503 -0.201284
vn 0.431355 0.859681 -0.273647
vn 0.737658 -0.582592 -0.341244
vn 0.779210 -0.615405 -0.118781
vn 0.736289 -0.581511 -0.346012
vn 0.735186 -0.580640 -0.349797
vn 0.738412 -0.583188 -0.338584
vn 0.778228 -0.614635 -0.128781
vn 0.778228 -0.614635 -0.128781
vn 0.854347 0.175523 -0.489166
vn 0.792218 0.162759 -0.588133
vn 0.855343 0.175728 -0.487347
vn 0.930754 0.191220 -0.311660
vn 0.950953 0.195370 -0.239829
vn 0.950953 0.195370 -0.239829
vn 0.930826 0.191235 -0.311436
vn -0.942389 0.101923 -0.318614
vn -0.989711 0.107041 -0.094945
vn -0.940769 0.101748 -0.323422
vn -0.939463 0.101605 -0.327241
vn -0.943281 0.102018 -0.315933
vn -0.988709 0.106933 -0.104973
vn -0.988709 0.106933 -0.104973
vn 0.903338 0.013382 -0.428720
vn -0.711328 0.584989 -0.389617
vn -0.473215 -0.749188 -0.463448
vn -0.287090 -0.930143 -0.228942
vn -0.829885 -0.458093 0.318498
vn 0.459271 0.820459 0.340468
vn -0.608398 -0.732370 0.305753
vn 0.322844 -0.868388 0.376395
vn 0.017671 0.950073 0.311526
vn 0.018517 0.995542 0.092489
vn 0.375281 -0.863973 0.335730
vn -0.431355 -0.859681 0.273647
vn -0.736289 0.581511 0.346012
vn -0.778228 0.614635 0.128781
vn -0.930826 -0.191235 0.311436
vn 0.940769 -0.101748 0.323422
vn 0.988709 -0.106933 0.104973
vn -0.903338 -0.013381 0.428721
vn 0.711328 -0.584988 0.389617
vn 0.473216 0.749188 0.463448
vn 0.287090 0.930143 0.228942
vn 0.829885 0.458093 -0.318498
vn -0.459270 -0.820459 -0.340468
vn 0.608398 0.732370 -0.305753
vn -0.322844 0.868388 -0.376395
vn -0.018534 -0.996423 -0.082449
vn -0.316097 0.727712 -0.608702
vn 0.372845 0.743077 -0.555719
vn 0.779210 -0.615404 -0.118781
vn 0.792218 0.162759 -0.588133
vn -0.989711 0.107041 -0.094945
vt 0.774249 0.398577
vt 0.743378 0.582148
vt 0.746400 0.392349
vt 0.759785 0.000000
vt 0.754643 0.119886
vt 0.747738 0.000000
vt 0.768306 0.121566
vt 0.578402 0.325901
vt 0.565395 0.474274
vt 0.560192 0.474274
vt 0.575049 0.175098
vt 0.557586 0.175098
vt 0.564142 0.000000
vt 0.506082 0.370312
vt 0.513641 0.555469
vt 0.504574 0.555469
vt 0.520520 0.000000
vt 0.507388 0.185156
vt 0.504574 0.000000
vt 0.517503 0.370312
vt 0.596612 0.325901
vt 0.586622 0.000000
vt 0.518583 0.185156
vt 0.766331 0.588523
f 6/1/1 2/2/2 8/3/3
f 3/4/4 7/5/5 4/6/6
f 5/7/7 8/3/3 7/5/5
f 14/1/8 10/2/9 16/3/10
f 11/4/11 15/5/12 12/6/13
f 13/7/14 16/3/10 15/5/12
f 22/1/15 18/2/16 24/3/17
f 19/4/18 23/5/19 20/6/20
f 21/7/21 24/3/17 23/5/19
f 30/1/22 26/2/23 32/3/24
f 27/4/25 31/5/26 28/6/27
f 29/7/28 32/3/24 31/5/26
f 38/1/29 34/2/30 40/3/31
f 35/4/32 39/5/33 36/6/34
f 37/7/35 40/3/31 39/5/33
f 46/1/36 42/2/37 48/3/38
f 43/4/39 47/5/40 44/6/41
f 45/7/42 48/3/38 47/5/40
f 54/1/43 50/2/44 56/3/45
f 51/4/46 55/5/47 52/6/48
f 53/7/49 56/3/45 55/5/47
f 62/1/50 58/2/51 64/3/52
f 59/4/53 63/5/54 60/6/55
f 61/7/56 64/3/52 63/5/54
f 69/8/57 66/9/58 65/10/59
f 72/11/60 69/8/57 71/12/61
f 67/13/62 72/11/60 71/12/61
f 80/14/63 73/15/64 76/16/65
f 75/17/66 79/18/67 74/19/68
f 79/18/67 78/20/69 80/14/63
f 88/14/70 81/15/71 84/16/72
f 83/17/73 87/18/74 82/19/75
f 87/18/74 86/20/76 88/14/70
f 93/8/77 90/9/78 89/10/79
f 96/11/80 93/8/77 95/12/81
f 91/13/82 96/11/80 95/12/81
f 104/14/83 97/15/84 100/16/85
f 99/17/86 103/18/87 98/19/88
f 103/18/87 102/20/89 104/14/83
f 109/8/90 106/9/91 105/10/92
f 112/11/93 109/8/90 111/12/94
f 107/13/95 112/11/93 111/12/94
f 114/2/96 118/1/97 120/3/98
f 119/5/99 115/4/100 116/6/101
f 120/3/98 117/7/102 119/5/99
f 122/2/103 126/1/104 128/3/105
f 127/5/106 123/4/107 124/6/108
f 128/3/105 125/7/109 127/5/106
f 130/2/110 134/1/111 136/3/112
f 135/5/113 131/4/114 132/6/115
f 136/3/112 133/7/116 135/5/113
f 138/2/117 142/1/118 144/3/119
f 143/5/120 139/4/121 140/6/122
f 144/3/119 141/7/123 143/5/120
f 146/2/124 150/1/125 152/3/126
f 151/5/127 147/4/128 148/6/129
f 152/3/126 149/7/130 151/5/127
f 154/2/131 158/1/132 160/3/133
f 159/5/134 155/4/135 156/6/136
f 160/3/133 157/7/137 159/5/134
f 162/2/138 166/1/139 168/3/140
f 167/5/141 163/4/142 164/6/143
f 168/3/140 165/7/144 167/5/141
f 170/2/145 174/1/146 176/3/147
f 175/5/148 171/4/149 172/6/150
f 176/3/147 173/7/151 175/5/148
f 181/8/152 178/9/153 182/21/154
f 181/8/152 184/11/155 183/12/156
f 179/13/157 184/11/155 180/22/158
f 192/14/159 185/15/160 190/20/161
f 191/18/162 187/17/163 186/19/164
f 191/18/162 190/20/161 189/23/165
f 200/14/166 193/15/167 198/20/168
f 199/18/169 195/17/170 194/19/171
f 199/18/169 198/20/168 197/23/172
f 205/8/173 202/9/174 206/21/175
f 205/8/173 208/11/176 207/12/177
f 203/13/178 208/11/176 204/22/179
f 216/14/180 209/15/181 214/20/182
f 215/18/183 211/17/184 210/19/185
f 215/18/183 214/20/182 213/23/186
f 221/8/187 218/9/188 222/21/189
f 221/8/187 224/11/190 223/12/191
f 219/13/192 224/11/190 220/22/193
f 6/1/1 1/24/194 2/2/2
f 3/4/4 5/7/7 7/5/5
f 5/7/7 6/1/1 8/3/3
f 14/1/8 9/24/195 10/2/9
f 11/4/11 13/7/14 15/5/12
f 13/7/14 14/1/8 16/3/10
f 22/1/15 17/24/196 18/2/16
f 19/4/18 21/7/21 23/5/19
f 21/7/21 22/1/15 24/3/17
f 30/1/22 25/24/197 26/2/23
f 27/4/25 29/7/28 31/5/26
f 29/7/28 30/1/22 32/3/24
f 38/1/29 33/24/198 34/2/30
f 35/4/32 37/7/35 39/5/33
f 37/7/35 38/1/29 40/3/31
f 46/1/36 41/24/199 42/2/37
f 43/4/39 45/7/42 47/5/40
f 45/7/42 46/1/36 48/3/38
f 54/1/43 49/24/200 50/2/44
f 51/4/46 53/7/49 55/5/47
f 53/7/49 54/1/43 56/3/45
f 62/1/50 57/24/201 58/2/51
f 59/4/53 61/7/56 63/5/54
f 61/7/56 62/1/50 64/3/52
f 69/8/57 70/21/202 66/9/58
f 72/11/60 70/21/202 69/8/57
f 67/13/62 68/22/203 72/11/60
f 80/14/63 78/20/69 73/15/64
f 75/17/66 77/23/204 79/18/67
f 79/18/67 77/23/204 78/20/69
f 88/14/70 86/20/76 81/15/71
f 83/17/73 85/23/205 87/18/74
f 87/18/74 85/23/205 86/20/76
f 93/8/77 94/21/206 90/9/78
f 96/11/80 94/21/206 93/8/77
f 91/13/82 92/22/207 96/11/80
f 104/14/83 102/20/89 97/15/84
f 99/17/86 101/23/208 103/18/87
f 103/18/87 101/23/208 102/20/89
f 109/8/90 110/21/209 106/9/91
f 112/11/93 110/21/209 109/8/90
f 107/13/95 108/22/210 112/11/93
f 114/2/96 113/24/211 118/1/97
f 119/5/99 117/7/102 115/4/100
f 120/3/98 118/1/97 117/7/102
f 122/2/103 121/24/212 126/1/104
f 127/5/106 125/7/109 123/4/107
f 128/3/105 126/1/104 125/7/109
f 130/2/110 129/24/213 134/1/111
f 135/5/113 133/7/116 131/4/114
f 136/3/112 134/1/111 133/7/116
f 138/2/117 137/24/214 142/1/118
f 143/5/120 141/7/123 139/4/121
f 144/3/119 142/1/118 141/7/123
f 146/2/124 145/24/215 150/1/125
f 151/5/127 149/7/130 147/4/128
f 152/3/126 150/1/125 149/7/130
f 154/2/131 153/24/216 158/1/132
f 159/5/134 157/7/137 155/4/135
f 160/3/133 158/1/132 157/7/137
f 162/2/138 161/24/217 166/1/139
f 167/5/141 165/7/144 163/4/142
f 168/3/140 166/1/139 165/7/144
f 170/2/145 169/24/218 174/1/146
f 175/5/148 173/7/151 171/4/149
f 176/3/147 174/1/146 173/7/151
f 181/8/152 177/10/219 178/9/153
f 181/8/152 182/21/154 184/11/155
f 179/13/157 183/12/156 184/11/155
f 192/14/159 188/16/220 185/15/160
f 191/18/162 189/23/165 187/17/163
f 191/18/162 192/14/159 190/20/161
f 200/14/166 196/16/221 193/15/167
f 199/18/169 197/23/172 195/17/170
f 199/18/169 200/14/166 198/20/168
f 205/8/173 201/10/222 202/9/174
f 205/8/173 206/21/175 208/11/176
f 203/13/178 207/12/177 208/11/176
f 216/14/180 212/16/223 209/15/181
f 215/18/183 213/23/186 211/17/184
f 215/18/183 216/14/180 214/20/182
f 221/8/187 217/10/224 218/9/188
f 221/8/187 222/21/189 224/11/190
f 219/13/192 223/12/191 224/11/190
