#
#
#

mtllib SM_Grass_08.mtl


#
# Plane.998
#
g Plane.998


#
# Plane.998_Grass
#
usemtl Plane.998_Grass

v -0.054711 -0.023922 0.148374
v -0.006489 -0.009171 0.000600
v -0.057995 -0.015595 0.148374
v -0.012231 0.005392 0.000600
v -0.025496 -0.013079 0.074972
v -0.029449 -0.003053 0.074972
v -0.089133 -0.019305 0.003167
v 0.072694 -0.019305 0.003167
v -0.089133 -0.206589 0.168071
v 0.072694 -0.206589 0.168071
v -0.008219 -0.002738 0.018266
v -0.008219 -0.199497 0.174534
v -0.089133 -0.098877 0.111740
v 0.072694 -0.098877 0.111740
v -0.008219 -0.082311 0.126839
v -0.037828 0.074865 -0.015320
v 0.007413 -0.077254 -0.015320
v -0.267900 0.006441 0.032361
v -0.222659 -0.145678 0.032361
v -0.008863 0.000692 0.005642
v -0.242564 -0.068811 0.041334
v -0.153750 0.040389 0.037602
v -0.108509 -0.111730 0.037602
v -0.124785 -0.033783 0.058564
v -0.027640 0.045965 -0.025598
v 0.072286 -0.069273 0.018240
v 0.096783 0.206007 0.111494
v 0.196709 0.090769 0.155332
v 0.008263 -0.017867 0.012036
v 0.140728 0.145729 0.140140
v 0.021263 0.124268 0.068765
v 0.121190 0.009030 0.112603
v 0.057167 0.060436 0.106399
v -0.061139 -0.043278 0.014398
v 0.032351 0.052739 -0.019955
v -0.182003 0.107023 0.105562
v -0.088514 0.203039 0.071209
v -0.004223 0.000431 0.012883
v -0.130905 0.153190 0.095090
v -0.113166 0.032250 0.083908
v -0.019677 0.128266 0.049555
v -0.056251 0.075958 0.082393
v 0.028271 0.039160 -0.007805
v -0.037768 -0.081010 -0.007805
v 0.196152 -0.053100 0.081697
v 0.130113 -0.173269 0.081697
v -0.013404 -0.016168 0.008418
v 0.159427 -0.111148 0.088641
v 0.107636 -0.004455 0.061537
v 0.041596 -0.124624 0.061537
v 0.065961 -0.059783 0.077760
v -0.093831 0.008180 -0.004866
v 0.060241 -0.041311 -0.004866
v -0.162739 -0.206341 0.102376
v -0.008666 -0.255832 0.102376
v -0.013189 -0.005338 0.014197
v -0.084159 -0.226281 0.110536
v -0.126337 -0.093016 0.077732
v 0.027735 -0.142507 0.077732
v -0.045695 -0.106535 0.096795
v 0.074989 -0.012586 -0.017755
v -0.068191 -0.004819 -0.017755
v 0.086869 0.206436 0.010119
v -0.056311 0.214203 0.010119
v 0.003147 -0.013343 0.001555
v 0.015171 0.208333 0.018385
v 0.081073 0.099584 0.022336
v -0.062107 0.107350 0.022336
v 0.009231 0.098827 0.041646
v -0.076056 -0.060101 0.002165
v 0.057453 -0.007795 0.002165
v 0.002783 -0.261337 0.048824
v 0.136293 -0.209032 0.048824
v -0.011597 -0.028089 0.021004
v 0.068555 -0.232676 0.056888
v -0.036491 -0.161092 0.051780
v 0.097019 -0.108786 0.051780
v 0.027969 -0.129080 0.070619
v 0.005325 0.054790 -0.008965
v 0.028785 -0.080308 -0.008965
v 0.209378 0.090223 0.033616
v 0.232838 -0.044875 0.033616
v 0.011301 -0.013758 0.009107
v 0.218645 0.022247 0.041352
v 0.107973 0.072614 0.037456
v 0.131433 -0.062484 0.037456
v 0.113949 0.004066 0.055529
v 0.064377 -0.017245 0.200154
v 0.007797 0.008184 0.000808
v 0.060422 -0.028542 0.200154
v 0.000880 -0.011570 0.000808
v 0.027878 -0.003573 0.100909
v 0.023115 -0.017174 0.100909
v -0.005865 0.089618 0.221593
v -0.011943 -0.002667 0.000902
v 0.007854 0.089618 0.221593
v 0.012046 -0.002667 0.000902
v -0.006830 0.034321 0.112617
v 0.009686 0.034321 0.112617
v -0.054711 -0.023922 0.148374
v -0.006489 -0.009171 0.000600
v -0.057995 -0.015595 0.148374
v -0.012231 0.005392 0.000600
v -0.025496 -0.013079 0.074972
v -0.029449 -0.003053 0.074972
v -0.089133 -0.019305 0.003167
v 0.072694 -0.019305 0.003167
v -0.089133 -0.206589 0.168071
v 0.072694 -0.206589 0.168071
v -0.008219 -0.002738 0.018266
v -0.008219 -0.199497 0.174534
v -0.089133 -0.098877 0.111740
v 0.072694 -0.098877 0.111740
v -0.008219 -0.082311 0.126839
v -0.037828 0.074865 -0.015320
v 0.007413 -0.077254 -0.015320
v -0.267900 0.006441 0.032361
v -0.222659 -0.145678 0.032361
v -0.008863 0.000692 0.005642
v -0.242564 -0.068811 0.041334
v -0.153750 0.040389 0.037602
v -0.108509 -0.111730 0.037602
v -0.124785 -0.033783 0.058564
v -0.027640 0.045965 -0.025598
v 0.072286 -0.069273 0.018240
v 0.096783 0.206007 0.111494
v 0.196709 0.090769 0.155332
v 0.008263 -0.017867 0.012036
v 0.140728 0.145729 0.140140
v 0.021263 0.124268 0.068765
v 0.121190 0.009030 0.112603
v 0.057167 0.060436 0.106399
v -0.061139 -0.043278 0.014398
v 0.032351 0.052739 -0.019955
v -0.182003 0.107023 0.105562
v -0.088514 0.203039 0.071209
v -0.004223 0.000431 0.012883
v -0.130905 0.153190 0.095090
v -0.113166 0.032250 0.083908
v -0.019677 0.128266 0.049555
v -0.056251 0.075958 0.082393
v 0.028271 0.039160 -0.007805
v -0.037768 -0.081010 -0.007805
v 0.196152 -0.053100 0.081697
v 0.130113 -0.173269 0.081697
v -0.013404 -0.016168 0.008418
v 0.159427 -0.111148 0.088641
v 0.107636 -0.004455 0.061537
v 0.041596 -0.124624 0.061537
v 0.065961 -0.059783 0.077760
v -0.093831 0.008180 -0.004866
v 0.060241 -0.041311 -0.004866
v -0.162739 -0.206341 0.102376
v -0.008666 -0.255832 0.102376
v -0.013189 -0.005338 0.014197
v -0.084159 -0.226281 0.110536
v -0.126337 -0.093016 0.077732
v 0.027735 -0.142507 0.077732
v -0.045695 -0.106535 0.096795
v 0.074989 -0.012586 -0.017755
v -0.068191 -0.004819 -0.017755
v 0.086869 0.206436 0.010119
v -0.056311 0.214203 0.010119
v 0.003147 -0.013343 0.001555
v 0.015171 0.208333 0.018385
v 0.081073 0.099584 0.022336
v -0.062107 0.107350 0.022336
v 0.009231 0.098827 0.041646
v -0.076056 -0.060101 0.002165
v 0.057453 -0.007795 0.002165
v 0.002783 -0.261337 0.048824
v 0.136293 -0.209032 0.048824
v -0.011597 -0.028089 0.021004
v 0.068555 -0.232676 0.056888
v -0.036491 -0.161092 0.051780
v 0.097019 -0.108786 0.051780
v 0.027969 -0.129080 0.070619
v 0.005325 0.054790 -0.008965
v 0.028785 -0.080308 -0.008965
v 0.209378 0.090223 0.033616
v 0.232838 -0.044875 0.033616
v 0.011301 -0.013758 0.009107
v 0.218645 0.022247 0.041352
v 0.107973 0.072614 0.037456
v 0.131433 -0.062484 0.037456
v 0.113949 0.004066 0.055529
v 0.064377 -0.017245 0.200154
v 0.007797 0.008184 0.000808
v 0.060422 -0.028542 0.200154
v 0.000880 -0.011570 0.000808
v 0.027878 -0.003573 0.100909
v 0.023115 -0.017174 0.100909
v -0.005865 0.089618 0.221593
v -0.011943 -0.002667 0.000902
v 0.007854 0.089618 0.221593
v 0.012046 -0.002667 0.000902
v -0.006830 0.034321 0.112617
v 0.009686 0.034321 0.112617
vn 0.881502 0.347593 0.319582
vn 0.856338 0.337671 0.390723
vn 0.901001 0.355283 0.248940
vn 0.237460 0.605060 0.759944
vn 0.000000 0.806573 0.591135
vn 0.000000 0.620785 0.783981
vn -0.237460 0.605060 0.759944
vn -0.265563 0.777611 0.569910
vn 0.000000 0.431469 0.902128
vn -0.110716 0.460584 0.880684
vn 0.203673 -0.187166 0.960982
vn 0.384255 0.114279 0.916127
vn 0.137454 0.040879 0.989664
vn 0.068290 0.268049 0.960982
vn 0.294756 0.364720 0.883232
vn -0.076334 -0.022702 0.996824
vn -0.073441 0.093666 0.992891
vn 0.395949 0.346931 -0.850214
vn 0.682878 0.347743 -0.642458
vn 0.560089 0.177872 -0.809112
vn 0.694978 0.002082 -0.719028
vn 0.825567 0.142426 -0.546035
vn 0.426749 0.026156 -0.903992
vn 0.516623 -0.030010 -0.855687
vn -0.590710 -0.055000 -0.805007
vn -0.582185 0.295916 -0.757294
vn -0.441336 0.111139 -0.890433
vn -0.269775 0.274610 -0.922936
vn -0.381822 0.469600 -0.796045
vn -0.299420 -0.049372 -0.952843
vn -0.246495 0.053314 -0.967677
vn 0.436103 0.031294 -0.899353
vn 0.532798 -0.292800 -0.793974
vn 0.329044 -0.180827 -0.926840
vn 0.207373 -0.384918 -0.899352
vn 0.385767 -0.515021 -0.765466
vn 0.140720 -0.077333 -0.987025
vn 0.117167 -0.190721 -0.974627
vn 0.340320 0.283019 0.896706
vn 0.187658 0.584210 0.789610
vn 0.116847 0.363765 0.924133
vn -0.111845 0.428262 0.896706
vn -0.071919 0.644449 0.761258
vn 0.051262 0.159587 0.985852
vn -0.043787 0.225702 0.973212
vn -0.241152 -0.061634 0.968528
vn -0.018205 -0.335627 0.941819
vn -0.004016 -0.074030 0.997248
vn 0.233071 -0.087357 0.968528
vn 0.247622 -0.337959 0.908002
vn 0.008063 0.148642 0.988858
vn 0.116658 0.106566 0.987438
vn 0.163561 0.233483 0.958506
vn -0.151739 0.387312 0.909376
vn -0.058270 0.148733 0.987159
vn -0.278635 0.060242 0.958506
vn -0.393555 0.276534 0.876724
vn 0.023037 -0.058802 0.998004
vn -0.093136 -0.065784 0.993478
vn 0.105471 0.259329 -0.960013
vn 0.400999 0.069633 -0.913428
vn 0.147800 0.025665 -0.988684
vn 0.186725 -0.208589 -0.960013
vn 0.432036 -0.194514 -0.880630
vn -0.071902 -0.012486 -0.997334
vn -0.017571 -0.115423 -0.993161
vn -0.902216 0.315899 0.293623
vn -0.878526 0.307605 0.365474
vn -0.878526 0.307605 0.365474
vn -0.920173 0.322186 0.222435
vn 0.000000 -0.923596 0.383368
vn 0.000000 -0.891764 0.452501
vn 0.000000 -0.891764 0.452501
vn 0.000000 -0.949318 0.314317
vn 0.000000 -0.949318 0.314317
vn -0.881502 -0.347593 -0.319582
vn -0.856338 -0.337671 -0.390723
vn -0.881390 -0.347549 -0.319939
vn -0.901001 -0.355283 -0.248940
vn 0.000000 -0.806573 -0.591135
vn -0.237460 -0.605060 -0.759944
vn 0.000000 -0.620785 -0.783981
vn 0.237460 -0.605060 -0.759944
vn 0.000000 -0.431469 -0.902128
vn 0.110716 -0.460584 -0.880684
vn -0.110716 -0.460584 -0.880684
vn -0.384255 -0.114279 -0.916127
vn -0.203673 0.187166 -0.960982
vn -0.137454 -0.040879 -0.989664
vn -0.068290 -0.268049 -0.960982
vn 0.076334 0.022702 -0.996824
vn 0.073441 -0.093666 -0.992891
vn 0.010319 0.118576 -0.992891
vn -0.682878 -0.347743 0.642459
vn -0.395948 -0.346931 0.850214
vn -0.560089 -0.177872 0.809112
vn -0.694978 -0.002082 0.719028
vn -0.426749 -0.026156 0.903992
vn -0.516623 0.030010 0.855687
vn -0.377202 -0.130775 0.916852
vn 0.582185 -0.295916 0.757294
vn 0.590710 0.055000 0.805007
vn 0.441336 -0.111139 0.890433
vn 0.269775 -0.274610 0.922936
vn 0.299420 0.049372 0.952843
vn 0.246495 -0.053314 0.967677
vn 0.396130 0.100366 0.912693
vn -0.532798 0.292800 0.793974
vn -0.436103 -0.031294 0.899352
vn -0.329044 0.180827 0.926840
vn -0.207373 0.384918 0.899352
vn -0.140720 0.077333 0.987025
vn -0.117167 0.190721 0.974627
vn -0.223812 -0.003336 0.974627
vn -0.187658 -0.584210 -0.789610
vn -0.340320 -0.283019 -0.896706
vn -0.116847 -0.363765 -0.924133
vn 0.111845 -0.428262 -0.896706
vn -0.051262 -0.159587 -0.985852
vn 0.043787 -0.225702 -0.973212
vn -0.167033 -0.157983 -0.973212
vn 0.018205 0.335627 -0.941819
vn 0.241152 0.061634 -0.968528
vn 0.004016 0.074030 -0.997248
vn -0.233071 0.087357 -0.968528
vn -0.008063 -0.148642 -0.988858
vn -0.116658 -0.106566 -0.987438
vn 0.104447 -0.118559 -0.987438
vn 0.151739 -0.387312 -0.909376
vn -0.163561 -0.233483 -0.958506
vn 0.058270 -0.148733 -0.987159
vn 0.278635 -0.060242 -0.958506
vn -0.023037 0.058802 -0.998004
vn 0.093136 0.065784 -0.993478
vn -0.113037 -0.014988 -0.993478
vn -0.400999 -0.069633 0.913428
vn -0.105471 -0.259329 0.960013
vn -0.147800 -0.025665 0.988684
vn -0.186725 0.208589 0.960013
vn 0.071902 0.012486 0.997334
vn 0.017571 0.115423 0.993161
vn 0.055455 -0.102742 0.993161
vn 0.902216 -0.315899 -0.293623
vn 0.878526 -0.307605 -0.365474
vn 0.902111 -0.315863 -0.293983
vn 0.920173 -0.322186 -0.222435
vn 0.000000 0.923596 -0.383368
vn 0.000000 0.891764 -0.452501
vn 0.000000 0.923451 -0.383715
vn -0.000000 0.949318 -0.314317
vn -0.000000 0.949318 -0.314317
vn 0.881390 0.347549 0.319939
vn 0.265563 0.777612 0.569909
vn 0.110716 0.460584 0.880684
vn 0.446161 -0.144368 0.883232
vn -0.010319 -0.118576 0.992891
vn 0.491149 0.528088 -0.692745
vn 0.377202 0.130775 -0.916852
vn -0.740739 0.100982 -0.664160
vn -0.396130 -0.100366 -0.912693
vn 0.641566 -0.049552 -0.765465
vn 0.223812 0.003336 -0.974627
vn 0.433759 0.482017 0.761258
vn 0.167033 0.157983 0.973212
vn -0.282724 -0.309193 0.908002
vn -0.104447 0.118559 0.987438
vn 0.100973 0.470277 0.876723
vn 0.113037 0.014988 0.993478
vn 0.341166 0.328780 -0.880630
vn -0.055455 0.102742 -0.993161
vn -0.902111 0.315863 0.293983
vn 0.000000 -0.923451 0.383715
vn -0.265563 -0.777612 -0.569910
vn 0.265563 -0.777611 -0.569910
vn -0.446161 0.144368 -0.883232
vn -0.294756 -0.364720 -0.883232
vn -0.491149 -0.528088 0.692745
vn -0.825567 -0.142426 0.546035
vn 0.740739 -0.100982 0.664160
vn 0.381822 -0.469600 0.796045
vn -0.641566 0.049552 0.765466
vn -0.385767 0.515021 0.765466
vn -0.433759 -0.482017 -0.761258
vn 0.071919 -0.644449 -0.761258
vn 0.282724 0.309193 -0.908002
vn -0.247622 0.337959 -0.908002
vn -0.100973 -0.470277 -0.876724
vn 0.393555 -0.276534 -0.876724
vn -0.341166 -0.328780 0.880630
vn -0.432036 0.194514 0.880630
vn 0.878526 -0.307605 -0.365474
vn 0.000000 0.891764 -0.452501
vt 0.348093 0.719766
vt 0.360471 0.821624
vt 0.348907 0.821624
vt 0.364005 0.620566
vt 0.343783 0.620566
vt 0.486823 0.473341
vt 0.407471 0.604603
vt 0.407471 0.473341
vt 0.328119 0.473341
vt 0.328119 0.604603
vt 0.407471 0.342078
vt 0.328119 0.342078
vt 0.292147 1.000059
vt 0.168650 0.925402
vt 0.292147 0.925402
vt 0.292147 0.850745
vt 0.168650 0.850745
vt 0.415644 0.925402
vt 0.415644 0.850745
vt 0.362016 0.719766
vt 0.486823 0.342078
vt 0.415644 1.000059
vt 0.486823 0.604603
vt 0.168650 1.000059
f 5/1/1 3/2/2 1/3/2
f 4/4/3 5/1/1 2/5/3
f 14/6/4 11/7/5 15/8/6
f 13/9/7 11/7/5 7/10/8
f 12/11/9 13/9/7 9/12/10
f 12/11/9 14/6/4 15/8/6
f 23/6/11 20/7/12 24/8/13
f 22/9/14 20/7/12 16/10/15
f 21/11/16 22/9/14 18/12/17
f 21/11/16 23/6/11 24/8/13
f 32/6/18 29/7/19 33/8/20
f 31/9/21 29/7/19 25/10/22
f 30/11/23 31/9/21 27/12/24
f 30/11/23 32/6/18 33/8/20
f 41/6/25 38/7/26 42/8/27
f 40/9/28 38/7/26 34/10/29
f 39/11/30 40/9/28 36/12/31
f 39/11/30 41/6/25 42/8/27
f 50/6/32 47/7/33 51/8/34
f 49/9/35 47/7/33 43/10/36
f 48/11/37 49/9/35 45/12/38
f 48/11/37 50/6/32 51/8/34
f 59/6/39 56/7/40 60/8/41
f 58/9/42 56/7/40 52/10/43
f 57/11/44 58/9/42 54/12/45
f 57/11/44 59/6/39 60/8/41
f 68/13/46 65/14/47 69/15/48
f 67/16/49 65/14/47 61/17/50
f 66/18/51 67/16/49 63/19/52
f 66/18/51 68/13/46 69/15/48
f 77/13/53 74/14/54 78/15/55
f 76/16/56 74/14/54 70/17/57
f 75/18/58 76/16/56 72/19/59
f 75/18/58 77/13/53 78/15/55
f 86/6/60 83/7/61 87/8/62
f 85/9/63 83/7/61 79/10/64
f 84/11/65 85/9/63 81/12/66
f 84/11/65 86/6/60 87/8/62
f 92/1/67 90/2/68 88/3/69
f 91/4/70 92/1/67 89/5/70
f 98/1/71 96/2/72 94/3/73
f 97/4/74 98/1/71 95/5/75
f 104/1/76 102/2/77 105/20/78
f 104/1/76 103/4/79 101/5/79
f 110/7/80 113/6/81 114/8/82
f 112/9/83 110/7/80 114/8/82
f 112/9/83 111/11/84 108/12/85
f 111/11/84 113/6/81 109/21/86
f 119/7/87 122/6/88 123/8/89
f 121/9/90 119/7/87 123/8/89
f 121/9/90 120/11/91 117/12/92
f 120/11/91 122/6/88 118/21/93
f 128/7/94 131/6/95 132/8/96
f 130/9/97 128/7/94 132/8/96
f 130/9/97 129/11/98 126/12/99
f 129/11/98 131/6/95 127/21/100
f 137/7/101 140/6/102 141/8/103
f 139/9/104 137/7/101 141/8/103
f 139/9/104 138/11/105 135/12/106
f 138/11/105 140/6/102 136/21/107
f 146/7/108 149/6/109 150/8/110
f 148/9/111 146/7/108 150/8/110
f 148/9/111 147/11/112 144/12/113
f 147/11/112 149/6/109 145/21/114
f 155/7/115 158/6/116 159/8/117
f 157/9/118 155/7/115 159/8/117
f 157/9/118 156/11/119 153/12/120
f 156/11/119 158/6/116 154/21/121
f 164/14/122 167/13/123 168/15/124
f 166/16/125 164/14/122 168/15/124
f 166/16/125 165/18/126 162/19/127
f 165/18/126 167/13/123 163/22/128
f 173/14/129 176/13/130 177/15/131
f 175/16/132 173/14/129 177/15/131
f 175/16/132 174/18/133 171/19/134
f 174/18/133 176/13/130 172/22/135
f 182/7/136 185/6/137 186/8/138
f 184/9/139 182/7/136 186/8/138
f 184/9/139 183/11/140 180/12/141
f 183/11/140 185/6/137 181/21/142
f 191/1/143 189/2/144 192/20/145
f 191/1/143 190/4/146 188/5/146
f 197/1/147 195/2/148 198/20/149
f 197/1/147 196/4/150 194/5/151
f 5/1/1 6/20/152 3/2/2
f 4/4/3 6/20/152 5/1/1
f 14/6/4 8/23/153 11/7/5
f 13/9/7 15/8/6 11/7/5
f 12/11/9 15/8/6 13/9/7
f 12/11/9 10/21/154 14/6/4
f 23/6/11 17/23/155 20/7/12
f 22/9/14 24/8/13 20/7/12
f 21/11/16 24/8/13 22/9/14
f 21/11/16 19/21/156 23/6/11
f 32/6/18 26/23/157 29/7/19
f 31/9/21 33/8/20 29/7/19
f 30/11/23 33/8/20 31/9/21
f 30/11/23 28/21/158 32/6/18
f 41/6/25 35/23/159 38/7/26
f 40/9/28 42/8/27 38/7/26
f 39/11/30 42/8/27 40/9/28
f 39/11/30 37/21/160 41/6/25
f 50/6/32 44/23/161 47/7/33
f 49/9/35 51/8/34 47/7/33
f 48/11/37 51/8/34 49/9/35
f 48/11/37 46/21/162 50/6/32
f 59/6/39 53/23/163 56/7/40
f 58/9/42 60/8/41 56/7/40
f 57/11/44 60/8/41 58/9/42
f 57/11/44 55/21/164 59/6/39
f 68/13/46 62/24/165 65/14/47
f 67/16/49 69/15/48 65/14/47
f 66/18/51 69/15/48 67/16/49
f 66/18/51 64/22/166 68/13/46
f 77/13/53 71/24/167 74/14/54
f 76/16/56 78/15/55 74/14/54
f 75/18/58 78/15/55 76/16/56
f 75/18/58 73/22/168 77/13/53
f 86/6/60 80/23/169 83/7/61
f 85/9/63 87/8/62 83/7/61
f 84/11/65 87/8/62 85/9/63
f 84/11/65 82/21/170 86/6/60
f 92/1/67 93/20/171 90/2/68
f 91/4/70 93/20/171 92/1/67
f 98/1/71 99/20/172 96/2/72
f 97/4/74 99/20/172 98/1/71
f 104/1/76 100/3/77 102/2/77
f 104/1/76 105/20/78 103/4/79
f 110/7/80 107/23/173 113/6/81
f 112/9/83 106/10/174 110/7/80
f 112/9/83 114/8/82 111/11/84
f 111/11/84 114/8/82 113/6/81
f 119/7/87 116/23/175 122/6/88
f 121/9/90 115/10/176 119/7/87
f 121/9/90 123/8/89 120/11/91
f 120/11/91 123/8/89 122/6/88
f 128/7/94 125/23/177 131/6/95
f 130/9/97 124/10/178 128/7/94
f 130/9/97 132/8/96 129/11/98
f 129/11/98 132/8/96 131/6/95
f 137/7/101 134/23/179 140/6/102
f 139/9/104 133/10/180 137/7/101
f 139/9/104 141/8/103 138/11/105
f 138/11/105 141/8/103 140/6/102
f 146/7/108 143/23/181 149/6/109
f 148/9/111 142/10/182 146/7/108
f 148/9/111 150/8/110 147/11/112
f 147/11/112 150/8/110 149/6/109
f 155/7/115 152/23/183 158/6/116
f 157/9/118 151/10/184 155/7/115
f 157/9/118 159/8/117 156/11/119
f 156/11/119 159/8/117 158/6/116
f 164/14/122 161/24/185 167/13/123
f 166/16/125 160/17/186 164/14/122
f 166/16/125 168/15/124 165/18/126
f 165/18/126 168/15/124 167/13/123
f 173/14/129 170/24/187 176/13/130
f 175/16/132 169/17/188 173/14/129
f 175/16/132 177/15/131 174/18/133
f 174/18/133 177/15/131 176/13/130
f 182/7/136 179/23/189 185/6/137
f 184/9/139 178/10/190 182/7/136
f 184/9/139 186/8/138 183/11/140
f 183/11/140 186/8/138 185/6/137
f 191/1/143 187/3/191 189/2/144
f 191/1/143 192/20/145 190/4/146
f 197/1/147 193/3/192 195/2/148
f 197/1/147 198/20/149 196/4/150
