#
#
#

mtllib Stone1.mtl


#
# Сетка Stein_Stele
#
g Сетка Stein_Stele

v -0.302681 0.043950 0.035429
v -0.399708 0.087054 0.153043
v -0.221045 0.147284 0.216137
v -0.148788 0.099534 0.035429
v -0.322089 -0.282704 0.035429
v -0.361057 -0.296644 0.199564
v -0.417368 -0.133679 0.167089
v -0.442232 -0.175125 0.035429
v -0.143129 -0.243020 0.035429
v -0.142114 -0.289234 0.221367
v 0.002261 -0.411441 0.387516
v -0.050659 -0.503111 0.035429
v 0.434509 -0.080884 0.035429
v 0.523735 -0.068077 0.530538
v 0.535594 -0.288108 0.432339
v 0.374330 -0.202287 0.035429
v 0.380390 0.206970 0.035429
v 0.360525 0.219280 0.495848
v 0.191541 0.129907 0.035429
v 0.220891 0.368318 0.295317
v -0.014570 0.219121 0.035429
v -0.037044 0.221411 0.297586
v -0.335934 0.021597 0.685749
v -0.182878 0.059339 0.555025
v -0.180127 -0.301545 0.773780
v -0.324440 -0.162652 0.727080
v -0.006551 -0.343414 0.663496
v 0.163004 -0.412021 0.712748
v 0.422599 -0.015731 0.888638
v 0.366811 -0.216388 0.840337
v 0.319855 0.191481 0.818940
v 0.186059 0.234326 0.691907
v -0.066984 0.219889 0.595759
v -0.076821 -0.234908 0.905913
v -0.188021 -0.042253 0.979940
v 0.092650 -0.136535 0.906097
v -0.002199 0.071894 1.069567
v 0.154762 -0.143229 1.119409
v 0.261453 0.301599 1.641663
v 0.273825 0.093911 1.495978
v 0.095996 0.415296 1.485428
v 0.048940 0.409470 1.103257
v -0.027122 0.224154 0.998760
v -0.089791 0.020303 0.809407
v -0.246391 -0.013760 0.909151
v -0.062259 0.125034 1.077851
v 0.030970 0.158405 1.241568
v -0.013840 0.272474 1.309875
v 0.158852 -0.096041 1.292273
v 0.055153 0.175556 1.705511
v 0.168320 0.150581 1.753286
v 0.070671 0.112106 1.600731
v 0.236222 0.081162 1.621049
v 0.107493 0.078417 1.472010
v 0.203316 0.027168 1.490418
v 0.284636 -0.302904 0.035429
v 0.187156 -0.329686 0.337786
v 0.262182 -0.375579 0.751259
v 0.266515 -0.130238 1.347684
vn -0.384418 0.764198 -0.517904
vn -0.697664 0.710953 -0.088380
vn -0.404165 0.905778 -0.127347
vn -0.467780 0.790241 -0.395855
vn -0.541290 -0.840430 0.026119
vn -0.421658 -0.905823 -0.041100
vn -0.968816 -0.215521 0.122260
vn -0.992784 -0.093648 -0.074897
vn -0.277608 -0.949527 -0.146057
vn -0.554078 -0.832386 -0.011460
vn -0.275414 -0.950347 0.144870
vn -0.278330 -0.947379 0.158131
vn -0.554078 -0.832386 -0.011460
vn 0.975312 0.103265 -0.195197
vn 0.970834 0.206323 0.122118
vn 0.764164 -0.641062 -0.071363
vn 0.753298 -0.509255 -0.416174
vn 0.638375 0.723850 -0.261759
vn 0.739968 0.667306 0.084558
vn 0.975312 0.103265 -0.195197
vn 0.975312 0.103266 -0.195197
vn -0.113281 0.884348 -0.452874
vn -0.042341 0.990459 -0.131140
vn -0.215179 0.962538 -0.164978
vn -0.398247 0.913227 -0.086115
vn -0.113281 0.884348 -0.452874
vn -0.702232 0.663678 0.257685
vn -0.477098 0.854344 0.206091
vn -0.697664 0.710953 -0.088380
vn -0.421658 -0.905823 -0.041100
vn -0.412351 -0.826085 0.384123
vn -0.847196 -0.333485 0.413579
vn -0.421658 -0.905823 -0.041100
vn -0.968816 -0.215521 0.122260
vn -0.201285 -0.933579 0.296502
vn -0.554078 -0.832386 -0.011460
vn -0.185869 -0.942597 0.277424
vn 0.970834 0.206323 0.122118
vn 0.967574 0.174098 0.183003
vn 0.869266 -0.380967 0.315024
vn 0.681101 0.730567 0.048707
vn -0.042341 0.990459 -0.131140
vn 0.037715 0.999229 0.010928
vn 0.739968 0.667306 0.084558
vn -0.621377 0.774286 0.119885
vn -0.042341 0.990459 -0.131140
vn 0.037715 0.999229 0.010928
vn -0.042341 0.990459 -0.131140
vn -0.477098 0.854344 0.206091
vn -0.621377 0.774286 0.119885
vn -0.398247 0.913227 -0.086115
vn -0.412351 -0.826085 0.384123
vn -0.127579 -0.678508 0.723430
vn -0.407223 -0.363458 0.837895
vn -0.314628 -0.653704 0.688244
vn -0.127579 -0.678508 0.723430
vn -0.605379 -0.586554 0.538025
vn -0.127579 -0.678508 0.723430
vn -0.314628 -0.653704 0.688244
vn -0.201285 -0.933579 0.296502
vn -0.615652 -0.720743 0.318594
vn 0.967574 0.174098 0.183003
vn 0.730624 0.397657 0.555029
vn 0.870612 -0.355000 0.340601
vn 0.869266 -0.380967 0.315024
vn 0.681101 0.730567 0.048707
vn -0.223405 0.943239 0.245746
vn 0.967574 0.174098 0.183003
vn 0.967574 0.174098 0.183003
vn -0.403165 0.894357 -0.193865
vn -0.897772 0.440456 0.001909
vn 0.037715 0.999229 0.010928
vn 0.037715 0.999229 0.010928
vn -0.645908 0.756901 0.099517
vn -0.783921 0.477076 0.397323
vn -0.854139 0.193991 0.482507
vn -0.645908 0.756901 0.099517
vn -0.900053 -0.330915 0.283548
vn -0.991627 -0.054251 0.117185
vn -0.897772 0.440456 0.001909
vn -0.692494 -0.630747 0.350158
vn -0.615652 -0.720743 0.318594
vn -0.314628 -0.653704 0.688244
vn -0.223406 0.943238 0.245746
vn -0.897772 0.440456 0.001909
vn -0.223405 0.943238 0.245746
vn -0.689350 0.214375 0.691982
vn 0.040649 -0.508981 0.859818
vn -0.991627 -0.054251 0.117185
vn -0.733381 -0.635894 0.240398
vn -0.223406 0.943238 0.245746
vn 0.357932 -0.826414 0.434655
vn 0.730624 0.397657 0.555029
vn -0.733381 -0.635894 0.240398
vn 0.040649 -0.508981 0.859818
vn -0.677665 -0.692009 0.248785
vn -0.991627 -0.054251 0.117185
vn -0.991627 -0.054251 0.117185
vn -0.733381 -0.635894 0.240398
vn -0.677665 -0.692009 0.248785
vn 0.357932 -0.826414 0.434655
vn -0.086238 -0.812761 0.576180
vn -0.278330 -0.947379 0.158131
vn 0.470574 -0.872754 -0.129848
vn 0.337789 -0.940026 -0.047433
vn -0.275414 -0.950347 0.144870
vn 0.288744 -0.928313 0.234226
vn -0.275414 -0.950347 0.144870
vn 0.150662 -0.833052 0.532283
vn -0.615652 -0.720743 0.318594
vn -0.185869 -0.942597 0.277424
vn -0.692494 -0.630747 0.350158
vn -0.615652 -0.720743 0.318594
vn -0.692494 -0.630747 0.350158
vn 0.150662 -0.833052 0.532283
vn -0.086238 -0.812761 0.576180
vn -0.900053 -0.330915 0.283548
vn -0.605379 -0.586554 0.538025
vn -0.854139 0.193991 0.482507
vn -0.605379 -0.586554 0.538025
vn -0.847196 -0.333485 0.413579
vn -0.783921 0.477076 0.397323
vn -0.968816 -0.215521 0.122260
vn -0.697664 0.710953 -0.088380
vn -0.992784 -0.093648 -0.074897
vn -0.968816 -0.215521 0.122260
vn 0.870612 -0.355000 0.340601
vn -0.086238 -0.812761 0.576180
vn 0.357932 -0.826414 0.434655
vn 0.150662 -0.833052 0.532283
vn 0.288744 -0.928313 0.234226
vn 0.288744 -0.928313 0.234226
vn 0.764164 -0.641062 -0.071363
vn 0.288744 -0.928313 0.234226
vn 0.764164 -0.641062 -0.071363
vn 0.470574 -0.872754 -0.129848
vn 0.764164 -0.641062 -0.071363
vt 0.995272 0.575000
vt 0.983696 0.629069
vt 0.917489 0.600516
vt 0.952264 0.537707
vt 0.973454 0.158067
vt 0.915958 0.158748
vt 0.915330 0.094925
vt 0.964566 0.098552
vt 0.984378 0.224753
vt 0.915731 0.241936
vt 0.857994 0.316769
vt 0.994367 0.319563
vt 0.014074 0.186219
vt 0.175888 0.184842
vt 0.142299 0.242354
vt 0.009605 0.242667
vt 0.024944 0.083650
vt 0.174909 0.082025
vt 0.015812 0.035165
vt 0.122309 0.012397
vt 0.905742 0.501192
vt 0.845716 0.571421
vt 0.874424 0.439811
vt 0.771515 0.499097
vt 0.850716 0.768208
vt 0.833933 0.695712
vt 0.717025 0.233572
vt 0.719571 0.163517
vt 0.749276 0.299272
vt 0.732189 0.364732
vt 0.295286 0.182014
vt 0.276492 0.254918
vt 0.284932 0.101726
vt 0.254563 0.048840
vt 0.774014 0.656006
vt 0.689505 0.618148
vt 0.662718 0.252413
vt 0.610624 0.187652
vt 0.623915 0.304538
vt 0.541934 0.240210
vt 0.555616 0.342335
vt 0.548786 0.111103
vt 0.501500 0.173194
vt 0.525180 0.038513
vt 0.400801 0.005710
vt 0.663201 0.754197
vt 0.589822 0.741510
vt 0.760322 0.756111
vt 0.773754 0.816905
vt 0.670702 0.798325
vt 0.619087 0.841638
vt 0.574042 0.826354
vt 0.489149 0.344944
vt 0.485041 0.829455
vt 0.616118 0.106927
vt 0.596261 0.149489
vt 0.529004 0.939220
vt 0.487351 0.948523
vt 0.543052 0.175416
vt 0.493654 0.994241
vt 0.552906 0.994615
vt 0.576453 0.926376
vt 0.593737 0.962164
vt 0.960936 0.456120
vt 0.864542 0.394504
vt 0.711435 0.398989
vt 0.473576 0.384479
vt 0.403854 0.305337
vt 0.470364 0.241543
vt 0.403791 0.342486
vt 0.533442 0.213846
vt 0.625622 0.156992
vt 0.705688 0.098673
vt 0.893119 0.017121
vt 0.946770 0.007283
vt 0.509492 0.204470
vt 0.448928 0.241649
vt 0.249940 0.316196
vt 0.107093 0.343381
vt 0.007424 0.290148
f 1/1/1 2/2/2 3/3/3
f 1/1/1 3/3/3 4/4/4
f 5/5/5 6/6/6 7/7/7
f 5/5/5 7/7/7 8/8/8
f 9/9/9 10/10/10 6/6/6
f 9/9/9 6/6/6 5/5/5
f 11/11/11 10/10/10 12/12/12
f 10/10/13 9/9/9 12/12/12
f 13/13/14 14/14/15 15/15/16
f 13/13/14 15/15/16 16/16/17
f 17/17/18 18/18/19 13/13/20
f 18/18/19 14/14/15 13/13/21
f 19/19/22 20/20/23 17/17/18
f 20/20/23 18/18/19 17/17/18
f 21/21/24 22/22/25 19/23/22
f 22/22/25 20/24/23 19/23/26
f 4/4/4 3/3/3 21/21/24
f 3/3/3 22/22/25 21/21/24
f 2/2/2 23/25/27 24/26/28
f 2/2/29 24/26/28 3/3/3
f 6/6/30 25/27/31 26/28/32
f 6/6/33 26/28/32 7/7/34
f 10/10/10 27/29/35 6/6/6
f 27/29/35 25/27/31 6/6/6
f 27/29/35 10/10/36 11/11/11
f 27/29/35 11/11/11 28/30/37
f 14/14/38 29/31/39 30/32/40
f 14/14/38 30/32/40 15/15/16
f 18/18/19 31/33/41 14/14/15
f 31/33/41 29/31/39 14/14/15
f 20/20/42 32/34/43 18/18/44
f 32/34/43 31/33/41 18/18/44
f 22/22/25 33/35/45 20/24/46
f 33/35/45 32/36/47 20/24/48
f 3/3/3 24/26/49 22/22/25
f 24/26/49 33/35/50 22/22/51
f 25/27/52 34/37/53 26/28/32
f 34/37/53 35/38/54 26/28/32
f 27/29/35 36/39/55 34/37/56
f 27/29/35 34/37/56 25/27/52
f 37/40/57 35/38/54 36/39/55
f 35/38/54 34/37/58 36/39/59
f 36/39/55 27/29/60 28/30/37
f 36/39/59 28/30/37 38/41/61
f 29/31/62 39/42/63 40/43/64
f 29/31/62 40/43/64 30/32/65
f 31/33/66 41/44/67 29/31/68
f 41/44/67 39/42/63 29/31/69
f 32/34/43 42/45/70 31/33/41
f 42/45/70 41/44/67 31/33/41
f 33/35/50 43/46/71 32/36/72
f 43/46/71 42/47/70 32/36/73
f 24/26/28 44/48/74 33/35/45
f 44/48/74 43/46/71 33/35/45
f 23/25/27 45/49/75 44/48/74
f 23/25/27 44/48/74 24/26/49
f 44/48/74 45/49/75 46/50/76
f 44/48/77 46/50/76 43/46/71
f 46/50/76 47/51/78 43/46/71
f 47/51/78 48/52/79 43/46/80
f 38/41/61 49/53/81 37/40/57
f 38/41/82 37/40/57 36/39/83
f 48/52/79 41/54/84 42/47/70
f 48/52/79 42/47/70 43/46/85
f 41/44/86 50/55/87 39/42/63
f 50/55/87 51/56/88 39/42/63
f 48/52/89 52/57/90 41/54/91
f 52/57/90 50/58/87 41/54/67
f 39/42/63 51/56/88 53/59/92
f 39/42/93 53/59/92 40/43/64
f 50/58/87 52/57/94 51/60/88
f 52/57/90 53/61/92 51/60/95
f 47/51/78 54/62/96 48/52/97
f 54/62/96 52/57/90 48/52/98
f 52/57/99 54/62/100 53/61/101
f 54/62/96 55/63/102 53/61/92
f 12/12/103 56/64/104 57/65/105
f 12/12/12 57/65/105 11/11/106
f 57/65/105 58/66/107 28/30/37
f 57/65/105 28/30/37 11/11/108
f 58/66/107 59/67/109 38/41/110
f 58/66/107 38/41/110 28/30/111
f 54/68/96 47/69/78 49/53/81
f 54/68/100 49/53/112 55/70/102
f 49/53/81 38/41/113 59/67/109
f 49/53/114 59/67/115 55/70/116
f 47/69/117 46/71/76 37/40/118
f 47/69/117 37/40/57 49/53/81
f 46/71/119 45/72/75 35/38/54
f 46/71/119 35/38/54 37/40/120
f 45/72/75 23/73/27 26/28/121
f 45/72/122 26/28/32 35/38/54
f 23/73/27 2/74/29 7/7/7
f 23/73/27 7/7/123 26/28/32
f 2/74/124 1/75/1 8/8/8
f 2/74/124 8/8/125 7/7/126
f 55/76/102 59/77/115 40/43/127
f 55/76/128 40/43/127 53/59/129
f 59/77/130 58/78/131 30/32/65
f 59/77/130 30/32/65 40/43/64
f 58/78/132 57/79/105 15/15/133
f 58/78/134 15/15/16 30/32/40
f 57/79/105 56/80/104 15/15/135
f 56/80/136 16/16/17 15/15/137
