# Blender v2.79 (sub 0) OBJ File: ''
# www.blender.org
mtllib Stone1.mtl
o Сетка_Stein_Stele
v -0.302681 0.043950 0.035429
v -0.399708 0.087054 0.153043
v -0.221045 0.147284 0.216137
v -0.148788 0.099534 0.035429
v -0.322089 -0.282704 0.035429
v -0.361057 -0.296644 0.199564
v -0.417368 -0.133679 0.167089
v -0.442232 -0.175125 0.035429
v -0.143129 -0.243020 0.035429
v -0.142114 -0.289234 0.221367
v 0.002261 -0.411441 0.387516
v -0.050659 -0.503111 0.035429
v 0.434509 -0.080884 0.035429
v 0.523735 -0.068077 0.530538
v 0.535594 -0.288108 0.432339
v 0.374330 -0.202287 0.035429
v 0.380390 0.206970 0.035429
v 0.360525 0.219280 0.495848
v 0.191541 0.129907 0.035429
v 0.220891 0.368318 0.295317
v -0.014570 0.219121 0.035429
v -0.037044 0.221411 0.297586
v -0.335934 0.021597 0.685749
v -0.182878 0.059339 0.555025
v -0.180127 -0.301545 0.773780
v -0.324440 -0.162652 0.727080
v -0.006551 -0.343414 0.663496
v 0.163004 -0.412021 0.712748
v 0.422599 -0.015731 0.888638
v 0.366811 -0.216388 0.840337
v 0.319855 0.191481 0.818940
v 0.186059 0.234326 0.691907
v -0.066984 0.219889 0.595759
v -0.076821 -0.234908 0.905913
v -0.188021 -0.042253 0.979940
v 0.092650 -0.136535 0.906097
v -0.002199 0.071894 1.069567
v 0.154762 -0.143229 1.119409
v 0.261453 0.301599 1.641663
v 0.273825 0.093911 1.495978
v 0.095996 0.415296 1.485428
v 0.048940 0.409470 1.103257
v -0.027122 0.224154 0.998760
v -0.089791 0.020303 0.809407
v -0.246391 -0.013760 0.909151
v -0.062259 0.125034 1.077851
v 0.030970 0.158405 1.241568
v -0.013840 0.272474 1.309875
v 0.158852 -0.096041 1.292273
v 0.055153 0.175556 1.705511
v 0.168320 0.150581 1.753286
v 0.070671 0.112106 1.600731
v 0.236222 0.081162 1.621049
v 0.107493 0.078417 1.472010
v 0.203316 0.027168 1.490418
v 0.284636 -0.302904 0.035429
v 0.187156 -0.329686 0.337786
v 0.262182 -0.375579 0.751259
v 0.266515 -0.130238 1.347684
vt 0.000000 0.000000
vt 0.000000 0.000000
vt 0.000000 0.000000
vt 0.000000 0.000000
vt 0.000000 0.000000
vt 0.000000 0.000000
vt 0.000000 0.000000
vt 0.000000 0.000000
vt 0.000000 0.000000
vt 0.000000 0.000000
vt 0.000000 0.000000
vt 0.000000 0.000000
vt 0.995272 0.575000
vt 0.983696 0.629069
vt 0.917489 0.600516
vt 0.952264 0.537707
vt 0.973454 0.158067
vt 0.915958 0.158748
vt 0.915330 0.094925
vt 0.964566 0.098552
vt 0.984378 0.224753
vt 0.915731 0.241936
vt 0.857994 0.316769
vt 0.994367 0.319563
vt 0.014074 0.186219
vt 0.175888 0.184842
vt 0.142299 0.242354
vt 0.009605 0.242667
vt 0.024944 0.083650
vt 0.174909 0.082025
vt 0.015812 0.035165
vt 0.122309 0.012397
vt 0.905742 0.501192
vt 0.845716 0.571421
vt 0.874424 0.439811
vt 0.771515 0.499097
vt 0.850716 0.768208
vt 0.833933 0.695712
vt 0.717025 0.233572
vt 0.719571 0.163517
vt 0.749276 0.299272
vt 0.732189 0.364732
vt 0.295286 0.182014
vt 0.276492 0.254918
vt 0.284932 0.101726
vt 0.254563 0.048840
vt 0.774014 0.656006
vt 0.689505 0.618148
vt 0.662718 0.252413
vt 0.610624 0.187652
vt 0.623915 0.304538
vt 0.541934 0.240210
vt 0.555616 0.342335
vt 0.548786 0.111103
vt 0.501500 0.173194
vt 0.525180 0.038513
vt 0.400801 0.005710
vt 0.663201 0.754197
vt 0.589822 0.741510
vt 0.760322 0.756111
vt 0.773754 0.816905
vt 0.670702 0.798325
vt 0.619087 0.841638
vt 0.574042 0.826354
vt 0.489149 0.344944
vt 0.485041 0.829455
vt 0.616118 0.106927
vt 0.596261 0.149489
vt 0.529004 0.939220
vt 0.487351 0.948523
vt 0.543052 0.175416
vt 0.493654 0.994241
vt 0.552906 0.994615
vt 0.576453 0.926376
vt 0.593737 0.962164
vt 0.960936 0.456120
vt 0.864542 0.394504
vt 0.711435 0.398989
vt 0.473576 0.384479
vt 0.403854 0.305337
vt 0.470364 0.241543
vt 0.403791 0.342486
vt 0.533442 0.213846
vt 0.625622 0.156992
vt 0.705688 0.098673
vt 0.893119 0.017121
vt 0.946770 0.007283
vt 0.509492 0.204470
vt 0.448928 0.241649
vt 0.249940 0.316196
vt 0.107093 0.343381
vt 0.007424 0.290148
vn 0.0000 0.0000 -1.0000
vn -0.3844 0.7642 -0.5179
vn -0.6977 0.7109 -0.0884
vn -0.4042 0.9058 -0.1274
vn -0.4678 0.7902 -0.3959
vn -0.5413 -0.8404 0.0261
vn -0.4217 -0.9058 -0.0411
vn -0.9688 -0.2155 0.1223
vn -0.9928 -0.0937 -0.0749
vn -0.2776 -0.9495 -0.1461
vn -0.5541 -0.8324 -0.0115
vn -0.2754 -0.9504 0.1449
vn -0.2784 -0.9474 0.1581
vn 0.9753 0.1033 -0.1952
vn 0.9708 0.2063 0.1221
vn 0.7642 -0.6410 -0.0714
vn 0.7533 -0.5093 -0.4162
vn 0.6384 0.7238 -0.2618
vn 0.7400 0.6673 0.0846
vn -0.1133 0.8843 -0.4529
vn -0.0424 0.9905 -0.1311
vn -0.2152 0.9625 -0.1650
vn -0.3982 0.9132 -0.0861
vn -0.7022 0.6637 0.2577
vn -0.4771 0.8543 0.2061
vn -0.4123 -0.8261 0.3841
vn -0.8472 -0.3335 0.4136
vn -0.2013 -0.9336 0.2965
vn -0.1858 -0.9426 0.2774
vn 0.9676 0.1741 0.1830
vn 0.8693 -0.3810 0.3150
vn 0.6811 0.7306 0.0487
vn 0.0377 0.9992 0.0109
vn -0.6214 0.7743 0.1199
vn -0.1276 -0.6785 0.7234
vn -0.4072 -0.3635 0.8379
vn -0.3146 -0.6537 0.6882
vn -0.6054 -0.5866 0.5380
vn -0.6157 -0.7207 0.3186
vn 0.7306 0.3977 0.5550
vn 0.8706 -0.3550 0.3406
vn -0.2234 0.9432 0.2458
vn -0.4032 0.8944 -0.1939
vn -0.8978 0.4405 0.0019
vn -0.6459 0.7569 0.0995
vn -0.7839 0.4771 0.3973
vn -0.8541 0.1940 0.4825
vn -0.9001 -0.3309 0.2835
vn -0.9916 -0.0542 0.1172
vn -0.6925 -0.6307 0.3502
vn -0.6894 0.2143 0.6920
vn 0.0407 -0.5090 0.8598
vn -0.7334 -0.6359 0.2404
vn 0.3579 -0.8264 0.4346
vn -0.6777 -0.6920 0.2488
vn -0.0862 -0.8128 0.5762
vn 0.4706 -0.8727 -0.1298
vn 0.3378 -0.9400 -0.0474
vn 0.2887 -0.9283 0.2342
vn 0.1507 -0.8330 0.5323
usemtl None
s off
f 19/1/1 4/2/1 21/3/1
f 13/4/1 19/1/1 17/5/1
f 19/1/1 16/6/1 56/7/1
f 19/1/1 13/4/1 16/6/1
f 9/8/1 4/2/1 19/1/1
f 1/9/1 9/8/1 5/10/1
f 8/11/1 1/9/1 5/10/1
f 9/8/1 19/1/1 56/7/1
f 56/7/1 12/12/1 9/8/1
f 9/8/1 1/9/1 4/2/1
s 1
f 1/13/2 2/14/3 3/15/4
f 1/13/2 3/15/4 4/16/5
f 5/17/6 6/18/7 7/19/8
f 5/17/6 7/19/8 8/20/9
f 9/21/10 10/22/11 6/18/7
f 9/21/10 6/18/7 5/17/6
f 11/23/12 10/22/11 12/24/13
f 10/22/11 9/21/10 12/24/13
f 13/25/14 14/26/15 15/27/16
f 13/25/14 15/27/16 16/28/17
f 17/29/18 18/30/19 13/25/14
f 18/30/19 14/26/15 13/25/14
f 19/31/20 20/32/21 17/29/18
f 20/32/21 18/30/19 17/29/18
f 21/33/22 22/34/23 19/35/20
f 22/34/23 20/36/21 19/35/20
f 4/16/5 3/15/4 21/33/22
f 3/15/4 22/34/23 21/33/22
f 2/14/3 23/37/24 24/38/25
f 2/14/3 24/38/25 3/15/4
f 6/18/7 25/39/26 26/40/27
f 6/18/7 26/40/27 7/19/8
f 10/22/11 27/41/28 6/18/7
f 27/41/28 25/39/26 6/18/7
f 27/41/28 10/22/11 11/23/12
f 27/41/28 11/23/12 28/42/29
f 14/26/15 29/43/30 30/44/31
f 14/26/15 30/44/31 15/27/16
f 18/30/19 31/45/32 14/26/15
f 31/45/32 29/43/30 14/26/15
f 20/32/21 32/46/33 18/30/19
f 32/46/33 31/45/32 18/30/19
f 22/34/23 33/47/34 20/36/21
f 33/47/34 32/48/33 20/36/21
f 3/15/4 24/38/25 22/34/23
f 24/38/25 33/47/34 22/34/23
f 25/39/26 34/49/35 26/40/27
f 34/49/35 35/50/36 26/40/27
f 27/41/28 36/51/37 34/49/35
f 27/41/28 34/49/35 25/39/26
f 37/52/38 35/50/36 36/51/37
f 35/50/36 34/49/35 36/51/37
f 36/51/37 27/41/28 28/42/29
f 36/51/37 28/42/29 38/53/39
f 29/43/30 39/54/40 40/55/41
f 29/43/30 40/55/41 30/44/31
f 31/45/32 41/56/42 29/43/30
f 41/56/42 39/54/40 29/43/30
f 32/46/33 42/57/43 31/45/32
f 42/57/43 41/56/42 31/45/32
f 33/47/34 43/58/44 32/48/33
f 43/58/44 42/59/43 32/48/33
f 24/38/25 44/60/45 33/47/34
f 44/60/45 43/58/44 33/47/34
f 23/37/24 45/61/46 44/60/45
f 23/37/24 44/60/45 24/38/25
f 44/60/45 45/61/46 46/62/47
f 44/60/45 46/62/47 43/58/44
f 46/62/47 47/63/48 43/58/44
f 47/63/48 48/64/49 43/58/44
f 38/53/39 49/65/50 37/52/38
f 38/53/39 37/52/38 36/51/37
f 48/64/49 41/66/42 42/59/43
f 48/64/49 42/59/43 43/58/44
f 41/56/42 50/67/51 39/54/40
f 50/67/51 51/68/52 39/54/40
f 48/64/49 52/69/53 41/66/42
f 52/69/53 50/70/51 41/66/42
f 39/54/40 51/68/52 53/71/54
f 39/54/40 53/71/54 40/55/41
f 50/70/51 52/69/53 51/72/52
f 52/69/53 53/73/54 51/72/52
f 47/63/48 54/74/55 48/64/49
f 54/74/55 52/69/53 48/64/49
f 52/69/53 54/74/55 53/73/54
f 54/74/55 55/75/56 53/73/54
f 12/24/13 56/76/57 57/77/58
f 12/24/13 57/77/58 11/23/12
f 57/77/58 58/78/59 28/42/29
f 57/77/58 28/42/29 11/23/12
f 58/78/59 59/79/60 38/53/39
f 58/78/59 38/53/39 28/42/29
f 54/80/55 47/81/48 49/65/50
f 54/80/55 49/65/50 55/82/56
f 49/65/50 38/53/39 59/79/60
f 49/65/50 59/79/60 55/82/56
f 47/81/48 46/83/47 37/52/38
f 47/81/48 37/52/38 49/65/50
f 46/83/47 45/84/46 35/50/36
f 46/83/47 35/50/36 37/52/38
f 45/84/46 23/85/24 26/40/27
f 45/84/46 26/40/27 35/50/36
f 23/85/24 2/86/3 7/19/8
f 23/85/24 7/19/8 26/40/27
f 2/86/3 1/87/2 8/20/9
f 2/86/3 8/20/9 7/19/8
f 55/88/56 59/89/60 40/55/41
f 55/88/56 40/55/41 53/71/54
f 59/89/60 58/90/59 30/44/31
f 59/89/60 30/44/31 40/55/41
f 58/90/59 57/91/58 15/27/16
f 58/90/59 15/27/16 30/44/31
f 57/91/58 56/92/57 15/27/16
f 56/92/57 16/28/17 15/27/16
